<svg xmlns="http://www.w3.org/2000/svg" xmlns:xlink="http://www.w3.org/1999/xlink" width="333.939" height="247.342" viewBox="0 0 333.939 247.342">
  <defs>
    <linearGradient id="linear-gradient" x1="0.5" y1="1" x2="0.5" gradientUnits="objectBoundingBox">
      <stop offset="0" stop-color="gray" stop-opacity="0.251"/>
      <stop offset="0.54" stop-color="gray" stop-opacity="0.122"/>
      <stop offset="1" stop-color="gray" stop-opacity="0.102"/>
    </linearGradient>
    <linearGradient id="linear-gradient-2" x1="0.5" y1="1" x2="0.5" y2="0" xlink:href="#linear-gradient"/>
    <linearGradient id="linear-gradient-3" x1="-0.211" y1="3.614" x2="-0.211" y2="0.343" xlink:href="#linear-gradient"/>
    <linearGradient id="linear-gradient-4" x1="-0.036" y1="4.542" x2="-0.036" y2="1.284" xlink:href="#linear-gradient"/>
    <linearGradient id="linear-gradient-5" x1="-0.017" y1="4.446" x2="-0.017" y2="1.187" xlink:href="#linear-gradient"/>
    <linearGradient id="linear-gradient-6" x1="-1.04" y1="1.715" x2="-1.04" y2="0.715" xlink:href="#linear-gradient"/>
    <linearGradient id="linear-gradient-7" x1="0.551" y1="0.784" x2="0.551" y2="0.225" xlink:href="#linear-gradient"/>
    <linearGradient id="linear-gradient-8" x1="0.5" y1="1" x2="0.5" y2="0" xlink:href="#linear-gradient"/>
  </defs>
  <g id="_5b9f720f08470e3f35fac2cd_undraw_upload_87y9_1_" data-name="5b9f720f08470e3f35fac2cd_undraw_upload_87y9 (1)" transform="translate(0 -0.002)">
    <path id="Path_29" data-name="Path 29" d="M240.522,68.22c-10.956-4.454-22.534-8.182-34.354-7.708A51.079,51.079,0,0,0,163.938,87c-6.933,13-7.787,28.244-10.773,42.672-3.679,17.78-10.723,34.675-18.251,51.2-4.044,8.863-8.309,17.942-8.972,27.672-.923,13.506,5.536,26.967,15.66,35.96s23.581,13.724,37.072,14.758c7.183.551,14.688.041,21.069-3.3,6.75-3.537,11.669-9.93,18.446-13.414,6.281-3.242,13.627-3.684,20.677-3.263a92.6,92.6,0,0,1,27,5.736c9.854,3.7,19.018,9.061,28.851,12.813s20.819,5.848,30.87,2.715c9.432-2.948,16.9-10.081,23.631-17.317a303.05,303.05,0,0,0,30.124-38.112c6.069-9.09,11.717-18.682,14.4-29.278,5.129-20.256-1.931-43.111-17.594-56.947-12.969-11.46-30.387-16.436-47.432-19.454-15.543-2.753-33.514-2.924-47.821-10.1C267.244,82.483,254.829,74.039,240.522,68.22Z" transform="translate(-98.643 -51.615)" fill="#b7b7b7" opacity="0.1"/>
    <path id="Path_30" data-name="Path 30" d="M780.692,137.738c-4.209.168-4.421,11.036-4.159,11.51s-.955,5.379-.955,5.379-1.91,7.437-1.689,8.819a2.576,2.576,0,0,1-1.029,2.287c-1.869.737-4.212,3.113-4.834,3.764l-.156.168a13.6,13.6,0,0,0-2.128,1.645c-.318.466-1.179.094-1.179.094a22.98,22.98,0,0,0-2.765-.141c-.218.065-.56-.336-.755-.59-.091-.121-.15-.212-.15-.212l-.074-2.193a1.794,1.794,0,0,0-.295-.183c.05-.248.112-.5.189-.766a6.567,6.567,0,0,0,2.679-2.405c.071-.112.136-.227.2-.342a.885.885,0,0,0,.557.156,1.105,1.105,0,0,0,.259-.024,2.1,2.1,0,0,0,.755-.38,4.038,4.038,0,0,0,1.4-1.645,2.665,2.665,0,0,0,.133-.392c-.044.074-.091.147-.138.218a2.267,2.267,0,0,0-.156-1.913,6.28,6.28,0,0,1-.737-1.085c-.248-.71.221-1.444.51-2.14a3.6,3.6,0,0,0,.262-2.016,2.576,2.576,0,0,0-1.091-1.7c-1.158-.752-2.729-.339-4.071-.7a11.023,11.023,0,0,1-1.4-.563,10.61,10.61,0,0,0-2.143-.666,2.1,2.1,0,0,0-2.063.41,4.233,4.233,0,0,0-.336.569,2.107,2.107,0,0,1-1.318.946,4.94,4.94,0,0,1-.811.085.784.784,0,0,0,0-.336c-.342-1.12.637-1.951,1.91-2.452a31.819,31.819,0,0,0,6.679-5.22c.563-.9,4.5-3.743,4.5-3.743a12.374,12.374,0,0,0,7.829-7.746c1.934-6.078-9.249,4.244-10.375,4.554a11.473,11.473,0,0,0-2.738,1.474l-7.171,4.147a25.973,25.973,0,0,0-3.867,2.671,12.985,12.985,0,0,0-2.836,4.05s-.687,1.12-1.689,2.741a7.463,7.463,0,0,1-2.187,2.326l.032-.059c-.08.1-2.547,3.213-2.765,4.575s-1.223,6.912-1.223,6.912-.884,4.359-1.491,5.217a14.954,14.954,0,0,1-.784,2.839c-.292.336-1.474,3.882-1.273,4.242,0,0-1.126,2.455-.928,3.384l-2.031,4.863a11.2,11.2,0,0,0-1.029,3.811c.035.681.065,1.474.086,2.122v.295h0v.295c-.109.183-.389.648-.681,1.211a6.309,6.309,0,0,0-.837,2.473c.047,1.108.05,3.814-.46,4.807l-.15-.059a2.063,2.063,0,0,0-.295.979l.035.018c0,.085-.027.174-.035.268-.124,1.129.056,2.7-.227,3.045-.392.477-.2,11.059-.2,11.059s-.637,6.623.637,10.821l-.1,3.287a30.607,30.607,0,0,0,.1,3.537,34.48,34.48,0,0,1,.2,3.575l.734,5.244s-.982,8.1-.147,10.1a11.013,11.013,0,0,1,.884,3.481,5.414,5.414,0,0,0,1.35.522v.295l-.192,4.928v.271s-.024.13-.041.345h0v.121a.146.146,0,0,0,0,.035c0,.032,0,.068,0,.1a.721.721,0,0,0,0,.08.582.582,0,0,1,0,.071v.445h0v.43a.851.851,0,0,0,.024.147.143.143,0,0,0,0,.035.753.753,0,0,0,.032.162h0a.627.627,0,0,0,.038.159.038.038,0,0,1,0,.018h0a.29.29,0,0,0,.024.083.149.149,0,0,0,0,.038.48.48,0,0,0,.029.1v.024c.029.083.059.165.094.248a.1.1,0,0,0,0,.027c0,.029.027.062.041.091l.018.041.038.08.024.044.041.074.027.044c0,.024.027.047.041.071s.021.029.029.047l.044.068.032.044.047.068.035.044.053.065.035.041.062.071.032.035.1.1a.152.152,0,0,0,.032.029.806.806,0,0,0,.074.068l.047.038.065.053.056.041.065.047.062.041.065.041.068.038.068.041.071.035.074.035.074.035.074.032.08.032.08.029.083.029.088.027.138.041.115.029.091.018.094.021h.1l.1.015h1.244l.159-.015h.1l.268-.029s3.34.5,3.449-.822a1.055,1.055,0,0,1,.015-.212v-.168a.436.436,0,0,1,0-.062v-1.677c-.021-.654-.053-1.262-.074-1.6a2.147,2.147,0,0,0-.018-.295s-1.138-1.715-.952-2.358a16.965,16.965,0,0,0,.144-2.824s-.442-1.046-.74-1.972c-.024-.071-.044-.141-.065-.209a10.891,10.891,0,0,0,.7-.884,11.2,11.2,0,0,0-.831-6.72.418.418,0,0,1-.18-.345.143.143,0,0,1,0-.035l.569-6.959-.345-4.05a11.15,11.15,0,0,1,.295-3.959l1.076-10.484,1.527-6.1s.489-.239.884.908,1.368,6.337,1.368,6.337l2.358,8.58a17.028,17.028,0,0,0,.734,3.481,6.641,6.641,0,0,1,.345,2.335,6.032,6.032,0,0,1,.637,2.193,9.485,9.485,0,0,0,.242,3.1,41.994,41.994,0,0,1,.345,5.011,10.121,10.121,0,0,0,.1,4.339,15.276,15.276,0,0,1,.245,4.958,3.386,3.386,0,0,0,.2.277c-.024.065-.05.13-.074.189-.153.4-.274.678-.274.678a17.382,17.382,0,0,0,.147,2.824c.183.643-.955,2.358-.955,2.358s0,.106-.018.295c-.021.339-.053.943-.074,1.6v1.68a.39.39,0,0,0,0,.056v.171a1.084,1.084,0,0,0,.015.212c.112,1.321,3.452.822,3.452.822l.268.032H753l.1-.018.1-.015.094-.021.094-.018.115-.029.138-.041.086-.027.083-.029a.635.635,0,0,0,.08-.029l.08-.032.077-.032.074-.032.074-.038.068-.035.071-.038.065-.041.068-.041.059-.041.065-.047a.394.394,0,0,0,.056-.041.536.536,0,0,0,.065-.05l.05-.041.074-.065.032-.032.1-.1.029-.035.065-.068.032-.044a.593.593,0,0,0,.056-.065l.032-.044.05-.068.029-.044.047-.068a.412.412,0,0,1,.029-.047c0-.024.026-.047.041-.071l.027-.044c0-.027.027-.05.038-.074a.318.318,0,0,0,.024-.044c0-.027.027-.053.038-.08l.021-.041c0-.029.027-.059.041-.091v-.027c.032-.083.065-.165.091-.248v-.024a.315.315,0,0,1,.032-.1.222.222,0,0,1,0-.041.112.112,0,0,1,.024-.083v-.015a.039.039,0,0,0,0-.018.716.716,0,0,1,.041-.156h0a1.016,1.016,0,0,1,.032-.159v-.038a1.131,1.131,0,0,1,.024-.144.117.117,0,0,0,0-.05v-.383h0v-.516a.721.721,0,0,1,0-.08v-.1a.146.146,0,0,1,0-.035c0-.041,0-.083,0-.118h0c-.018-.215-.038-.345-.038-.345v-.268l-.186-4.769v-.295c.274-.153.554-.327.846-.531,0,0-.05-2.718.734-3.811s-.392-3.959-.392-3.959l-.489-10.249.195-4.716a4.689,4.689,0,0,1-.59-2.287,8.321,8.321,0,0,0-.784-2.948s-.489-1.621.1-2.1-.637-10.906-.637-10.906a98.394,98.394,0,0,0-.265-12.144v-.074l.156-.071c-.047-.363-.1-.7-.153-1.017l-.165.05a8.284,8.284,0,0,0-.295-1.179l-.784-3.6s-.018-.189-.038-.463c-.027-.324-.056-.763-.062-1.15a1.953,1.953,0,0,1,.053-.483l-.041-.035a1.073,1.073,0,0,1,.041-.251l-.171-.144s-.024-.162-.041-.41a4.611,4.611,0,0,1,.212-2.043c.392-.787,4.421-3.767,4.421-3.767l2.258-4.519s2.252-3.172,3.964-3.791,7.048-4.168,7.048-4.168a17.58,17.58,0,0,0,2.007-2.358l.062-.094h.035v-.062l5.011-7.507c2-1.621,2.078-5.076,2.078-5.076l.522-7.894-.171-4.669.242-2.653S784.9,137.573,780.692,137.738Zm-28.7,20.427a6.316,6.316,0,0,0-.831,3.13v.286a6.3,6.3,0,0,0,.669,2.823,2.314,2.314,0,0,0-.486.864,4.688,4.688,0,0,1-1.014-1.9,1.979,1.979,0,0,0-.784-1.285,5.4,5.4,0,0,1,.047-1.692l.027-.024s.021-.035.062-.094h0c.209-.315.914-1.379,1.642-2.591a2.319,2.319,0,0,0,.374.124l.448.112Z" transform="translate(-523.903 -102.286)" fill="url(#linear-gradient)"/>
    <path id="Path_31" data-name="Path 31" d="M855.36,216.552c.044-.1.08-.206.115-.312a6.533,6.533,0,0,0-.295.722C855.242,216.824,855.3,216.688,855.36,216.552Z" transform="translate(-612.996 -161.47)" fill="url(#linear-gradient-2)"/>
    <path id="Path_32" data-name="Path 32" d="M804.458,238.943s-.923,4.4-2.623,4.967,2.063,5.6,2.063,5.6l7.8-.427.141-1.63a8.055,8.055,0,0,1,.993-7.233C815.3,236.249,804.458,238.943,804.458,238.943Z" transform="translate(-575.063 -176.851)" fill="#f6bac2"/>
    <path id="Path_33" data-name="Path 33" d="M751.482,563.635c-.106,1.312-3.334.817-3.334.817-5.353.743-4.469-4.5-4.469-4.5v-.268l.186-4.893.053-1.365s5.9-2.694,5.745-2.128a3.352,3.352,0,0,0,.239,1.273c.295.917.716,1.954.716,1.954a17.62,17.62,0,0,1-.141,2.8c-.177.637.923,2.34.923,2.34s0,.106.018.295a34.387,34.387,0,0,1,.065,3.679Z" transform="translate(-534.323 -397.708)" fill="#b77983"/>
    <path id="Path_34" data-name="Path 34" d="M797.25,566.468s-3.228.5-3.334-.817a33.523,33.523,0,0,1,.056-3.687,2.633,2.633,0,0,1,.015-.295s1.1-1.7.923-2.34a17.654,17.654,0,0,1-.141-2.8s.115-.274.265-.669a8.153,8.153,0,0,0,.693-2.556c-.141-.569,5.745,2.125,5.745,2.125l.059,1.527.18,4.731v.268S802.606,567.214,797.25,566.468Z" transform="translate(-569.771 -399.124)" fill="#b77983"/>
    <path id="Path_35" data-name="Path 35" d="M805.414,137.8a12.084,12.084,0,0,1-7.563,7.684s-3.808,2.824-4.351,3.708a31.27,31.27,0,0,1-6.455,5.179c-1.232.5-2.172,1.323-1.842,2.432.295,1.029-2.93,6.063-3.416,6.812h0l-.059.094-1.017,1.064-3.452,1.748-2.812-.9-.357-3.378,1.491-2.653h0a7.318,7.318,0,0,0,2.113-2.308c.97-1.609,1.633-2.718,1.633-2.718a12.967,12.967,0,0,1,2.741-4.02,24.8,24.8,0,0,1,3.735-2.653l6.93-4.127a11.174,11.174,0,0,1,2.653-1.474C796.48,141.978,807.283,131.773,805.414,137.8Z" transform="translate(-555.808 -104.81)" fill="#f6bac2"/>
    <path id="Path_36" data-name="Path 36" d="M777.259,221.044l4.61-.923a.3.3,0,0,0-.083.192h0l-.059.094-1.017,1.064-3.452,1.748-2.812-.9-.357-3.378,1.491-2.653h0a5.287,5.287,0,0,0-.035,5.04Z" transform="translate(-555.808 -161.505)" opacity="0.05"/>
    <path id="Path_37" data-name="Path 37" d="M861.046,267.845a.873.873,0,0,0-.032.094,1.291,1.291,0,0,1-.171.295l-1.86.908-2.839.295-1.474-3.569.982-3.911.542-.731.15-.165c.056.707.342,4.4.324,5.506-.024,1.229.884,1.326.884,1.326Z" transform="translate(-612.636 -193.079)" opacity="0.05"/>
    <path id="Path_38" data-name="Path 38" d="M781.1,236.359a.845.845,0,0,0-.032.094,17.248,17.248,0,0,1-1.937,2.34s-5.155,3.522-6.809,4.127-3.832,3.758-3.832,3.758l-2.175,4.489s-3.9,2.948-4.277,3.738a4.658,4.658,0,0,0-.2,2.028,2.1,2.1,0,0,0,.035.407l-1.15,1.2-.917.955-1.291,1.344-2.1-.295-6.549-1.04-1.256-.707-6.971-3.926s0-.245-.018-.619c0-.165,0-.354-.018-.563-.021-.637-.05-1.43-.083-2.1a11.365,11.365,0,0,1,.993-3.782l1.96-4.825c-.189-.92.9-3.357.9-3.357-.189-.354.946-3.876,1.229-4.206a14.993,14.993,0,0,0,.758-2.815c.59-.849,1.441-5.176,1.441-5.176s.97-5.485,1.179-6.856,2.594-4.442,2.671-4.536a5.372,5.372,0,0,0-.212,5.388l1.7-.295,4.613-.9c-.212.141-.071,1.7-.071,1.7a1.966,1.966,0,0,1,.755,1.276,4.9,4.9,0,0,0,1.04,1.96l.024.027a2.308,2.308,0,0,1,1.111-1.586l1.064,1.421.357,1.7s-.1.239-.71.71.259,1.7.259,1.7a8.663,8.663,0,0,1,.38,2.34h0a3.447,3.447,0,0,1,2.007-.684,6.077,6.077,0,0,0,1.206-1.727.713.713,0,0,1,1.017-.472,6.536,6.536,0,0,1,1.158-.8c.569-.295,1.229.295,1.229.295l.071,2.178s.056.088.147.209c.186.259.519.657.728.59a21.591,21.591,0,0,1,2.671.141s.828.354,1.135-.094a13.988,13.988,0,0,1,2.063-1.63s.339,4.389.339,5.615.884,1.326.884,1.326Z" transform="translate(-532.837 -161.322)" fill="#d39999"/>
    <path id="Path_39" data-name="Path 39" d="M875.852,284.687h-.062C875.9,284.392,875.852,284.687,875.852,284.687Z" transform="translate(-627.531 -209.649)" fill="none"/>
    <circle id="Ellipse_5" data-name="Ellipse 5" cx="0.424" cy="0.424" r="0.424" transform="translate(228.499 71.74)" fill="#4b4442"/>
    <circle id="Ellipse_6" data-name="Ellipse 6" cx="0.424" cy="0.424" r="0.424" transform="translate(225.401 77.912)" fill="#4b4442"/>
    <circle id="Ellipse_7" data-name="Ellipse 7" cx="0.424" cy="0.424" r="0.424" transform="translate(219.302 91.126)" fill="#4b4442"/>
    <circle id="Ellipse_8" data-name="Ellipse 8" cx="0.424" cy="0.424" r="0.424" transform="translate(222.185 84.458)" fill="#4b4442"/>
    <path id="Path_40" data-name="Path 40" d="M750.557,552.566c-2.217,2.635-4.61,2.591-6.037,2.22l.053-1.365s5.9-2.694,5.745-2.128A3.13,3.13,0,0,0,750.557,552.566Z" transform="translate(-534.954 -397.708)" opacity="0.05"/>
    <path id="Path_41" data-name="Path 41" d="M804.295,556.993c-3.764,2.175-5.972-.374-6.485-1.1a8.153,8.153,0,0,0,.693-2.556c-.141-.569,5.745,2.125,5.745,2.125Z" transform="translate(-572.536 -399.152)" opacity="0.05"/>
    <path id="Path_42" data-name="Path 42" d="M759.389,405.87c-.755,1.088-.71,3.782-.71,3.782-4.869,3.5-7.422-.758-7.422-.758a15.656,15.656,0,0,0-.236-4.917,10.26,10.26,0,0,1-.094-4.3,41.5,41.5,0,0,0-.333-4.964,9.5,9.5,0,0,1-.236-3.074,6.065,6.065,0,0,0-.613-2.172,6.682,6.682,0,0,0-.333-2.317,17.049,17.049,0,0,1-.707-3.455l-2.267-8.51s-.946-5.152-1.323-6.287-.852-.9-.852-.9l-1.362,6.1-1.04,10.4a11.411,11.411,0,0,0-.295,3.926l.33,4.018-.548,6.9a.143.143,0,0,0,0,.035.421.421,0,0,0,.171.342,11.359,11.359,0,0,1,.793,6.667c-3.593,5.2-7.944,2.505-7.944,2.505a11.033,11.033,0,0,0-.849-3.449c-.8-1.987.141-10.022.141-10.022l-.71-5.2a34.826,34.826,0,0,0-.189-3.537,31.127,31.127,0,0,1-.094-3.5l.094-3.263c-1.229-4.162-.616-10.732-.616-10.732s-.189-10.5.192-10.971c.274-.342.1-1.9.218-3.021a2.107,2.107,0,0,1,.277-.97l.047-.047c.616-.758.616-3.782.566-4.967a6.378,6.378,0,0,1,.811-2.452c.295-.572.563-1.043.663-1.214l.041-.068s2.694.663,9.833,4.068a13.417,13.417,0,0,0,4.062,1.259,9.037,9.037,0,0,0,2.119.032,7.4,7.4,0,0,0,3.048-.99,5.357,5.357,0,0,0,1.318-1.058,8.808,8.808,0,0,0,0,1.9c.018.274.038.46.038.46l.787,3.508a9.2,9.2,0,0,1,.295,1.27c.056.312.1.651.147,1.011a98,98,0,0,1,.256,12.047s1.179,10.355.616,10.826-.1,2.081-.1,2.081a8.392,8.392,0,0,1,.758,2.93,4.717,4.717,0,0,0,.569,2.27l-.192,4.681.5,10.154S760.146,404.782,759.389,405.87Z" transform="translate(-526.118 -252.615)" fill="#8499f0"/>
    <path id="Path_43" data-name="Path 43" d="M806.13,489s3.581-2.063,4.362-1.135S806.13,489,806.13,489Z" transform="translate(-578.404 -352.862)" opacity="0.05"/>
    <path id="Path_44" data-name="Path 44" d="M813.151,496.14s-.589.295.71.672S813.151,496.14,813.151,496.14Z" transform="translate(-583.261 -358.867)" opacity="0.05"/>
    <path id="Path_45" data-name="Path 45" d="M739.992,476.781a5.5,5.5,0,0,0,5.78.389A43.1,43.1,0,0,0,739.992,476.781Z" transform="translate(-531.758 -345.183)" opacity="0.05"/>
    <path id="Path_46" data-name="Path 46" d="M751.912,490.24a3.8,3.8,0,0,1-2.588,1.916C747.585,492.4,751.912,490.24,751.912,490.24Z" transform="translate(-538.051 -354.706)" opacity="0.05"/>
    <path id="Path_47" data-name="Path 47" d="M797.71,502.52s4.079,6.485,3.3,8.014S797.71,502.52,797.71,502.52Z" transform="translate(-572.466 -363.367)" opacity="0.05"/>
    <path id="Path_48" data-name="Path 48" d="M773.354,369.09l-.424,12.7s2.517-.106,2.948-4.289.746-7.59.746-7.59Z" transform="translate(-554.99 -269.266)" opacity="0.05"/>
    <path id="Path_49" data-name="Path 49" d="M772.874,368.13l-.424,12.7s2.517-.106,2.948-4.292.752-7.587.752-7.587Z" transform="translate(-554.651 -268.589)" fill="#8499f0"/>
    <path id="Path_50" data-name="Path 50" d="M740.942,369.122s-1.987,5.326-6.532,2.747a2.1,2.1,0,0,1,.277-.97c1.244.522,4.127,1.285,5.306-2.169Z" transform="translate(-527.824 -269.012)" opacity="0.05"/>
    <path id="Path_51" data-name="Path 51" d="M740.462,367.2s-1.987,5.326-6.532,2.747a2.108,2.108,0,0,1,.277-.97c1.244.525,4.127,1.285,5.306-2.166Z" transform="translate(-527.485 -267.658)" opacity="0.05"/>
    <path id="Path_52" data-name="Path 52" d="M740.462,368.159s-1.987,5.326-6.532,2.747a2.107,2.107,0,0,1,.277-.97c1.244.525,4.127,1.285,5.306-2.166Z" transform="translate(-527.485 -268.335)" fill="#8499f0"/>
    <path id="Path_53" data-name="Path 53" d="M798.764,377.615c-4.993,2.376-6.824-3.225-6.824-3.225l1.179.035c.206,3.581,4.153,2.617,5.506,2.178C798.672,376.928,798.719,377.255,798.764,377.615Z" transform="translate(-568.396 -273.004)" opacity="0.05"/>
    <path id="Path_54" data-name="Path 54" d="M799.724,376.168c-4.99,2.373-6.824-3.228-6.824-3.228l1.179.035c.206,3.581,4.153,2.62,5.506,2.181C799.632,375.469,799.679,375.808,799.724,376.168Z" transform="translate(-569.073 -271.981)" opacity="0.05"/>
    <path id="Path_55" data-name="Path 55" d="M799.244,376.648c-4.99,2.373-6.824-3.228-6.824-3.228l1.179.035c.206,3.584,4.153,2.62,5.506,2.181C799.152,375.949,799.2,376.288,799.244,376.648Z" transform="translate(-568.735 -272.32)" fill="#8499f0"/>
    <path id="Path_56" data-name="Path 56" d="M740.462,368.159s-1.987,5.326-6.532,2.747a2.107,2.107,0,0,1,.277-.97c1.244.525,4.127,1.285,5.306-2.166Z" transform="translate(-527.485 -268.335)" fill="#fff" opacity="0.1"/>
    <path id="Path_57" data-name="Path 57" d="M799.244,376.648c-4.99,2.373-6.824-3.228-6.824-3.228l1.179.035c.206,3.584,4.153,2.62,5.506,2.181C799.152,375.949,799.2,376.288,799.244,376.648Z" transform="translate(-568.735 -272.32)" fill="#fff" opacity="0.1"/>
    <path id="Path_58" data-name="Path 58" d="M751.52,582.669a8.36,8.36,0,0,1-.035.982c-.106,1.312-3.334.817-3.334.817-2.948.41-4.009-1.005-4.359-2.358a5.393,5.393,0,0,1-.162-1.344,5.568,5.568,0,0,1,.053-.808v-.268a1.972,1.972,0,0,1,1.833.374,3.113,3.113,0,0,0,3.051.248,4.093,4.093,0,0,1,1.769.531c.277.239.734-.336,1.082-.884.021.354.053.993.074,1.677C751.514,581.985,751.52,582.339,751.52,582.669Z" transform="translate(-534.326 -417.73)" opacity="0.05"/>
    <path id="Path_59" data-name="Path 59" d="M746.345,585.4s-.884.867-2.553-.472a5.393,5.393,0,0,1-.162-1.344A15.422,15.422,0,0,0,746.345,585.4Z" transform="translate(-534.326 -420.534)" opacity="0.05"/>
    <path id="Path_60" data-name="Path 60" d="M768.108,587.518a.666.666,0,0,1-.958-.153,6.3,6.3,0,0,0,.943-.884C768.1,586.834,768.108,587.187,768.108,587.518Z" transform="translate(-550.913 -422.579)" opacity="0.05"/>
    <path id="Path_61" data-name="Path 61" d="M793.868,584.734a9.071,9.071,0,0,0,.032.982c.106,1.315,3.334.816,3.334.816,2.948.413,4.009-1,4.359-2.358a5.663,5.663,0,0,0,.109-2.152v-.268a2,2,0,0,0-1.836.374,3.108,3.108,0,0,1-3.048.248,4.11,4.11,0,0,0-1.769.533c-.277.239-.734-.336-1.079-.884-.021.354-.056.993-.077,1.677C793.871,584.047,793.865,584.4,793.868,584.734Z" transform="translate(-569.756 -419.188)" opacity="0.05"/>
    <path id="Path_62" data-name="Path 62" d="M811.43,587.443s.884.867,2.55-.472a5.377,5.377,0,0,0,.165-1.341A15.758,15.758,0,0,1,811.43,587.443Z" transform="translate(-582.141 -421.979)" opacity="0.05"/>
    <path id="Path_63" data-name="Path 63" d="M793.868,589.578a.663.663,0,0,0,.955-.153,6.233,6.233,0,0,1-.943-.884C793.871,588.891,793.865,589.245,793.868,589.578Z" transform="translate(-569.756 -424.032)" opacity="0.05"/>
    <path id="Path_64" data-name="Path 64" d="M773.033,285s-4.539,12.53-2.791,13.618S773.033,285,773.033,285Z" transform="translate(-552.811 -209.962)" opacity="0.05"/>
    <path id="Path_65" data-name="Path 65" d="M790.591,271.88s-.855,4.162-.427,4.539S790.591,271.88,790.591,271.88Z" transform="translate(-567.059 -200.709)" opacity="0.05"/>
    <path id="Path_66" data-name="Path 66" d="M810.509,304.77s-5.58,5.2-5.2,5.627S810.509,304.77,810.509,304.77Z" transform="translate(-577.81 -223.905)" opacity="0.05"/>
    <path id="Path_67" data-name="Path 67" d="M820.459,259.353c-2.113.646-7.054,2.155-7.109,2.143l.274-1.126a3.447,3.447,0,0,1,2.007-.684,6.076,6.076,0,0,0,1.206-1.727.713.713,0,0,1,1.017-.472,6.71,6.71,0,0,1,1.158-.8c.569-.295,1.229.295,1.229.295l.071,2.175S820.368,259.232,820.459,259.353Z" transform="translate(-583.496 -189.933)" opacity="0.05"/>
    <path id="Path_68" data-name="Path 68" d="M820.459,258.413c-2.113.646-7.054,2.155-7.109,2.14l.274-1.123a3.447,3.447,0,0,1,2.007-.684,6.076,6.076,0,0,0,1.206-1.727.713.713,0,0,1,1.017-.472,6.537,6.537,0,0,1,1.158-.8c.569-.295,1.229.295,1.229.295l.071,2.178S820.368,258.286,820.459,258.413Z" transform="translate(-583.496 -189.27)" fill="#d39999"/>
    <path id="Path_69" data-name="Path 69" d="M807.468,247.748a8.631,8.631,0,0,1,.377,2.34l-.822.654-1.562-4.5-.071-2.34-.029-.133.024.027a2.3,2.3,0,0,1,1.111-1.583l1.064,1.418.357,1.7s-.1.239-.71.71S807.468,247.748,807.468,247.748Z" transform="translate(-577.861 -179.785)" opacity="0.05"/>
    <path id="Path_70" data-name="Path 70" d="M807.958,247.253a8.661,8.661,0,0,1,.38,2.34l-.822.663-1.562-4.5-.071-2.34-.032-.133.024.027a2.308,2.308,0,0,1,1.111-1.586l1.064,1.421.357,1.7s-.1.239-.71.71S807.958,247.253,807.958,247.253Z" transform="translate(-578.206 -179.439)" fill="#d39999"/>
    <path id="Path_71" data-name="Path 71" d="M817.823,219.074a6.328,6.328,0,1,1-1.853-4.53A6.381,6.381,0,0,1,817.823,219.074Z" transform="translate(-577.649 -158.965)" opacity="0.05"/>
    <path id="Path_72" data-name="Path 72" d="M817.809,218.111a6.346,6.346,0,1,1-1.859-4.523A6.384,6.384,0,0,1,817.809,218.111Z" transform="translate(-577.635 -158.289)" fill="#f6bac2"/>
    <path id="Path_73" data-name="Path 73" d="M819.741,218.092a6.347,6.347,0,0,1-.928,3.316c-.094-.168-.15-.363-.245-.534-.133-.239-.439-.439-.666-.295a.681.681,0,0,0-.209.295c-.186.392-.516.784-.949.775a.94.94,0,0,1-.808-.69,2.832,2.832,0,0,1-.047-1.126,2.566,2.566,0,0,0-.492-2.166,3.225,3.225,0,0,0-1.232-.551,1.616,1.616,0,0,1-1.061-.784c-.118-.295-.088-.607-.195-.884a1.547,1.547,0,0,0-1.147-.843,3.007,3.007,0,0,1-2.007.687,7.523,7.523,0,0,1-1.975-.312,6.384,6.384,0,0,1,11.961,3.1Z" transform="translate(-579.567 -158.27)" opacity="0.05"/>
    <path id="Path_74" data-name="Path 74" d="M810.437,207.593c.106.295.077.613.195.884a1.609,1.609,0,0,0,1.061.784,3.243,3.243,0,0,1,1.232.548,2.575,2.575,0,0,1,.492,2.169,2.833,2.833,0,0,0,.047,1.126.946.946,0,0,0,.808.69,1.173,1.173,0,0,0,.949-.775.687.687,0,0,1,.209-.295c.227-.15.534.05.666.295a2.922,2.922,0,0,0,.38.716.849.849,0,0,0,.775.177,1.954,1.954,0,0,0,.728-.377,3.991,3.991,0,0,0,1.356-1.63,2.34,2.34,0,0,0-.085-2.063,6.2,6.2,0,0,1-.71-1.079c-.242-.7.212-1.43.492-2.119a3.679,3.679,0,0,0,.25-2,2.57,2.57,0,0,0-1.052-1.689c-1.12-.746-2.635-.336-3.932-.7a9.976,9.976,0,0,1-1.353-.557,10.02,10.02,0,0,0-2.063-.66,2.009,2.009,0,0,0-2,.4,4.458,4.458,0,0,0-.324.566,2.037,2.037,0,0,1-1.273.937c-.38.091-.778.068-1.179.124a1.3,1.3,0,0,0-.982.563,1.953,1.953,0,0,0-.065,1.179,1.2,1.2,0,0,1-.295,1.111c-.15.115-.357.171-.448.333a.469.469,0,0,0,.138.557,1.33,1.33,0,0,0,.563.248,8.616,8.616,0,0,0,2.261.386,2.983,2.983,0,0,0,2.1-.775c-.05.05-.374.029-.433.027A1.722,1.722,0,0,1,810.437,207.593Z" transform="translate(-577.095 -150.691)" fill="#7e646b"/>
    <g id="Group_2" data-name="Group 2" transform="translate(227.265 52.725)" opacity="0.05">
      <path id="Path_75" data-name="Path 75" d="M818.547,224.845a2.007,2.007,0,0,1-.728.38.855.855,0,0,1-.772-.18,2.877,2.877,0,0,1-.383-.716c-.133-.239-.439-.439-.666-.295a.722.722,0,0,0-.209.295,1.154,1.154,0,0,1-.949.775.934.934,0,0,1-.8-.69,2.832,2.832,0,0,1-.05-1.126,2.568,2.568,0,0,0-.489-2.166,3.242,3.242,0,0,0-1.235-.551,1.623,1.623,0,0,1-1.061-.784c-.118-.295-.088-.607-.195-.884a1.541,1.541,0,0,0-1.147-.843,3.059,3.059,0,0,1-2.007.69,8.743,8.743,0,0,1-2.261-.389,1.365,1.365,0,0,1-.563-.245.622.622,0,0,1-.091-.106.825.825,0,0,0-.33.256.469.469,0,0,0,.139.557,1.329,1.329,0,0,0,.563.248,8.616,8.616,0,0,0,2.261.386,3.033,3.033,0,0,0,2-.687,1.543,1.543,0,0,1,1.15.84c.106.295.077.613.195.884a1.616,1.616,0,0,0,1.061.784,3.242,3.242,0,0,1,1.232.548A2.575,2.575,0,0,1,813.7,224a2.833,2.833,0,0,0,.047,1.126.946.946,0,0,0,.808.69,1.173,1.173,0,0,0,.949-.775.687.687,0,0,1,.209-.295c.227-.15.534.05.666.295a2.832,2.832,0,0,0,.383.716.843.843,0,0,0,.772.177,1.955,1.955,0,0,0,.728-.377,3.991,3.991,0,0,0,1.356-1.63,2.607,2.607,0,0,0,.127-.389A4.2,4.2,0,0,1,818.547,224.845Z" transform="translate(-804.565 -215.443)"/>
      <path id="Path_76" data-name="Path 76" d="M854,219.866c.062-.136.121-.271.177-.4a2.681,2.681,0,0,0,.109-.312A6.956,6.956,0,0,0,854,219.866Z" transform="translate(-839.429 -216.247)"/>
      <path id="Path_77" data-name="Path 77" d="M807.065,211.066a1.209,1.209,0,0,0,.268-1.085,4.827,4.827,0,0,1-.056-.681,1,1,0,0,0-.162.206,1.953,1.953,0,0,0-.065,1.179A2.294,2.294,0,0,1,807.065,211.066Z" transform="translate(-806.277 -209.3)"/>
    </g>
    <path id="Path_78" data-name="Path 78" d="M760.685,350.507c-.548.038-1.318.08-2.243.112-.643.021-1.362.035-2.131.035-.672,0-1.382,0-2.119-.032a45.445,45.445,0,0,1-6.947-.716c-3.062-.59-5.9-1.606-7.664-3.328.295-.572.563-1.046.663-1.214,0-.165,0-.357-.018-.563,3.11,1.474,12.8,5.568,20.235,3.242a2.1,2.1,0,0,0,.035.407l.168.141A8.949,8.949,0,0,0,760.685,350.507Z" transform="translate(-531.47 -252.136)" opacity="0.05"/>
    <path id="Path_79" data-name="Path 79" d="M760.685,349.539c-.548.038-1.318.08-2.243.109-.643.024-1.362.035-2.131.035-.672,0-1.382,0-2.119-.032a45.43,45.43,0,0,1-6.947-.713c-3.062-.59-5.9-1.609-7.664-3.331.295-.572.563-1.043.663-1.214,0-.165,0-.354-.018-.563,3.11,1.474,12.8,5.571,20.235,3.257a2.1,2.1,0,0,0,.035.407l.168.141A8.837,8.837,0,0,0,760.685,349.539Z" transform="translate(-531.47 -251.452)" fill="#4b4442"/>
    <path id="Path_80" data-name="Path 80" d="M309.832,487.354a4.053,4.053,0,0,1-.9-3.086l13.011-106.457,1.079-8.843a4.082,4.082,0,0,1,4.02-3.584l38.109-.253a4.076,4.076,0,0,0,4.05-4.189l-.015-.4a4.079,4.079,0,0,1,4.077-4.218H413.3a4.076,4.076,0,0,1,4.077,4.068,4.35,4.35,0,0,1-.035.548,4.076,4.076,0,0,0,3.938,4.616l38.46.982a4.073,4.073,0,0,1,3.914,4.763L444.43,483.6l-.363,2.122a3.988,3.988,0,0,1-.589,1.521Z" transform="translate(-227.733 -260.26)" fill="#b7b6cc"/>
    <g id="Group_3" data-name="Group 3" transform="translate(153.797 72.644)" opacity="0.5">
      <rect id="Rectangle_9" data-name="Rectangle 9" width="77.471" height="23.687" transform="matrix(0.568, -0.823, 0.823, 0.568, 0, 63.738)" fill="url(#linear-gradient-3)"/>
    </g>
    <rect id="Rectangle_10" data-name="Rectangle 10" width="22.519" height="76.433" transform="matrix(0.823, 0.568, -0.568, 0.823, 198.161, 73.506)" fill="#f9fafb"/>
    <rect id="Rectangle_11" data-name="Rectangle 11" width="15.898" height="15.898" transform="matrix(0.821, 0.571, -0.571, 0.821, 199.496, 76.485)" fill="#f7b643"/>
    <rect id="Rectangle_12" data-name="Rectangle 12" width="15.92" height="15.92" transform="matrix(0.823, 0.568, -0.568, 0.823, 189.27, 92.217)" fill="#f7b643" opacity="0.5"/>
    <rect id="Rectangle_13" data-name="Rectangle 13" width="15.92" height="15.92" transform="matrix(0.823, 0.568, -0.568, 0.823, 178.342, 108.031)" fill="#f7b643" opacity="0.3"/>
    <g id="Group_4" data-name="Group 4" transform="translate(149.733 68.85)" opacity="0.5">
      <rect id="Rectangle_14" data-name="Rectangle 14" width="77.182" height="23.687" transform="matrix(0.28, -0.96, 0.96, 0.28, 0, 74.083)" fill="url(#linear-gradient-4)"/>
    </g>
    <rect id="Rectangle_15" data-name="Rectangle 15" width="22.519" height="76.145" transform="matrix(0.96, 0.28, -0.28, 0.96, 171.983, 69.567)" fill="#f9fafb"/>
    <rect id="Rectangle_16" data-name="Rectangle 16" width="15.92" height="15.92" transform="matrix(0.96, 0.28, -0.28, 0.96, 174.821, 71.677)" fill="#f97878"/>
    <rect id="Rectangle_17" data-name="Rectangle 17" width="15.92" height="15.92" transform="matrix(0.96, 0.28, -0.28, 0.96, 169.429, 90.125)" fill="#f97878" opacity="0.5"/>
    <rect id="Rectangle_18" data-name="Rectangle 18" width="15.92" height="15.92" transform="matrix(0.96, 0.28, -0.28, 0.96, 164.039, 108.57)" fill="#f97878" opacity="0.3"/>
    <g id="Group_5" data-name="Group 5" transform="translate(149.774 70.137)" opacity="0.5">
      <rect id="Rectangle_19" data-name="Rectangle 19" width="77.182" height="23.687" transform="matrix(0.08, -0.997, 0.997, 0.08, 0, 76.934)" fill="url(#linear-gradient-5)"/>
    </g>
    <rect id="Rectangle_20" data-name="Rectangle 20" width="22.519" height="76.145" transform="matrix(0.997, 0.08, -0.08, 0.997, 156.673, 70.72)" fill="#f9fafb"/>
    <rect id="Rectangle_21" data-name="Rectangle 21" width="15.92" height="15.92" transform="matrix(0.997, 0.08, -0.08, 0.997, 159.868, 72.213)" fill="#73b53b"/>
    <rect id="Rectangle_22" data-name="Rectangle 22" width="15.92" height="15.92" transform="matrix(0.997, 0.08, -0.08, 0.997, 158.325, 91.367)" fill="#73b53b" opacity="0.5"/>
    <rect id="Rectangle_23" data-name="Rectangle 23" width="15.92" height="15.92" transform="matrix(0.997, 0.08, -0.08, 0.997, 156.784, 110.526)" fill="#73b53b" opacity="0.3"/>
    <g id="Group_6" data-name="Group 6" transform="translate(145.774 72.209)" opacity="0.5">
      <rect id="Rectangle_24" data-name="Rectangle 24" width="23.687" height="77.182" transform="translate(0 1.079) rotate(-2.61)" fill="url(#linear-gradient-6)"/>
    </g>
    <rect id="Rectangle_25" data-name="Rectangle 25" width="22.519" height="76.145" transform="translate(146.574 73.771) rotate(-2.61)" fill="#fff"/>
    <rect id="Rectangle_26" data-name="Rectangle 26" width="15.92" height="15.92" transform="translate(149.928 74.846) rotate(-2.61)" fill="#b7b7b7"/>
    <rect id="Rectangle_27" data-name="Rectangle 27" width="15.94" height="15.94" transform="translate(151.427 93.438) rotate(-2.862)" fill="#b7b7b7" opacity="0.5"/>
    <rect id="Rectangle_28" data-name="Rectangle 28" width="15.92" height="15.92" transform="translate(151.678 113.246) rotate(-2.61)" fill="#b7b7b7" opacity="0.3"/>
    <path id="Path_81" data-name="Path 81" d="M314.438,415.816l-20.008,7.74-29.243,11.3c-1.105-2.063-2.732-4.852-4.746-8.18-6.927-11.478-18.387-29.331-28.591-45.021-11.5-17.685-21.391-32.609-21.391-32.609l7.163-2.063L276.132,330Z" transform="translate(-158.312 -241.698)" fill="#e6ecf8"/>
    <path id="Path_82" data-name="Path 82" d="M331.583,415.816l-20.008,7.74a150.386,150.386,0,0,1-34,3.124c-6.927-11.478-18.387-29.331-28.591-45.021L234.77,346.975,293.276,330Z" transform="translate(-175.456 -241.698)" opacity="0.1"/>
    <path id="Path_83" data-name="Path 83" d="M339.8,390.561s-31.082,18.387-77.489,14.228l-36.995-90.2,17.73-3.048,61.292-10.526,34.781,87.787Z" transform="translate(-168.791 -221.26)" fill="#b7b7b7"/>
    <path id="Path_84" data-name="Path 84" d="M381.531,388.848a146.921,146.921,0,0,1-24.306-.693c-9.22-1.085-18.493-3.319-26.443-7.416a80.133,80.133,0,0,1-17.285-11.61c-12.89-11.593-20.866-28.176-28.028-57.542l61.292-10.526Z" transform="translate(-211.212 -221.288)" opacity="0.1"/>
    <path id="Path_85" data-name="Path 85" d="M394.383,320.96s-22.911,4.486-46.233,1.724c-9.22-1.085-18.493-3.319-26.443-7.416a80.206,80.206,0,0,1-17.285-11.61c-15.952-14.352-24.376-36.346-33.063-80.763,0,0,38.089,9.193,75.753-10.944C347.1,211.965,359.8,291.19,394.383,320.96Z" transform="translate(-201.261 -158.444)" fill="#f9fafb"/>
    <path id="Path_86" data-name="Path 86" d="M427.257,521.7c-9.22-1.085-18.493-3.319-26.443-7.416a80.206,80.206,0,0,1-17.285-11.611c13.582-1.1,15.534-8.527,15.534-8.527C409.133,510.129,427.257,521.7,427.257,521.7Z" transform="translate(-280.368 -357.464)" opacity="0.1"/>
    <path id="Path_87" data-name="Path 87" d="M338.2,284.237s30.973-1.751,39.621-8.427l1.312,4.215s-20.465,9.028-40.933,9.137Z" transform="translate(-248.399 -203.481)" fill="#b7b7b7" opacity="0.3"/>
    <path id="Path_88" data-name="Path 88" d="M338.2,344.886s29.989-1.642,52.647-12.586l.766,1.751s-17.98,10.5-53.413,13.243Z" transform="translate(-248.399 -243.32)" fill="#b7b7b7" opacity="0.3"/>
    <path id="Path_89" data-name="Path 89" d="M346.39,372.4s29.989-1.642,52.644-12.586l.766,1.751s-17.98,10.493-53.41,13.243Z" transform="translate(-254.175 -262.721)" fill="#b7b7b7" opacity="0.3"/>
    <path id="Path_90" data-name="Path 90" d="M354.57,399.946s29.989-1.642,52.647-12.586l.763,1.751s-17.98,10.5-53.41,13.243Z" transform="translate(-259.944 -282.151)" fill="#b7b7b7" opacity="0.3"/>
    <path id="Path_91" data-name="Path 91" d="M362.76,427.5s29.989-1.642,52.644-12.586l.766,1.751s-17.98,10.5-53.41,13.243Z" transform="translate(-265.72 -301.58)" fill="#b7b7b7" opacity="0.3"/>
    <path id="Path_92" data-name="Path 92" d="M370.94,455.056s29.989-1.642,52.647-12.586l.763,1.751s-17.98,10.493-53.41,13.243Z" transform="translate(-271.489 -321.017)" fill="#b7b7b7" opacity="0.3"/>
    <path id="Path_93" data-name="Path 93" d="M1059.717,827.2s-12.462-.752-10.994,7.982a2.123,2.123,0,0,0,1.108,2.243s.021-.648,1.276-.427a5.721,5.721,0,0,0,1.356.065,2.8,2.8,0,0,0,1.654-.684h0s3.5-1.447,4.866-7.171c0,0,1.008-1.25.967-1.571l-2.1.884A3.766,3.766,0,0,1,1058,831.3s-.068-2.721-.472-2.653c-.083,0-1.094.525-1.094.525s1.235,2.653.295,4.563c0,0,.354-3.257-.69-4.371l-1.474.864s1.444,2.729.466,4.958c0,0,.251-3.416-.778-4.749l-1.341,1.046s1.359,2.691.531,4.539c0,0-.109-3.979-.823-4.28a7.624,7.624,0,0,0-1.35,1.474s.928,1.951.351,2.983c0,0-.354-2.653-.643-2.653a8.757,8.757,0,0,0-1.291,2.948,6.375,6.375,0,0,1,1.008-3.127,3.537,3.537,0,0,0-1.792.929s.183-1.244,2.081-1.35a8.288,8.288,0,0,1,1.223-1.415,7.7,7.7,0,0,0-3.03.351s1.008-1.179,3.378-.64l1.323-1.079a10.879,10.879,0,0,0-3.537.035s1.212-1.038,3.894-.295l1.441-.861a13.124,13.124,0,0,0-3.378-.295,5.175,5.175,0,0,1,3.8.059l1.029-.463s-1.55-.295-2-.354-.48-.171-.48-.171a5.347,5.347,0,0,1,2.915.324A13.078,13.078,0,0,0,1059.717,827.2Z" transform="translate(-749.406 -592.334)" fill="#b7b7b7"/>
    <ellipse id="Ellipse_9" data-name="Ellipse 9" cx="8.819" cy="1.491" rx="8.819" ry="1.491" transform="translate(292.909 244.361)" fill="#b7b7b7" opacity="0.1"/>
    <ellipse id="Ellipse_10" data-name="Ellipse 10" cx="30.065" cy="2.724" rx="30.065" ry="2.724" transform="translate(209.793 237.561)" fill="#b7b7b7" opacity="0.1"/>
    <path id="Path_94" data-name="Path 94" d="M1091.025,729.408s-7.024-.424-6.19,4.5a1.2,1.2,0,0,0,.622,1.265s.015-.365.722-.242a3.275,3.275,0,0,0,.763.035,1.574,1.574,0,0,0,.932-.383h0s1.975-.817,2.744-4.044c0,0,.569-.7.545-.884l-1.179.5a2.137,2.137,0,0,1,.085,1.568s-.038-1.536-.265-1.5c-.047,0-.616.295-.616.295a3.5,3.5,0,0,1,.171,2.573s.2-1.836-.389-2.467l-.834.489a3.689,3.689,0,0,1,.262,2.794,5.234,5.234,0,0,0-.439-2.676l-.755.59a3.6,3.6,0,0,1,.295,2.558s-.062-2.243-.463-2.411a4.715,4.715,0,0,0-.763.822s.525,1.1.2,1.683c0,0-.2-1.494-.363-1.5a4.926,4.926,0,0,0-.728,1.665,3.608,3.608,0,0,1,.569-1.768,1.975,1.975,0,0,0-1.011.525s.1-.7,1.179-.76a4.7,4.7,0,0,1,.69-.8,4.344,4.344,0,0,0-1.71.2,1.92,1.92,0,0,1,1.9-.36l.749-.61a6.161,6.161,0,0,0-2,.021,2.406,2.406,0,0,1,2.2-.159l.813-.486a7.34,7.34,0,0,0-1.907-.162,2.911,2.911,0,0,1,2.143.032l.59-.259s-.884-.174-1.132-.2-.271-.1-.271-.1a3.042,3.042,0,0,1,1.645.183A7.12,7.12,0,0,0,1091.025,729.408Z" transform="translate(-774.91 -523.371)" fill="#b7b7b7"/>
    <ellipse id="Ellipse_11" data-name="Ellipse 11" cx="4.973" cy="0.84" rx="4.973" ry="0.84" transform="translate(306.309 211.389)" fill="#b7b7b7" opacity="0.1"/>
    <path id="Path_95" data-name="Path 95" d="M947.224,743.9s-8.483-.513-7.481,5.432a1.447,1.447,0,0,0,.752,1.527s0-.442.884-.295a3.873,3.873,0,0,0,.923.044,1.9,1.9,0,0,0,1.126-.466h0s2.385-.984,3.313-4.881c0,0,.687-.849.657-1.07l-1.447.613a2.558,2.558,0,0,1,.1,1.889s-.047-1.851-.321-1.81c-.056,0-.743.36-.743.36a4.239,4.239,0,0,1,.206,3.107s.242-2.217-.469-2.977l-1.008.59a4.458,4.458,0,0,1,.315,3.375s.171-2.326-.528-3.242l-.914.713s.926,1.83.36,3.089c0,0-.071-2.709-.557-2.912a5.549,5.549,0,0,0-.92.993s.631,1.329.239,2.031c0,0-.242-1.8-.439-1.813a6.168,6.168,0,0,0-.884,2.013,4.353,4.353,0,0,1,.687-2.128,2.388,2.388,0,0,0-1.217.634s.124-.846,1.415-.92a5.435,5.435,0,0,1,.834-.961,5.224,5.224,0,0,0-2.063.236,2.313,2.313,0,0,1,2.3-.433l.9-.737a7.5,7.5,0,0,0-2.408.024,2.93,2.93,0,0,1,2.653-.189l.982-.589a8.922,8.922,0,0,0-2.3-.2,3.524,3.524,0,0,1,2.588.041l.7-.315s-1.055-.206-1.365-.239-.324-.118-.324-.118a3.643,3.643,0,0,1,1.984.218A9.088,9.088,0,0,0,947.224,743.9Z" transform="translate(-672.575 -533.593)" fill="#b7b7b7"/>
    <ellipse id="Ellipse_12" data-name="Ellipse 12" cx="6.004" cy="1.014" rx="6.004" ry="1.014" transform="translate(262.802 216.775)" fill="#b7b7b7" opacity="0.1"/>
    <ellipse id="Ellipse_13" data-name="Ellipse 13" cx="8.819" cy="1.491" rx="8.819" ry="1.491" transform="translate(7.289 239.916)" fill="#b7b7b7" opacity="0.1"/>
    <path id="Path_96" data-name="Path 96" d="M68.1,819.432s5.029-.153,6.547-1.232,7.737-2.358,8.115-.64,7.561,8.613,1.881,8.66-13.2-.884-14.711-1.807S68.1,819.432,68.1,819.432Z" transform="translate(-57.913 -584.954)" fill="#a8a8a8"/>
    <path id="Path_97" data-name="Path 97" d="M84.728,832.09c-5.68.047-13.2-.884-14.711-1.807-1.15-.7-1.609-3.222-1.769-4.383H68.08s.318,4.059,1.83,4.981,9.052,1.857,14.717,1.827c1.639-.015,2.2-.589,2.175-1.474C86.573,831.754,85.948,832.081,84.728,832.09Z" transform="translate(-57.899 -591.428)" opacity="0.2"/>
    <rect id="Rectangle_29" data-name="Rectangle 29" width="50.306" height="90.025" transform="matrix(0.309, -0.951, 0.951, 0.309, 232.772, 47.843)" fill="url(#linear-gradient-7)"/>
    <rect id="Rectangle_30" data-name="Rectangle 30" width="49.613" height="88.781" transform="matrix(0.309, -0.951, 0.951, 0.309, 233.47, 47.708)" fill="#f6f7f9"/>
    <g id="Group_7" data-name="Group 7" transform="translate(248.651 17.395)" opacity="0.2">
      <circle id="Ellipse_14" data-name="Ellipse 14" cx="9.244" cy="9.244" r="9.244" fill="#b7b7b7"/>
    </g>
    <g id="Group_8" data-name="Group 8" transform="translate(280.01 22.567)" opacity="0.2">
      <rect id="Rectangle_31" data-name="Rectangle 31" width="2.532" height="40.273" transform="matrix(0.309, -0.951, 0.951, 0.309, 0, 2.408)" fill="#b7b7b7"/>
    </g>
    <g id="Group_9" data-name="Group 9" transform="translate(278.014 28.707)" opacity="0.2">
      <rect id="Rectangle_32" data-name="Rectangle 32" width="2.532" height="20.515" transform="matrix(0.309, -0.951, 0.951, 0.309, 0, 2.408)" fill="#b7b7b7"/>
    </g>
    <g id="Group_10" data-name="Group 10" transform="translate(276.014 34.849)" opacity="0.2">
      <rect id="Rectangle_33" data-name="Rectangle 33" width="2.532" height="33.181" transform="matrix(0.309, -0.951, 0.951, 0.309, 0, 2.408)" fill="#b7b7b7"/>
    </g>
    <g id="Group_11" data-name="Group 11" transform="translate(274.019 40.99)" opacity="0.2">
      <rect id="Rectangle_34" data-name="Rectangle 34" width="2.532" height="40.273" transform="matrix(0.309, -0.951, 0.951, 0.309, 0, 2.408)" fill="#b7b7b7"/>
    </g>
    <g id="Group_12" data-name="Group 12" transform="translate(298.107 58.863)" opacity="0.5">
      <rect id="Rectangle_35" data-name="Rectangle 35" width="4.896" height="11.145" transform="matrix(0.309, -0.951, 0.951, 0.309, 0, 4.656)" fill="#b7b7b7"/>
    </g>
    <path id="Path_98" data-name="Path 98" d="M822.251,452.725a2.7,2.7,0,0,0-.029-.295,1.5,1.5,0,0,0-.05-.295c-.038-.2-.08-.4-.127-.59-.024-.091-.047-.186-.074-.274a7.475,7.475,0,0,0-1.474-2.85c-.038-.047-.08-.091-.118-.136s-.159-.171-.239-.251-.153-.15-.23-.218-.147-.13-.218-.189c-.141-.115-.274-.212-.389-.295a2.414,2.414,0,0,0-.239-.153,1.309,1.309,0,0,0-.554-.18l-1.223-.121h0l-1.671-.165-5.975-2.32-.236.083a13.545,13.545,0,0,1-.442-1.474,1.321,1.321,0,0,0,.472-.345,1.076,1.076,0,0,0,.324-.416c.15-.348-.139-1.088-.08-1.512a7.133,7.133,0,0,1,.737-1.954,9.066,9.066,0,0,0,.987-4.212,4.751,4.751,0,0,0-1.963-3.738c-.634-.421-1.379-.646-2.04-1.029-.513-.295-.964-.69-1.453-1.026a8.354,8.354,0,0,0-8.23-.59,40.147,40.147,0,0,0-3.469,2.258,5.856,5.856,0,0,1-3.92,1.079.968.968,0,0,0-.041.171l-.115-.015c-.236.643.342,1.279.884,1.718a5.97,5.97,0,0,0,3.475,1.695,3.65,3.65,0,0,1,1.512.112,1.388,1.388,0,0,1,.295.177,6.567,6.567,0,0,0,2.063,6.547l-3.051-1.1s-.127.065-.324.189l-4.233-2.818s-8.486-3.077-10.844,1.716,10.219,2.32,10.219,2.32l2.691,1.474a2.45,2.45,0,0,0,.295,1.615l7.336,4.533a38.755,38.755,0,0,1-4.351,1.179c-.628,0-2.358.619-3.457,3.092s-5.031,14.537-8.489,16.548-12.574,15.466-12.574,15.466l.041.106c-.162.044-.321.088-.478.141a9.662,9.662,0,0,0-4.737,3.572,1.515,1.515,0,0,0,1.061,2.391,6.618,6.618,0,0,0,6.511-2.455c.062-.08.118-.159.171-.239a1.259,1.259,0,0,0,.884.041l4.4-3.558s-3.443,3.39-1.424,6.485l-.153.215a49.2,49.2,0,0,0-7.369,16.041s-1.886,1.391-2.043,6.959a106.546,106.546,0,0,1-2.046,14.537s-1.256,10.673-.472,13.918c0,0,.091.13.259.327-.059.071-.124.147-.195.224a3.817,3.817,0,0,1-3.366,1.474c-2.2-.466-2.2,3.4.943,3.711a83.746,83.746,0,0,1,8.583,1.721,1.807,1.807,0,0,0,2.24-1.928,16.329,16.329,0,0,0-.943-4.256c-.032-.074-.065-.147-.1-.215.091-.088.186-.177.277-.271,0,0,0-6.806,1.1-8.66,0,0,2.986-14.075,2.827-17.632-.121-2.782,7.749-13.621,11.174-18.2l-.029-.174c.884-1.179,1.432-1.886,1.432-1.886l2.65,16.86a24.117,24.117,0,0,0,2.83,5.721s6.759,12.837,7.546,16.857a12.681,12.681,0,0,0,2.382,5.547l-.2.195a3.441,3.441,0,0,1-2.965,1.064c-2.2-.466-2.2,3.4.943,3.711a84.438,84.438,0,0,1,8.58,1.724,1.81,1.81,0,0,0,2.243-1.931,13.945,13.945,0,0,0-1.208-4.793,3.329,3.329,0,0,0-.18-.295,1.658,1.658,0,0,0,.625-.439s-4.088-9.745-4.088-12.38c0,0-1.727-10.051-7.543-13.762,0,0,.548-12.574,2.2-19.572.041-.171.083-.342.124-.507a46.629,46.629,0,0,0,4.586-.955l.156-4.639.787,3.711,8.8-5.412s-.077-.976-.224-2.47c-.077-.749-.168-1.627-.277-2.579-.088-.76-.189-1.568-.295-2.393-.029-.206-.056-.416-.085-.622-.115-.834-.242-1.677-.377-2.5q-.08-.466-.159-.92c-.074-.4-.147-.8-.224-1.179-.038-.192-.08-.383-.118-.569s-.083-.371-.124-.551-.083-.354-.124-.528c-.024-.085-.044-.171-.065-.253-.044-.168-.088-.333-.133-.492a8.845,8.845,0,0,1-.318-2.028c0-.271,0-.545,0-.817a5.854,5.854,0,0,1,.08-.814c.018-.133.041-.268.068-.4a8.993,8.993,0,0,1,.445-1.58c.1-.256.209-.51.33-.76.295-.59.59-1.217.9-1.886.159-.333.318-.675.478-1.023s.321-.7.483-1.061a46.546,46.546,0,0,0,3.443-9.706c.041-.262.074-.51.088-.743A4.747,4.747,0,0,0,822.251,452.725Z" transform="translate(-546.662 -310.368)" fill="url(#linear-gradient-8)"/>
    <path id="Path_99" data-name="Path 99" d="M841.181,471.3l-5.185-3.5s-8.233-3.051-10.52,1.677,9.91,2.287,9.91,2.287l5.185,2.895Z" transform="translate(-591.846 -338.193)" fill="#ae6e79"/>
    <rect id="Rectangle_36" data-name="Rectangle 36" width="49.591" height="77.201" transform="matrix(0.541, -0.841, 0.841, 0.541, 193.084, 162.184)" fill="#f9fafb"/>
    <rect id="Rectangle_37" data-name="Rectangle 37" width="14.03" height="3.301" transform="matrix(0.536, -0.844, 0.844, 0.536, 202.707, 159.273)" fill="#b7b6cc"/>
    <rect id="Rectangle_38" data-name="Rectangle 38" width="30.814" height="3.027" transform="matrix(0.536, -0.844, 0.844, 0.536, 211.614, 161.672)" fill="#b7b6cc"/>
    <rect id="Rectangle_39" data-name="Rectangle 39" width="30.814" height="3.027" transform="matrix(0.536, -0.844, 0.844, 0.536, 217.072, 165.137)" fill="#b7b6cc"/>
    <rect id="Rectangle_40" data-name="Rectangle 40" width="30.814" height="3.027" transform="matrix(0.536, -0.844, 0.844, 0.536, 222.529, 168.607)" fill="#b7b6cc"/>
    <rect id="Rectangle_41" data-name="Rectangle 41" width="30.771" height="3.023" transform="matrix(0.541, -0.841, 0.841, 0.541, 228.175, 173.636)" fill="#b7b6cc"/>
    <rect id="Rectangle_42" data-name="Rectangle 42" width="30.814" height="3.027" transform="matrix(0.536, -0.844, 0.844, 0.536, 233.443, 175.541)" fill="#fff"/>
    <rect id="Rectangle_43" data-name="Rectangle 43" width="30.814" height="3.027" transform="matrix(0.536, -0.844, 0.844, 0.536, 238.901, 179.006)" fill="#fff"/>
    <rect id="Rectangle_44" data-name="Rectangle 44" width="7.979" height="7.979" transform="matrix(0.536, -0.844, 0.844, 0.536, 261.816, 164.231)" fill="#b7b6cc"/>
    <path id="Path_100" data-name="Path 100" d="M905.77,825.581a80.928,80.928,0,0,0-8.324-1.7c-3.051-.295-3.051-4.127-.914-3.661a3.3,3.3,0,0,0,2.874-1.046,6.73,6.73,0,0,0,.59-.646,1.769,1.769,0,0,1,.987-.6c1.144-.248,3.537-.625,4.984.162a2.154,2.154,0,0,1,.79.867,14.153,14.153,0,0,1,1.179,4.716,1.769,1.769,0,0,1-2.167,1.91Z" transform="translate(-641.099 -585.585)" fill="#bebed0"/>
    <path id="Path_101" data-name="Path 101" d="M774.906,830.781a80.744,80.744,0,0,0-8.321-1.7c-3.051-.295-3.051-4.127-.917-3.658a3.658,3.658,0,0,0,3.263-1.441c.083-.088.156-.174.218-.253a1.769,1.769,0,0,1,.985-.589c1.144-.251,3.537-.628,4.987.162a2.7,2.7,0,0,1,1.046,1.394,16.505,16.505,0,0,1,.914,4.194,1.768,1.768,0,0,1-2.175,1.889Z" transform="translate(-548.81 -589.261)" fill="#bebed0"/>
    <path id="Path_102" data-name="Path 102" d="M787.566,824.685c-3.64,3.752-6.762-.071-7.236-.7.083-.088.156-.174.218-.253a1.769,1.769,0,0,1,.985-.589c1.144-.251,3.537-.628,4.987.162A2.545,2.545,0,0,1,787.566,824.685Z" transform="translate(-560.208 -589.261)" opacity="0.1"/>
    <path id="Path_103" data-name="Path 103" d="M917.246,818.955c-1.577,1.076-6.885.811-6.885.811a4.983,4.983,0,0,1-.48-.589,6.723,6.723,0,0,0,.59-.646,1.769,1.769,0,0,1,.987-.6c1.144-.248,3.537-.625,4.984.162A2.154,2.154,0,0,1,917.246,818.955Z" transform="translate(-651.573 -585.585)" opacity="0.1"/>
    <path id="Path_104" data-name="Path 104" d="M825.42,697.225c-1.07,1.374-7.166,1.067-7.166,1.067a11.684,11.684,0,0,1-2.594-5.792c-.763-3.961-7.319-16.618-7.319-16.618a23.972,23.972,0,0,1-2.744-5.642l-2.591-16.618s-12.5,16.465-12.347,19.973-2.747,17.391-2.747,17.391c-1.067,1.83-1.067,8.548-1.067,8.548-3.962,4.127-7.316-.763-7.316-.763-.763-3.2.457-13.721.457-13.721a106.657,106.657,0,0,0,1.981-14.331c.15-5.488,1.984-6.859,1.984-6.859a48.891,48.891,0,0,1,7.16-15.817c.92-1.318,1.53-2.022,1.53-2.022l24.7,2.9a15.553,15.553,0,0,0-1.061,3.272c-1.606,6.9-2.14,19.292-2.14,19.292,5.642,3.658,7.319,13.559,7.319,13.559C821.455,687.619,825.42,697.225,825.42,697.225Z" transform="translate(-559.466 -464.569)" fill="#5c5c8e"/>
    <g id="Group_13" data-name="Group 13" transform="translate(223.317 181.445)" opacity="0.05">
      <path id="Path_105" data-name="Path 105" d="M810.034,673.841l-.318-2.031s-12.5,16.465-12.347,19.973-2.744,17.391-2.744,17.391c-1.07,1.83-1.07,8.548-1.07,8.548a5.212,5.212,0,0,1-2.385,1.53c1.2.315,2.653.083,4.215-1.53,0,0,0-6.709,1.067-8.548,0,0,2.9-13.874,2.744-17.391C799.078,689.039,806.71,678.351,810.034,673.841Z" transform="translate(-791.17 -664.202)"/>
      <path id="Path_106" data-name="Path 106" d="M853.548,685.014s-1.677-9.91-7.316-13.559c0,0,.533-12.395,2.137-19.292a15.533,15.533,0,0,1,1.064-3.272L824.735,646s-.059.065-.165.195l23.032,2.7a15.551,15.551,0,0,0-1.061,3.272c-1.606,6.9-2.14,19.292-2.14,19.292,5.642,3.658,7.319,13.559,7.319,13.559,0,2.591,3.964,12.2,3.964,12.2-.631.808-3.007,1.035-4.855,1.085,1.474.038,5.8.053,6.682-1.085C857.512,697.211,853.548,687.6,853.548,685.014Z" transform="translate(-814.725 -646)"/>
    </g>
    <path id="Path_107" data-name="Path 107" d="M789.122,632.469a5.571,5.571,0,0,1-.722,1.262,6.373,6.373,0,0,1-6.314,2.42,1.5,1.5,0,0,1-1.032-2.358,9.394,9.394,0,0,1,4.6-3.537,8.386,8.386,0,0,1,1.948-.4Z" transform="translate(-560.524 -453.172)" fill="#ae6e79"/>
    <path id="Path_108" data-name="Path 108" d="M883.207,483.351l-12.226-4.471s-3.508,1.83-2.134,4.421l11.905,7.472Z" transform="translate(-622.409 -346.695)" fill="#42383c"/>
    <path id="Path_109" data-name="Path 109" d="M883.36,483.521l-12.229-4.471s-3.508,1.827-2.134,4.421l11.891,7.469Z" transform="translate(-622.515 -346.815)" opacity="0.1"/>
    <path id="Path_110" data-name="Path 110" d="M904.084,468.33s-.153,7.166,3.051,9.606-9.3,3.811-9.3,3.811,1.984-7.319,0-11.13S904.084,468.33,904.084,468.33Z" transform="translate(-642.859 -339.042)" fill="#ae6e79"/>
    <path id="Path_111" data-name="Path 111" d="M845.647,648.847a15.553,15.553,0,0,0-1.061,3.272c-14.738,2.252-25.01-3.882-25.01-3.882-.056-.088-.109-.177-.156-.265.92-1.318,1.53-2.022,1.53-2.022Z" transform="translate(-587.776 -464.52)" opacity="0.1"/>
    <path id="Path_112" data-name="Path 112" d="M800.782,632.5a5.569,5.569,0,0,1-.722,1.262c-1.412-.236-2.541-2.948-2.75-3.46a8.387,8.387,0,0,1,1.948-.395Z" transform="translate(-572.183 -453.208)" opacity="0.1"/>
    <path id="Path_113" data-name="Path 113" d="M835.645,490.78l-5.488,1.981-2.287,3.051s-4.716,1.524-5.335,1.524-2.287.61-3.354,3.048S814.3,514.72,810.947,516.7s-12.2,15.245-12.2,15.245,1.524,4.127,3.354,3.508l4.268-3.508s-3.354,3.354-1.374,6.405c0,0,12.5,7.469,29.732,2.895l.15-4.572.763,3.658,8.548-5.335s-.763-9.842-2.14-14.85a9.055,9.055,0,0,1,.589-6.311c2.214-4.613,5.63-12.318,5.214-15.127a7.017,7.017,0,0,0-3.077-5.182,1.273,1.273,0,0,0-.536-.18l-2.791-.277Z" transform="translate(-573.199 -355.087)" fill="#42383c"/>
    <path id="Path_114" data-name="Path 114" d="M846.509,542.76s-3.051,14.178-6.405,16.465-12.347,9.606-12.654,10.826" transform="translate(-593.44 -391.746)" opacity="0.05"/>
    <path id="Path_115" data-name="Path 115" d="M841.856,541.21s-3.048,14.178-6.4,16.465S823.1,567.281,822.8,568.5" transform="translate(-590.16 -390.652)" fill="#42383c"/>
    <path id="Path_116" data-name="Path 116" d="M897.28,501.02s10.52-3.508,13.559-2.594" transform="translate(-642.687 -360.373)" opacity="0.1"/>
    <g id="Group_14" data-name="Group 14" transform="translate(261.93 135.693)" opacity="0.05">
      <path id="Path_117" data-name="Path 117" d="M930.48,519.7c2.214-4.613,5.63-12.318,5.214-15.127a7.017,7.017,0,0,0-3.077-5.182,1.272,1.272,0,0,0-.536-.18l-1.179-.118a1.181,1.181,0,0,1,.354.144,7.034,7.034,0,0,1,3.074,5.185c.416,2.806-3,10.514-5.211,15.127a9.049,9.049,0,0,0-.59,6.308c1.38,5.011,2.143,14.85,2.143,14.85l-7.351,4.6.186.884,8.548-5.335s-.763-9.842-2.14-14.85A9.055,9.055,0,0,1,930.48,519.7Z" transform="translate(-922.981 -496.641)"/>
      <path id="Path_118" data-name="Path 118" d="M893.567,462.484l1.321.133-5.742-2.267-.516.186Z" transform="translate(-888.63 -460.35)"/>
    </g>
    <path id="Path_119" data-name="Path 119" d="M887.45,586.274s4.716-2.591,6.252-1.981,7.166-.153,7.166-.153" transform="translate(-635.754 -420.929)" opacity="0.05"/>
    <path id="Path_120" data-name="Path 120" d="M903.582,471.7c-.174-1.53.534-1.3.534-1.3s-8.233-1.524-6.252,2.287a8.732,8.732,0,0,1,.837,3.351h.08C901.068,476.042,902.4,473.483,903.582,471.7Z" transform="translate(-642.881 -340.502)" opacity="0.05"/>
    <circle id="Ellipse_15" data-name="Ellipse 15" cx="6.555" cy="6.555" r="6.555" transform="translate(249.335 121.819)" fill="#ae6e79"/>
    <path id="Path_121" data-name="Path 121" d="M879.257,445.612a9.139,9.139,0,0,0,.958-4.153,4.709,4.709,0,0,0-1.9-3.687c-.613-.413-1.338-.634-1.978-1.011-.5-.295-.937-.681-1.412-1.011a7.991,7.991,0,0,0-7.982-.59,36.684,36.684,0,0,0-3.363,2.228,5.635,5.635,0,0,1-3.8,1.064c-.23.634.333,1.259.849,1.695a5.738,5.738,0,0,0,3.372,1.668,3.529,3.529,0,0,1,1.474.112,2.113,2.113,0,0,1,.749.7,13.73,13.73,0,0,1,1.556,2.638,2.186,2.186,0,0,0,.7,1.026c.59.377,1.353.062,2.063.035a4.246,4.246,0,0,1,2.865,1.371,8.748,8.748,0,0,0,2.582,1.954c.758.295,2.273.277,2.653-.628.144-.342-.136-1.073-.077-1.491a7.215,7.215,0,0,1,.7-1.916Z" transform="translate(-616.198 -315.298)" opacity="0.1"/>
    <path id="Path_122" data-name="Path 122" d="M879.723,445.082a9.1,9.1,0,0,0,.958-4.15,4.715,4.715,0,0,0-1.9-3.687c-.616-.416-1.341-.637-1.978-1.014-.5-.295-.937-.678-1.412-1.011a7.991,7.991,0,0,0-7.982-.59,36.658,36.658,0,0,0-3.363,2.225,5.619,5.619,0,0,1-3.8,1.064c-.23.637.33,1.262.849,1.695a5.759,5.759,0,0,0,3.372,1.671,3.481,3.481,0,0,1,1.474.112,2.064,2.064,0,0,1,.749.7,13.559,13.559,0,0,1,1.553,2.635,2.193,2.193,0,0,0,.7,1.026c.59.377,1.353.062,2.063.035a4.249,4.249,0,0,1,2.862,1.374,8.675,8.675,0,0,0,2.585,1.951c.757.295,2.273.277,2.653-.628.147-.342-.133-1.073-.074-1.491a7.21,7.21,0,0,1,.7-1.913Z" transform="translate(-616.529 -314.924)" fill="#42383c"/>
    <path id="Path_123" data-name="Path 123" d="M443.472,536.076a3.039,3.039,0,0,1-1.951.69l-131.689-.56a4.053,4.053,0,0,1-.9-3.086l13.011-106.457,8.159-.088a3.083,3.083,0,0,1,3.007,2.276l1.524,5.624a3.083,3.083,0,0,0,3.048,2.276l32.562-.781a3.083,3.083,0,0,0,3.009-3.083v-3.726a3.083,3.083,0,0,1,3.048-3.083l45.121-.486a3.083,3.083,0,0,1,3.057,2.5l19.955,104.344.13.672A3.065,3.065,0,0,1,443.472,536.076Z" transform="translate(-227.733 -309.112)" opacity="0.1"/>
    <path id="Path_124" data-name="Path 124" d="M355.761,430.6l-45.121.486a3.083,3.083,0,0,0-3.051,3.08v3.729a3.083,3.083,0,0,1-3.007,3.08l-32.559.781a3.08,3.08,0,0,1-3.051-2.276l-1.53-5.621a3.08,3.08,0,0,0-3.009-2.276l-43.491.469a3.08,3.08,0,0,0-3.007,3.6l17.5,102.976a3.083,3.083,0,0,0,3.027,2.567l137.4.59a3.083,3.083,0,0,0,3.039-3.661L358.818,433.1A3.08,3.08,0,0,0,355.761,430.6Z" transform="translate(-163.553 -312.645)" fill="#e6e8ee"/>
    <path id="Path_125" data-name="Path 125" d="M868.405,165.1l-.236,2.623.171,4.639-.5,7.826s-.071,3.428-2.007,5.034l-4.943,7.59-.03.015-1.86.908-2.839.295-1.474-3.57.976-3.92.542-.731.15-.165c.59-.648,2.865-3,4.672-3.738a2.557,2.557,0,0,0,.993-2.27c-.212-1.385,1.627-8.748,1.627-8.748s1.179-4.869.923-5.344-.047-11.254,4.02-11.419S868.405,165.1,868.405,165.1Z" transform="translate(-612.65 -117.663)" fill="#f6bac2"/>
    <ellipse id="Ellipse_16" data-name="Ellipse 16" cx="4.778" cy="0.657" rx="4.778" ry="0.657" transform="translate(39.857 205.934)" fill="#b7b7b7" opacity="0.1"/>
    <ellipse id="Ellipse_17" data-name="Ellipse 17" cx="4.778" cy="0.657" rx="4.778" ry="0.657" transform="translate(21.556 207.788)" fill="#b7b7b7" opacity="0.1"/>
    <ellipse id="Ellipse_18" data-name="Ellipse 18" cx="4.778" cy="0.657" rx="4.778" ry="0.657" transform="translate(0 205.276)" fill="#b7b7b7" opacity="0.1"/>
    <ellipse id="Ellipse_19" data-name="Ellipse 19" cx="3.396" cy="0.466" rx="3.396" ry="0.466" transform="translate(30.263 213.264)" fill="#b7b7b7" opacity="0.1"/>
    <ellipse id="Ellipse_20" data-name="Ellipse 20" cx="3.396" cy="0.466" rx="3.396" ry="0.466" transform="translate(11.269 212.798)" fill="#b7b7b7" opacity="0.1"/>
    <path id="Path_126" data-name="Path 126" d="M73.852,650.31s6.7-21.965-1.049-30.764c-5.8-6.582-12.38-5.795-15.327-4.981a5.45,5.45,0,0,0-3.514,2.921c-1.032,2.222-.846,5.83,6.429,10.042,12.176,7.051,12.934,16.722,12.934,16.722Z" transform="translate(-47.622 -442.01)" fill="#b7b7b7"/>
    <path id="Path_127" data-name="Path 127" d="M70.54,626.41s19.749,6.19,15.327,32.63" transform="translate(-59.634 -450.739)" fill="none" stroke="#565987" stroke-miterlimit="10" stroke-width="1"/>
    <path id="Path_128" data-name="Path 128" d="M104.836,633.92s-2.721,1.833-1.854,4.589" transform="translate(-82.394 -456.036)" fill="none" stroke="#565987" stroke-miterlimit="10" stroke-width="1"/>
    <path id="Path_129" data-name="Path 129" d="M77.26,636.974a3.429,3.429,0,0,1,3.687-.758" transform="translate(-64.373 -457.457)" fill="none" stroke="#565987" stroke-miterlimit="10" stroke-width="1"/>
    <path id="Path_130" data-name="Path 130" d="M103.75,666.988s2.921-1.474,3.676.374" transform="translate(-83.055 -478.964)" fill="none" stroke="#565987" stroke-miterlimit="10" stroke-width="1"/>
    <path id="Path_131" data-name="Path 131" d="M122.921,678.764s-2.193-.174-2.231.884" transform="translate(-95.002 -487.654)" fill="none" stroke="#565987" stroke-miterlimit="10" stroke-width="1"/>
    <path id="Path_132" data-name="Path 132" d="M95.119,700.309s-7.849-15.964-10-15.622c-1.023.168-1.494,1.179-1.71,2.187a6.423,6.423,0,0,0,.427,3.885A17.2,17.2,0,0,0,95.119,700.309Z" transform="translate(-68.617 -491.835)" fill="#b7b7b7"/>
    <path id="Path_133" data-name="Path 133" d="M89.71,695s8.236,11.944,9.827,12.468" transform="translate(-73.153 -499.112)" fill="none" stroke="#565987" stroke-miterlimit="10" stroke-width="1"/>
    <line id="Line_1" data-name="Line 1" x2="1.922" transform="translate(15.799 197.754)" fill="none" stroke="#565987" stroke-miterlimit="10" stroke-width="1"/>
    <line id="Line_2" data-name="Line 2" x2="3.015" y2="0.13" transform="translate(18.101 202.122)" fill="none" stroke="#565987" stroke-miterlimit="10" stroke-width="1"/>
    <line id="Line_3" data-name="Line 3" x1="0.327" y2="1.571" transform="translate(19.61 198.626)" fill="none" stroke="#565987" stroke-miterlimit="10" stroke-width="1"/>
    <line id="Line_4" data-name="Line 4" x1="0.059" y2="1.427" transform="translate(23.082 203.405)" fill="none" stroke="#565987" stroke-miterlimit="10" stroke-width="1"/>
    <path id="Path_134" data-name="Path 134" d="M122.66,700.309s7.846-15.964,10-15.622c1.026.168,1.5,1.179,1.71,2.187a6.423,6.423,0,0,1-.427,3.885A17.21,17.21,0,0,1,122.66,700.309Z" transform="translate(-96.391 -491.835)" fill="#b7b7b7"/>
    <path id="Path_135" data-name="Path 135" d="M132.88,695s-8.253,11.944-9.83,12.468" transform="translate(-96.666 -499.112)" fill="none" stroke="#565987" stroke-miterlimit="10" stroke-width="1"/>
    <line id="Line_5" data-name="Line 5" x1="1.922" transform="translate(35.05 197.754)" fill="none" stroke="#565987" stroke-miterlimit="10" stroke-width="1"/>
    <line id="Line_6" data-name="Line 6" x1="3.015" y2="0.13" transform="translate(31.654 202.122)" fill="none" stroke="#565987" stroke-miterlimit="10" stroke-width="1"/>
    <line id="Line_7" data-name="Line 7" x2="0.327" y2="1.571" transform="translate(32.833 198.626)" fill="none" stroke="#565987" stroke-miterlimit="10" stroke-width="1"/>
    <line id="Line_8" data-name="Line 8" x2="0.059" y2="1.427" transform="translate(29.629 203.405)" fill="none" stroke="#565987" stroke-miterlimit="10" stroke-width="1"/>
    <path id="Path_136" data-name="Path 136" d="M75.825,745.161a1.356,1.356,0,0,1-.445-.675.589.589,0,0,1,.312-.687.866.866,0,0,1,.825.295,1.055,1.055,0,0,0,.8.374,1.22,1.22,0,0,1-.377-1.144.466.466,0,0,1,.1-.233c.159-.171.448-.1.64.038a2.42,2.42,0,0,1,.778,1.99,3.8,3.8,0,0,0,0-.819.84.84,0,0,1,.33-.716.92.92,0,0,1,.469-.112.973.973,0,0,1,.763.218.757.757,0,0,1-.029.934,3.007,3.007,0,0,1-.79.631,1.769,1.769,0,0,0-.563.539.394.394,0,0,0-.041.094H76.883A4.758,4.758,0,0,1,75.825,745.161Z" transform="translate(-63.032 -532.958)" fill="#b7b7b7"/>
    <path id="Path_137" data-name="Path 137" d="M177.274,723.383a1.335,1.335,0,0,1-.445-.672.59.59,0,0,1,.309-.687.866.866,0,0,1,.825.295,1.087,1.087,0,0,0,.8.386,1.22,1.22,0,0,1-.38-1.141.469.469,0,0,1,.106-.233c.159-.171.448-.1.64.035a2.385,2.385,0,0,1,.778,1.993,3.833,3.833,0,0,0,0-.822.843.843,0,0,1,.295-.725.94.94,0,0,1,.469-.109.984.984,0,0,1,.763.215.757.757,0,0,1-.032.937,2.946,2.946,0,0,1-.787.631,1.751,1.751,0,0,0-.563.536.483.483,0,0,0-.041.1h-1.677a4.717,4.717,0,0,1-1.064-.737Z" transform="translate(-134.578 -517.612)" fill="#b7b7b7"/>
    <path id="Path_138" data-name="Path 138" d="M143.458,745.2a1.382,1.382,0,0,1-.448-.675.589.589,0,0,1,.312-.687.866.866,0,0,1,.825.295,1.1,1.1,0,0,0,.8.389,1.229,1.229,0,0,1-.38-1.144.469.469,0,0,1,.106-.233c.159-.171.448-.1.64.038a2.384,2.384,0,0,1,.778,1.99,3.8,3.8,0,0,0,0-.819.843.843,0,0,1,.309-.725.911.911,0,0,1,.469-.112.976.976,0,0,1,.763.218.755.755,0,0,1-.032.934,2.992,2.992,0,0,1-.787.631,1.769,1.769,0,0,0-.563.539.4.4,0,0,0-.041.094H144.5a4.808,4.808,0,0,1-1.046-.734Z" transform="translate(-110.728 -532.993)" fill="#b7b7b7"/>
    <path id="Path_139" data-name="Path 139" d="M45.248,706.25s-.64.837.295,2.1,1.707,2.331,1.394,3.119c0,0-1.412-2.358-2.561-2.379S43.983,707.65,45.248,706.25Z" transform="translate(-40.782 -507.046)" fill="#b7b7b7"/>
    <path id="Path_140" data-name="Path 140" d="M45.253,706.25a1.055,1.055,0,0,0-.13.262c-1.12,1.318-1.718,2.547-.64,2.579,1,.029,2.208,1.822,2.494,2.276a1.055,1.055,0,0,1-.032.1s-1.412-2.358-2.561-2.379S43.988,707.65,45.253,706.25Z" transform="translate(-40.787 -507.046)" opacity="0.1"/>
    <path id="Path_141" data-name="Path 141" d="M44.66,709.418c0,.295.032.534.074.534s.074-.239.074-.534-.041-.156-.083-.156S44.66,709.124,44.66,709.418Z" transform="translate(-41.382 -509.147)" fill="#ffd037"/>
    <path id="Path_142" data-name="Path 142" d="M42.891,710.587c.259.141.483.224.5.189s-.174-.177-.433-.318-.156-.038-.177,0S42.632,710.445,42.891,710.587Z" transform="translate(-40.023 -509.962)" fill="#ffd037"/>
    <path id="Path_143" data-name="Path 143" d="M55.95,706.25s.643.837-.295,2.1-1.707,2.331-1.394,3.119c0,0,1.412-2.358,2.561-2.379S57.214,707.65,55.95,706.25Z" transform="translate(-48.103 -507.046)" fill="#b7b7b7"/>
    <path id="Path_144" data-name="Path 144" d="M56.034,706.25a1.118,1.118,0,0,1,.133.262c1.12,1.318,1.718,2.547.64,2.579-1,.029-2.208,1.822-2.5,2.276a.608.608,0,0,0,.035.1s1.412-2.358,2.561-2.379S57.3,707.65,56.034,706.25Z" transform="translate(-48.188 -507.046)" opacity="0.1"/>
    <path id="Path_145" data-name="Path 145" d="M63.847,709.418c0,.295-.032.534-.074.534s-.074-.239-.074-.534.041-.156.083-.156S63.847,709.124,63.847,709.418Z" transform="translate(-54.81 -509.147)" fill="#ffd037"/>
    <path id="Path_146" data-name="Path 146" d="M64.381,710.587c-.259.141-.486.224-.5.189s.174-.177.433-.318.156-.038.174,0S64.638,710.445,64.381,710.587Z" transform="translate(-54.934 -509.962)" fill="#ffd037"/>
    <path id="Path_147" data-name="Path 147" d="M47.574,721.276a6.579,6.579,0,0,1-2.329-.439c-.539-.383-2.753-.843-2.889-.227s-2.688,3.065-.669,3.08a17.212,17.212,0,0,0,5.235-.643C47.462,722.721,47.574,721.276,47.574,721.276Z" transform="translate(-38.74 -516.961)" fill="#a8a8a8"/>
    <path id="Path_148" data-name="Path 148" d="M41.656,725.782a17.014,17.014,0,0,0,5.235-.643c.41-.248.572-1.144.628-1.559h.059s-.112,1.444-.651,1.768a17.2,17.2,0,0,1-5.235.643c-.59,0-.784-.212-.772-.519C41,725.664,41.237,725.767,41.656,725.782Z" transform="translate(-38.743 -519.268)" opacity="0.2"/>
    <circle id="Ellipse_21" data-name="Ellipse 21" cx="6.376" cy="6.376" r="6.376" transform="translate(3.628 30.975)" fill="#b7b7b7" opacity="0.1"/>
    <circle id="Ellipse_22" data-name="Ellipse 22" cx="6.376" cy="6.376" r="6.376" transform="translate(310.202 81.923)" fill="#b7b7b7" opacity="0.1"/>
    <circle id="Ellipse_23" data-name="Ellipse 23" cx="6.376" cy="6.376" r="6.376" transform="translate(195.595 10.728)" fill="#b7b7b7" opacity="0.1"/>
    <circle id="Ellipse_24" data-name="Ellipse 24" cx="10.685" cy="10.685" r="10.685" transform="translate(12.07 61.839)" fill="#b7b7b7" opacity="0.1"/>
    <path id="Path_149" data-name="Path 149" d="M462.531,608.524l-.377-.377a.4.4,0,0,1,0-.59l3.31-3.313a.4.4,0,0,1,.59,0l3.31,3.31a.41.41,0,0,1,0,.59l-.377.377a.41.41,0,0,1-.59,0l-1.957-2.063v4.9a.407.407,0,0,1-.407.41h-.545a.41.41,0,0,1-.41-.41v-4.89l-1.957,2.063a.41.41,0,0,1-.589,0Z" transform="translate(-335.727 -435.017)" fill="#f6f7f9"/>
    <path id="Path_150" data-name="Path 150" d="M456.482,592.224a6.717,6.717,0,1,1-6.717,6.718,6.718,6.718,0,0,1,6.717-6.718m0-.884a7.6,7.6,0,1,0,7.6,7.6,7.6,7.6,0,0,0-7.6-7.6Z" transform="translate(-326.456 -426.006)" fill="#f6f7f9"/>
  </g>
</svg>
