<svg xmlns="http://www.w3.org/2000/svg" width="301.961" height="270.088" viewBox="0 0 301.961 270.088">
  <g id="note" transform="translate(0 -0.01)">
    <path id="Path_1" data-name="Path 1" d="M881.557,215.048c10.79,15.743,8.4,36.137,8.4,36.137s-19.882-5.131-30.672-20.874-8.4-36.137-8.4-36.137S870.767,199.3,881.557,215.048Z" transform="translate(-598.861 -162.43)" fill="#2f2e41"/>
    <path id="Path_2" data-name="Path 2" d="M907.812,201.082c1.263,19.044,15.756,33.589,15.756,33.589s12.446-16.331,11.183-35.375S919,165.706,919,165.706,906.549,182.038,907.812,201.082Z" transform="translate(-632.88 -145.458)" fill="#ff9800"/>
    <path id="Path_3" data-name="Path 3" d="M581.938,115.982l146.5,73.653a6.927,6.927,0,0,1,3.8,6.656l-8.511,126.075a3.432,3.432,0,0,1-4.973,2.832L568.913,248.729l7.692-129.673a3.684,3.684,0,0,1,5.333-3.074Z" transform="translate(-430.89 -115.58)" fill="#d0cde1"/>
    <path id="Path_4" data-name="Path 4" d="M586.585,122.359l142.9,71.844a6.757,6.757,0,0,1,3.707,6.492l-8.3,122.978a3.348,3.348,0,0,1-4.851,2.762L573.88,251.845l7.5-126.488a3.594,3.594,0,0,1,5.2-3Z" transform="translate(-433.851 -119.387)" fill="#3f3d56"/>
    <path id="Path_5" data-name="Path 5" d="M603.848,146.041l129.533,65.124a6.125,6.125,0,0,1,3.36,5.885l-7.526,111.476a3.035,3.035,0,0,1-4.4,2.5L592.331,263.417l6.8-114.658a3.258,3.258,0,0,1,4.715-2.718Z" transform="translate(-444.851 -133.527)" fill="#fff"/>
    <path id="Path_6" data-name="Path 6" d="M286.557,505.716l146.684,73.872a9.767,9.767,0,0,0,8.8-.011l108.512-55.084c1.272-1.272,1.095-3.158.688-4.574a10.2,10.2,0,0,0-.8-1.977l-14.787-7.777L411.324,448.133l-7.428-3.943a13.754,13.754,0,0,0-12.775-.052L286.511,498.477a4.061,4.061,0,0,0,.046,7.239Z" transform="translate(-261.219 -310.53)" fill="#d0cde1"/>
    <path id="Path_7" data-name="Path 7" d="M286.554,592.59l146.684,73.872a9.767,9.767,0,0,0,8.8-.011l108.512-55.084c1.272-1.272,1.095-3.158.688-4.574L443.047,663.026a9.438,9.438,0,0,1-8.561.073L284.365,588.308A4.045,4.045,0,0,0,286.554,592.59Z" transform="translate(-261.216 -397.404)" opacity="0.1"/>
    <path id="Path_8" data-name="Path 8" d="M513.2,617.222l-47.5-24.005a6.675,6.675,0,0,0-6.156.07l-27.557,14.722a1.971,1.971,0,0,0,.041,3.5l48.435,24.424a5.486,5.486,0,0,0,5.163-.119l27.667-15.587a1.7,1.7,0,0,0-.09-3Z" transform="translate(-348.632 -399.903)" opacity="0.1"/>
    <path id="Path_9" data-name="Path 9" d="M615.35,532.307l-51.118,27.157a4.158,4.158,0,0,1-3.827.039L415.974,486.462a2.456,2.456,0,0,1,.019-4.393l49.918-24.707a5.413,5.413,0,0,1,4.837.017l144.58,72.846a1.172,1.172,0,0,1,.023,2.081Z" transform="translate(-338.907 -319.002)" opacity="0.1"/>
    <rect id="Rectangle_2" data-name="Rectangle 2" width="0.573" height="52.545" transform="matrix(0.447, -0.894, 0.894, 0.447, 194.635, 78.383)" fill="#ff9800"/>
    <rect id="Rectangle_3" data-name="Rectangle 3" width="0.573" height="52.803" transform="translate(194.626 85.271) rotate(-62.909)" fill="#ff9800"/>
    <rect id="Rectangle_4" data-name="Rectangle 4" width="0.573" height="30.246" transform="matrix(0.455, -0.89, 0.89, 0.455, 203.233, 98.439)" fill="#ff9800"/>
    <path id="Path_10" data-name="Path 10" d="M340.417,425.97s-11.461-4.994-16.844.281S337.986,429.79,340.417,425.97Z" transform="translate(-284.073 -299.347)" fill="#3f3d56"/>
    <path id="Path_11" data-name="Path 11" d="M314.366,360.386c3.851-6.508,11.471-6.811,11.471-6.811s7.425-.949,12.188,8.962c4.44,9.238,10.567,18.158.986,20.32l-1.73-5.386-1.072,5.787a37.48,37.48,0,0,1-4.1.07c-10.26-.331-20.031.1-19.716-3.585C312.813,374.849,310.66,366.648,314.366,360.386Z" transform="translate(-277.811 -257.446)" fill="#2f2e41"/>
    <path id="Path_12" data-name="Path 12" d="M291.992,662.62s4.862,9.03,7.988,9.03,2.778,5.9,2.084,7.293-2.431,4.515.347,9.03a5.54,5.54,0,0,1,.16,5.026,4.4,4.4,0,0,1-8.5-1.735q0-.082.009-.166c.347-5.557-2.431-14.239-5.209-16.323s-5.209-7.64-5.209-7.64Z" transform="translate(-260.826 -441.707)" fill="#ffb8b8"/>
    <path id="Path_13" data-name="Path 13" d="M370.468,657.46s-4.862,9.03-7.988,9.03-2.778,5.9-2.084,7.293,2.431,4.515-.347,9.03a5.54,5.54,0,0,0-.16,5.026,4.4,4.4,0,0,0,8.5-1.735q0-.082-.009-.166c-.347-5.557,2.431-14.239,5.209-16.323s5.209-7.64,5.209-7.64Z" transform="translate(-305.963 -438.631)" fill="#ffb8b8"/>
    <path id="Path_14" data-name="Path 14" d="M287.806,541.738l2.084,4.515s30.562,10.071,27.783,21.879-16.323,30.214-18.406,29.52-13.2-2.778-13.544-8.682,7.988-16.323,7.988-16.323L282.25,562.229l-16.677-.347-14.232,10.766s14.934,13.2,8.335,18.406-16.323,8.682-17.712,6.6-17.017-32.993-14.586-35.771,27.089-13.2,27.089-13.2l6.6-9.377,25.7-1.389Z" transform="translate(-227.121 -367.363)" fill="#2f2e41"/>
    <path id="Path_15" data-name="Path 15" d="M339.871,401.6s-1.736,11.461,1.736,12.85-6.946,7.293-6.946,7.293h-5.9l-3.82-7.988s3.473-6.251,1.389-12.155S339.871,401.6,339.871,401.6Z" transform="translate(-285.437 -284.53)" fill="#ffb8b8"/>
    <path id="Path_16" data-name="Path 16" d="M339.871,401.6s-1.736,11.461,1.736,12.85-6.946,7.293-6.946,7.293h-5.9l-3.82-7.988s3.473-6.251,1.389-12.155S339.871,401.6,339.871,401.6Z" transform="translate(-285.437 -284.53)" opacity="0.1"/>
    <path id="Path_17" data-name="Path 17" d="M335.124,429.557s-3.82,4.167-4.515,4.862-3.82,4.515-10.419-1.042-7.293,1.042-7.293,1.042v41.675s5.557-2.431,10.071,0,13.892-.695,13.892-.695l1.736-43.064Z" transform="translate(-278.259 -302.76)" fill="#d0cde1"/>
    <path id="Path_18" data-name="Path 18" d="M355.037,428.645s3.246-1.389,6.024,0,12.5,8.335,11.808,11.461-9.724,25.005-3.473,35.424,7.293,13.2,7.293,13.2l-15.281-7.988s-11.808-7.293-10.766-11.808S355.037,428.645,355.037,428.645Z" transform="translate(-300.723 -301.848)" fill="#3f3d56"/>
    <path id="Path_19" data-name="Path 19" d="M296.52,429.557s-7.289.695-7.636,1.389-10.94,3.647-10.245,6.772,10.245,31.083,6.078,36.292-11.113,12.5-8.682,13.2,6.6-1.042,10.766,0,13.892-7.64,12.85-17.017S299.641,431.988,296.52,429.557Z" transform="translate(-255.982 -302.76)" fill="#3f3d56"/>
    <path id="Path_20" data-name="Path 20" d="M360.219,591.255v3.473s1.737,7.988-3.82,7.641-2.084-9.724-2.084-9.724l.347-3.126Z" transform="translate(-302.313 -398.126)" fill="#ffb8b8"/>
    <path id="Path_21" data-name="Path 21" d="M322.076,594.679s3.82,7.988,0,8.682-6.6-4.515-6.6-5.9S322.076,594.679,322.076,594.679Z" transform="translate(-279.797 -401.202)" fill="#ffb8b8"/>
    <ellipse id="Ellipse_1" data-name="Ellipse 1" cx="0.695" cy="1.389" rx="0.695" ry="1.389" transform="translate(36.548 110.995)" fill="#ffb8b8"/>
    <ellipse id="Ellipse_2" data-name="Ellipse 2" cx="0.695" cy="1.389" rx="0.695" ry="1.389" transform="translate(57.039 110.995)" fill="#ffb8b8"/>
    <path id="Path_22" data-name="Path 22" d="M291.977,440.737s-8.682,0-8.335,3.473,11.808,63.207,11.808,63.207,4.862-4.515,9.03-3.473Z" transform="translate(-260.812 -309.425)" fill="#3f3d56"/>
    <path id="Path_23" data-name="Path 23" d="M367.209,443.317s8.682,1.737,8.682,6.946-12.5,55.219-14.239,55.219-8.335-1.042-8.335-2.778S367.209,443.317,367.209,443.317Z" transform="translate(-302.357 -310.963)" fill="#3f3d56"/>
    <path id="Path_24" data-name="Path 24" d="M371.452,468.687l-7.814,30.559S367.284,472.507,371.452,468.687Z" transform="translate(-308.509 -326.088)" opacity="0.2"/>
    <path id="Path_25" data-name="Path 25" d="M307.723,458.054l7.9,39.954S313.1,460.359,307.723,458.054Z" transform="translate(-275.174 -319.749)" opacity="0.2"/>
    <circle id="Ellipse_3" data-name="Ellipse 3" cx="10.071" cy="10.071" r="10.071" transform="translate(37.417 102.486)" fill="#ffb8b8"/>
    <path id="Path_26" data-name="Path 26" d="M94.209,247.523l7.528-3.943,10.4,1.613,2.151,9.5-5.354-.206-1.5-3.49v3.432l-2.471-.095-1.434-5.557-.9,5.915-8.783-.179Z" transform="translate(-55.951 -145.211)" fill="#2f2e41"/>
    <path id="Path_27" data-name="Path 27" d="M368.151,99.28,364,109.153l35.039,18.392L410.843,93" transform="translate(-217.009 -55.438)" fill="#f2f2f2"/>
    <path id="Path_28" data-name="Path 28" d="M397.039,83.928l15.479-36.422L376.941,30,362,65.536Z" transform="translate(-215.816 -17.879)" fill="#ff9800"/>
    <rect id="Rectangle_5" data-name="Rectangle 5" width="0.573" height="30.246" transform="matrix(0.455, -0.89, 0.89, 0.455, 160.024, 26.559)" fill="#fff"/>
    <rect id="Rectangle_6" data-name="Rectangle 6" width="0.573" height="30.246" transform="matrix(0.455, -0.89, 0.89, 0.455, 158.005, 31.404)" fill="#fff"/>
  </g>
</svg>
