<svg xmlns="http://www.w3.org/2000/svg" xmlns:xlink="http://www.w3.org/1999/xlink" width="440" height="203.192" viewBox="0 0 440 203.192">
  <defs>
    <linearGradient id="linear-gradient" x1="-52.727" y1="1" x2="-52.727" gradientUnits="objectBoundingBox">
      <stop offset="0" stop-color="gray" stop-opacity="0.251"/>
      <stop offset="0.54" stop-color="gray" stop-opacity="0.122"/>
      <stop offset="1" stop-color="gray" stop-opacity="0.102"/>
    </linearGradient>
  </defs>
  <g id="undraw_online_friends_x73e" transform="translate(0 -2.782)">
    <ellipse id="Ellipse_33" data-name="Ellipse 33" cx="220" cy="11.518" rx="220" ry="11.518" transform="translate(0 182.938)" fill="#3f3d56"/>
    <path id="Path_174" data-name="Path 174" d="M172,29.5H280.44V205.109H180.262A8.262,8.262,0,0,1,172,196.846Z" transform="translate(-102.404 -17.618)" fill="#fb8c00"/>
    <path id="Path_175" data-name="Path 175" d="M520.46,218.138v4.69H183v-4.69a8.258,8.258,0,0,1,8.263-8.258H512.2a8.259,8.259,0,0,1,8.263,8.258Z" transform="translate(-113.606 -207.098)" fill="#3f3d56"/>
    <circle id="Ellipse_36" data-name="Ellipse 36" cx="2.428" cy="2.428" r="2.428" transform="translate(75.665 7.026)" fill="#fb8c00"/>
    <circle id="Ellipse_37" data-name="Ellipse 37" cx="2.428" cy="2.428" r="2.428" transform="translate(81.735 7.026)" fill="#fb8c00"/>
    <circle id="Ellipse_38" data-name="Ellipse 38" cx="2.428" cy="2.428" r="2.428" transform="translate(87.804 7.026)" fill="#fb8c00"/>
    <path id="Path_176" data-name="Path 176" d="M347.5,429.38" transform="translate(-211.545 -337.783)" fill="none" stroke="#f2f2f2" stroke-miterlimit="10" stroke-width="2"/>
    <path id="Path_177" data-name="Path 177" d="M333.5,428.38" transform="translate(-203.21 -337.187)" fill="none" stroke="#f2f2f2" stroke-miterlimit="10" stroke-width="2"/>
    <rect id="Rectangle_59" data-name="Rectangle 59" width="140.406" height="4.451" rx="1.24" transform="translate(247.025 37.624)" fill="#fb8c00" opacity="0.3"/>
    <rect id="Rectangle_60" data-name="Rectangle 60" width="29.538" height="10.116" rx="1.24" transform="translate(355.87 46.121)" fill="#fb8c00"/>
    <rect id="Rectangle_61" data-name="Rectangle 61" width="140.406" height="4.451" rx="1.24" transform="translate(247.025 91.747)" fill="#fb8c00" opacity="0.3"/>
    <rect id="Rectangle_62" data-name="Rectangle 62" width="29.538" height="10.116" rx="1.24" transform="translate(355.87 100.244)" fill="#fb8c00"/>
    <circle id="Ellipse_39" data-name="Ellipse 39" cx="20.037" cy="20.037" r="20.037" transform="translate(196.516 81.016)" fill="#3f3d56"/>
    <path id="Path_178" data-name="Path 178" d="M553.3,448.292a.563.563,0,0,1-.085.133,12.548,12.548,0,0,1-.708,1.048,19.963,19.963,0,0,1-8.8,6.858c-.348.146-.7.279-1.064.4a7.105,7.105,0,0,1-.923-.886A6.924,6.924,0,0,1,540.1,452.5a8.487,8.487,0,0,1-1.618.154,1.079,1.079,0,0,1-.162,0c-4.168-.073-7.745-3.124-9.343-7.477l-.065-.186a15.129,15.129,0,0,1-.316-8.8h0c.02-.1.053-.194.081-.287,1.368-4.7,4.977-8.121,9.27-8.392h.927c5.438.2,9.816,5.458,10.019,12.038a6.988,6.988,0,0,1,3.079,6.846A7.153,7.153,0,0,1,553.3,448.292Z" transform="translate(-319.063 -336.669)" fill="#192534"/>
    <path id="Path_179" data-name="Path 179" d="M553.392,448.366a12.542,12.542,0,0,1-.708,1.048,6.618,6.618,0,0,0-1.08-1.436,7.611,7.611,0,0,0,.073-1.007,6.984,6.984,0,0,0-3.152-5.839c-.222-6.717-4.791-12.082-10.387-12.082-4,0-7.465,2.727-9.209,6.733-.045.105-.085.206-.134.316h0c-.146.348-.275.7-.4,1.068a14.831,14.831,0,0,1,.595-2.177l.057-.057c1.558-4.293,5.038-7.34,9.124-7.522h.927c5.361.324,9.654,5.56,9.861,12.07a6.976,6.976,0,0,1,3.087,6.846A6.9,6.9,0,0,1,553.392,448.366Z" transform="translate(-319.242 -336.61)" opacity="0.1"/>
    <path id="Path_180" data-name="Path 180" d="M536.8,461.021a2.631,2.631,0,0,1-.138,1.214c-.239.554-.809,1.052-.651,1.619a1.242,1.242,0,0,0,.874.7c1.744.591,3.642.239,5.487.32a17.707,17.707,0,0,0,1.849.065,2.944,2.944,0,0,0,1.715-.6,14.687,14.687,0,0,1-2.7-1.7,3.028,3.028,0,0,1-.546-.522,3.2,3.2,0,0,1-.473-1.853v-1.926c-1.319,0-2.634-.02-3.953-.02-.4,0-1.712-.1-1.861.356-.073.227.21.894.255,1.149A11.457,11.457,0,0,1,536.8,461.021Z" transform="translate(-323.762 -355.011)" fill="#a0616a"/>
    <path id="Path_181" data-name="Path 181" d="M536.8,461.021a2.631,2.631,0,0,1-.138,1.214c-.239.554-.809,1.052-.651,1.619a1.242,1.242,0,0,0,.874.7c1.744.591,3.642.239,5.487.32a17.707,17.707,0,0,0,1.849.065,2.944,2.944,0,0,0,1.715-.6,14.687,14.687,0,0,1-2.7-1.7,3.028,3.028,0,0,1-.546-.522,3.2,3.2,0,0,1-.473-1.853v-1.926c-1.319,0-2.634-.02-3.953-.02-.4,0-1.712-.1-1.861.356-.073.227.21.894.255,1.149A11.457,11.457,0,0,1,536.8,461.021Z" transform="translate(-323.762 -355.011)" opacity="0.1"/>
    <circle id="Ellipse_40" data-name="Ellipse 40" cx="4.649" cy="4.649" r="4.649" transform="translate(211.098 96.129)" fill="#a0616a"/>
    <path id="Path_182" data-name="Path 182" d="M538,475.136a3.079,3.079,0,0,1-.045.4,12.3,12.3,0,0,1-.659,2.205,10.6,10.6,0,0,1-.615,1.408c-.174.312-.4.6-.591.9l-.267.433a5.918,5.918,0,0,0-.433.914,17.173,17.173,0,0,1-2.375.433,19.842,19.842,0,0,1-2.359.142,21.831,21.831,0,0,1-12.022-3.338s.473-.328.4-.4c0-.186-.02-.368-.02-.554a4.156,4.156,0,0,1,.231-1.408,2.834,2.834,0,0,1,.7-1.149c.4-.4.947-.656,1.38-1.044a4.1,4.1,0,0,0,1.129-1.962h0c.1-.324.174-.668.243-1a4.859,4.859,0,0,1,.372-1.315,1.188,1.188,0,0,1,.089-.154,1.582,1.582,0,0,1,.219-.287,4.734,4.734,0,0,1,1.424-.955c.441-.227,1.06-.4,1.367-.028v.028a5.715,5.715,0,0,1,.255.712c.247.51.935.575,1.493.562a47.347,47.347,0,0,0,5.9-.494l.947-.154c.684-.113,1.161.486,1.546,1.068A8.167,8.167,0,0,1,538,475.136Z" transform="translate(-313.431 -360.871)" fill="#fb8c00"/>
    <path id="Path_183" data-name="Path 183" d="M529.365,486.18c-.433.1-.684.534-.886.931a3.6,3.6,0,0,0-.482,2.161,3.051,3.051,0,0,0,.093.878,1.166,1.166,0,0,0,.51.7" transform="translate(-318.998 -371.6)" fill="none" stroke="#000" stroke-miterlimit="10" stroke-width="1" opacity="0.1"/>
    <ellipse id="Ellipse_41" data-name="Ellipse 41" cx="2.565" cy="5.199" rx="2.565" ry="5.199" transform="translate(211.265 98.637) rotate(-75.66)" fill="#192534"/>
    <path id="Path_184" data-name="Path 184" d="M539.744,442.692c-2.472-.631-4.3-2.023-4.451-3.3a1.294,1.294,0,0,0-.243.49c-.352,1.372,1.618,3.059,4.4,3.771s5.321.174,5.665-1.214a1.305,1.305,0,0,0,.032-.469C544.405,442.987,542.168,443.311,539.744,442.692Z" transform="translate(-323.183 -343.742)" opacity="0.1"/>
    <path id="Path_185" data-name="Path 185" d="M558.773,483.93c0,.7,0,1.4-.045,2.1-.348.146-.7.279-1.064.4a14.843,14.843,0,0,1-1.619.461,17.164,17.164,0,0,1-2.375.433,27.765,27.765,0,0,1-.3-4.989h0a8.035,8.035,0,0,1,1.3-3.642,3.111,3.111,0,0,1,1.177-1.137,1.449,1.449,0,0,1,1.55.121,2.216,2.216,0,0,1,.558,1.032,17.124,17.124,0,0,1,.656,2.327,2.131,2.131,0,0,0,.04.267A16.055,16.055,0,0,1,558.773,483.93Z" transform="translate(-334.087 -366.368)" fill="#a0616a"/>
    <path id="Path_198" data-name="Path 198" d="M535.569,632.248v.534a.115.115,0,0,0,0,.032h0l-.376-.085a1.245,1.245,0,0,1,0-.214,2.614,2.614,0,0,1,.9-1.979.6.6,0,0,1,.125-.1,2.39,2.39,0,0,1,.728-.4,2.173,2.173,0,0,1,.761-.146.466.466,0,0,1,.105,0,1.54,1.54,0,0,1,.194,0h-.134a2.578,2.578,0,0,0-1.618.809.861.861,0,0,0-.126.146A2.59,2.59,0,0,0,535.569,632.248Z" transform="translate(-323.29 -457.156)" opacity="0.05"/>
    <path id="Path_200" data-name="Path 200" d="M559.306,632.135c-.113.049-.235.089-.352.13h0a2.557,2.557,0,0,0-.72-1.538l-.121-.121a2.658,2.658,0,0,0-1.449-.659h-.133a1.432,1.432,0,0,1,.186,0,.5.5,0,0,1,.109,0,2.372,2.372,0,0,1,.765.146,2.6,2.6,0,0,1,.554.267.481.481,0,0,1,.121.089,2.578,2.578,0,0,1,1.04,1.687Z" transform="translate(-335.996 -457.192)" opacity="0.05"/>
    <path id="Path_203" data-name="Path 203" d="M497.17,289.495a19.989,19.989,0,0,0,2.428,9.59c.182.328.368.655.575.975a.588.588,0,0,0,.089.134,11.9,11.9,0,0,0,.724,1.036,19.206,19.206,0,0,0,2.889,3.193,7.641,7.641,0,0,0,.631.542,17.987,17.987,0,0,0,2.2,1.574l.121.081a21.785,21.785,0,0,0,2.282,1.19l.676.279c.222.093.433.182.664.255.113.045.231.085.352.125h.057q.368.133.753.243l.186.045c.227.069.457.129.684.174.308.081.611.15.927.206.473.093.963.174,1.449.231h0a19.478,19.478,0,0,0,2.343.138h.239a18.642,18.642,0,0,0,3.237-.3,1.5,1.5,0,0,0,.194-.032c.2-.032.4-.073.595-.121h0c.129-.024.247-.053.376-.085a11.466,11.466,0,0,0,1.182-.32c.239-.077.473-.15.708-.231.473-.166.947-.344,1.4-.546a1.562,1.562,0,0,0,.206-.085l.089-.04a18.457,18.457,0,0,0,1.748-.9c.481-.275.951-.575,1.4-.89h.028a1.642,1.642,0,0,0,.21-.146,20.033,20.033,0,1,0-31.646-16.307Z" transform="translate(-300.654 -242.56)" fill="#3f3d56"/>
    <path id="Path_204" data-name="Path 204" d="M547.437,335.2a1.861,1.861,0,0,1,.587.991,2.538,2.538,0,0,1-1.72-.4,21.938,21.938,0,0,0-5.289-1.7.81.81,0,0,1-.4-.154.688.688,0,0,1,.024-.85c.2-.21.583-.182.858-.194a7.814,7.814,0,0,1,5.944,2.3Z" transform="translate(-326.438 -280.326)" fill="#fb8c00"/>
    <path id="Path_205" data-name="Path 205" d="M538.3,331.892a2.428,2.428,0,0,1-1.339,1.347c-.328.117-.68.138-1.011.231a1.12,1.12,0,0,0-.785.619,1.328,1.328,0,0,0-.061.437,9.412,9.412,0,0,0,.465,4.127,9.04,9.04,0,0,0,2.238,2.812,9.486,9.486,0,0,0,3.443,2.4,2.583,2.583,0,0,0,2.363-.222,3.511,3.511,0,0,0,.659-.765,6.976,6.976,0,0,0,1.307-6.466.364.364,0,0,0-.1-.243.38.38,0,0,0-.283-.049,1.667,1.667,0,0,1-1.687-.971,2.536,2.536,0,0,1-.093-.89l.028-1.732a1.468,1.468,0,0,0-.065-.55,1.384,1.384,0,0,0-.724-.627,17.9,17.9,0,0,0-2.946-1.161c-.445-.129-.785-.348-.983.129S538.535,331.39,538.3,331.892Z" transform="translate(-323.225 -278.629)" fill="#fbbebe"/>
    <path id="Path_206" data-name="Path 206" d="M538.3,331.892a2.428,2.428,0,0,1-1.339,1.347c-.328.117-.68.138-1.011.231a1.12,1.12,0,0,0-.785.619,1.328,1.328,0,0,0-.061.437,9.412,9.412,0,0,0,.465,4.127,9.04,9.04,0,0,0,2.238,2.812,9.486,9.486,0,0,0,3.443,2.4,2.583,2.583,0,0,0,2.363-.222,3.511,3.511,0,0,0,.659-.765,6.976,6.976,0,0,0,1.307-6.466.364.364,0,0,0-.1-.243.38.38,0,0,0-.283-.049,1.667,1.667,0,0,1-1.687-.971,2.536,2.536,0,0,1-.093-.89l.028-1.732a1.468,1.468,0,0,0-.065-.55,1.384,1.384,0,0,0-.724-.627,17.9,17.9,0,0,0-2.946-1.161c-.445-.129-.785-.348-.983.129S538.535,331.39,538.3,331.892Z" transform="translate(-323.225 -278.629)" opacity="0.1"/>
    <circle id="Ellipse_45" data-name="Ellipse 45" cx="5.284" cy="5.284" r="5.284" transform="translate(214.481 44.098)" fill="#fbbebe"/>
    <path id="Path_207" data-name="Path 207" d="M536.969,353.425c.473.093.963.174,1.448.231h0a19.471,19.471,0,0,0,2.343.138H541a18.635,18.635,0,0,0,3.237-.3,1.477,1.477,0,0,0,.194-.032c.2-.032.4-.073.595-.121h0c.13-.024.247-.053.376-.085a11.45,11.45,0,0,0,1.182-.32c.239-.077.473-.15.708-.231.473-.166.947-.344,1.4-.546a9.932,9.932,0,0,1-.287-1.1,12.112,12.112,0,0,1-.154-2.4c0-.643.029-1.283,0-1.922a4.728,4.728,0,0,0-.222-1.53,1.955,1.955,0,0,0-.987-1.145,2.723,2.723,0,0,0-2.1-.105,1.433,1.433,0,0,0-.194.125,1.008,1.008,0,0,0-.291.4c-.194.486-.4.975-.591,1.461a4.634,4.634,0,0,1-.473.963,2.387,2.387,0,0,1-2.618.862,1.556,1.556,0,0,1-.174-.069c-.809-.328-1.55-1.036-2.4-.846a1.594,1.594,0,0,0-1.056.914.411.411,0,0,0-.028.073,4.108,4.108,0,0,0-.291,1.327A17.693,17.693,0,0,0,536.969,353.425Z" transform="translate(-324.224 -286.826)" fill="#f2f2f2"/>
    <path id="Path_208" data-name="Path 208" d="M513.74,342.038a7.621,7.621,0,0,0,.631.542,17.981,17.981,0,0,0,2.2,1.574l.121.081a21.757,21.757,0,0,0,2.282,1.19l.676.279c.222.093.433.182.663.255.113.044.231.085.352.125h.057q.368.133.753.243l.186.045a7.054,7.054,0,0,0,.684.174c.307.081.611.15.927.206.473.093.963.174,1.449.231h0a19.5,19.5,0,0,0,2.343.138h.239a18.639,18.639,0,0,0,3.237-.3,1.5,1.5,0,0,0,.194-.032c.2-.032.4-.073.595-.121h0c.129-.024.247-.053.376-.085a11.451,11.451,0,0,0,1.182-.32c.239-.077.473-.15.708-.231.473-.166.947-.344,1.4-.546a1.559,1.559,0,0,0,.206-.085l.089-.04a18.42,18.42,0,0,0,1.748-.9,30.3,30.3,0,0,0,1.012-3.237.409.409,0,0,1,0-.065c-.631-1.121-1.19-2.286-1.817-3.407a2.6,2.6,0,0,0-2.084-1.57,5.1,5.1,0,0,0-1.355-.251,5.092,5.092,0,0,1-.777-.134c-.526-.117-1.109-.231-1.3,0h0a.069.069,0,0,0-.028.053,1.109,1.109,0,0,0,.093.809c.089.255.206.522.267.741a1.115,1.115,0,0,1,.061.324,11.045,11.045,0,0,1-.049,1.42c-.113.688-.494,1.295-.672,1.962-.081.316-.121.643-.174.963a10.362,10.362,0,0,1-.562,2.112,1.438,1.438,0,0,1-.206.4c-.332.4-.882.251-1.4.174-.38-.324-.36-.9-.4-1.384a7.282,7.282,0,0,0-.736-2.339l-.138-.291c-.4-.838-.809-1.671-1.19-2.513a4.433,4.433,0,0,1-.591-3.318c.117-.324.308-.611.437-.923a1.008,1.008,0,0,0,.053-.142,1.342,1.342,0,0,0,.061-.368.808.808,0,0,0-.186-.627.321.321,0,0,0-.081-.085.128.128,0,0,0-.049-.032.963.963,0,0,0-.882-.04,3.71,3.71,0,0,0-.465.206,22.265,22.265,0,0,0-2.294,1.485,1.149,1.149,0,0,0-.478.554,4.093,4.093,0,0,1-.077.457c-.113.287-.457.372-.752.437a9.214,9.214,0,0,0-5.875,4.317,4.747,4.747,0,0,0-.5,1.113A4.638,4.638,0,0,0,513.74,342.038Z" transform="translate(-310.52 -280.164)" fill="#fb8c00"/>
    <path id="Path_209" data-name="Path 209" d="M544.6,310.006a3.839,3.839,0,0,1-2.885.745l.032-.4-1.436.514a3.807,3.807,0,0,0,.943-1.012.643.643,0,0,0-.7-.044,1.455,1.455,0,0,0-.522.518,4.718,4.718,0,0,0-.522,4.2.931.931,0,0,1-.927-.061,1.619,1.619,0,0,1-.595-.753.787.787,0,0,0-.376-.482.4.4,0,0,0-.453.2.858.858,0,0,0-.1.514c.028.4.332.809.4,1.214s.672.728.356,1a4.616,4.616,0,0,1-1.149.271.5.5,0,0,1-.332-.328,14,14,0,0,1-.4-2.274,5.586,5.586,0,0,0-.834-1.655,2.315,2.315,0,0,0-.316-.425,1.063,1.063,0,0,1-.307-.352c-.053-.146.048-.36.2-.332a6.318,6.318,0,0,0-.809-.664c.283-.356.558-.72.809-1.084.093-.129.19-.287.121-.429a.433.433,0,0,0-.162-.158l-.716-.486c0-.34.676-.214.781-.534a.437.437,0,0,0,0-.259l-.251-.914.955.433a.648.648,0,0,0,.364.085c.251-.036.372-.332.4-.587a1.666,1.666,0,0,1,.1-.753h1.295a.846.846,0,0,0-.158-.611l3.188-.178a4.45,4.45,0,0,1,1.619.113,1.272,1.272,0,0,0,.538.121.322.322,0,0,0,.316-.368,5.79,5.79,0,0,1,1.3,1,1.252,1.252,0,0,0,.368.3.4.4,0,0,0,.449-.053c.089-.093.13-.259.259-.267s.146.065.194.125a3.161,3.161,0,0,1,.441.769,2.759,2.759,0,0,0,.668-.178.72.72,0,0,0-.121.809c.105.271.3.5.429.761a3.155,3.155,0,0,1,.255.882c.065.38.065.862-.271,1.048a.906.906,0,0,1-.931-.21C545.337,309.229,545.2,309.391,544.6,310.006Z" transform="translate(-322.505 -263.605)" fill="#192534"/>
    <path id="Path_210" data-name="Path 210" d="M515.3,354.534a17.989,17.989,0,0,0,2.2,1.574l.121.081a21.753,21.753,0,0,0,2.282,1.19l.676.279c.223.093.433.182.664.255.113.044.231.085.352.125h0c-.141-.4-.235-.809-.36-1.214a6.855,6.855,0,0,0-1.736-2.857c-.7-.7-1.8-1.712-2.832-1.1a3.235,3.235,0,0,0-.809.781,3.609,3.609,0,0,0-.5.74A1.006,1.006,0,0,0,515.3,354.534Z" transform="translate(-311.448 -292.118)" fill="#fb8c00"/>
    <path id="Path_211" data-name="Path 211" d="M562.85,357.31c.473-.166.947-.344,1.4-.546a1.56,1.56,0,0,0,.206-.085l.089-.04a18.44,18.44,0,0,0,1.748-.9c.482-.275.951-.575,1.4-.89h.028a8.418,8.418,0,0,1,0-1.355,1.062,1.062,0,0,0-.028-.453,1.083,1.083,0,0,0-.227-.312,1.848,1.848,0,0,1-.166-.19c-.457-.514-.829-1.068-1.619-.987a2.428,2.428,0,0,0-1.8,1.517,1.4,1.4,0,0,0-.089.227,15.72,15.72,0,0,0-.526,2.149c-.105.449-.239.882-.336,1.331C562.911,356.938,562.874,357.124,562.85,357.31Z" transform="translate(-339.758 -291.439)" fill="#fb8c00"/>
    <path id="Path_212" data-name="Path 212" d="M337.168,660.43h0l-.178.1Z" transform="translate(-205.288 -475.343)" fill="url(#linear-gradient)"/>
    <path id="Path_213" data-name="Path 213" d="M274.821,559.39c-1.562,4.5.263,11.8,1.109,15.06a45.31,45.31,0,0,1,1.109,7.17,15.111,15.111,0,0,0,5.738-.13l-1.368-6.713c.975-3.978,0-14.6,0-14.6a25.534,25.534,0,0,0,2.428-10.367c.19-6.158,1.708-8.149,1.756-8.214h0c3.128,1.619,7.105,19.1,7.105,19.1-.328,4.236.065,10.755,1.368,14.275a17.7,17.7,0,0,1,.979,6.976,2.149,2.149,0,0,0,1.772.34,12.147,12.147,0,0,0,4.095-1.906s-.716-19.018-1.238-19.75,0-4.823,0-4.823l-.85-6.652s.13-11.277-1.109-13.231a13.488,13.488,0,0,1-1.364-5.438v-.19l-1.886-2.262s-18.253-1.368-19.624,0a3.931,3.931,0,0,0-.668,2.064,46.706,46.706,0,0,0,.057,7.781s.546,3.585,1.331,7.235a15.89,15.89,0,0,1,0,6.652A19.886,19.886,0,0,1,274.821,559.39Z" transform="translate(-167.797 -396.157)" fill="#575a89"/>
    <path id="Path_214" data-name="Path 214" d="M278.252,665.211c.809,1.076,5.608.619,6.421.283.5-.2.461-1.141.328-2.1-.085-.615-.21-1.242-.263-1.7a15.4,15.4,0,0,1,.4-3.553s-1.076,1.141-1.335,0a1.246,1.246,0,0,0-.931-.882,2.428,2.428,0,0,0-1.691.105c-.85.364-2.262,1.149-2.023,2.209.356,1.5-.914,3.642-.914,3.642a1.618,1.618,0,0,0,0,2.023Z" transform="translate(-170.103 -473.392)" fill="#cbceda"/>
    <path id="Path_215" data-name="Path 215" d="M278.264,674.391c.809,1.076,5.608.619,6.421.283.5-.2.461-1.141.328-2.1a5.509,5.509,0,0,1-2.832.3,8.658,8.658,0,0,0-1.024-.032,23.314,23.314,0,0,1-3.112-.061A1.554,1.554,0,0,0,278.264,674.391Z" transform="translate(-170.115 -482.571)" opacity="0.1"/>
    <path id="Path_216" data-name="Path 216" d="M309.655,579.7c-.328,4.236.065,10.755,1.368,14.275a17.7,17.7,0,0,1,.979,6.976,2.149,2.149,0,0,0,1.772.34c-.4-2.747-2.068-14.6-3.144-23.954a39.205,39.205,0,0,0-6.939-17.994l-1.141,1.254C305.678,562.225,309.655,579.7,309.655,579.7Z" transform="translate(-184.783 -415.157)" opacity="0.1"/>
    <path id="Path_217" data-name="Path 217" d="M283.62,428.817l.809,3.913,3.9,6.551,4.807-2.052s6.535-6.846,2.428-7.825a3.549,3.549,0,0,1-1.364-.607,2.833,2.833,0,0,1-1.064-2.359,7.217,7.217,0,0,1,.668-2.8L285.392,421a13.7,13.7,0,0,1,.6,3.407c.065,2.29-.789,3.419-1.485,3.957A2.539,2.539,0,0,1,283.62,428.817Z" transform="translate(-173.513 -332.793)" fill="#fbbebe"/>
    <path id="Path_218" data-name="Path 218" d="M288,421a13.7,13.7,0,0,1,.6,3.407,5.371,5.371,0,0,0,.49.518,6.615,6.615,0,0,0,4.572,1.841,6.526,6.526,0,0,0,2.056-.328,7.219,7.219,0,0,1,.668-2.8Z" transform="translate(-176.12 -332.793)" opacity="0.1"/>
    <path id="Path_219" data-name="Path 219" d="M285.58,408.548a6.616,6.616,0,1,0,1.936-4.709,6.652,6.652,0,0,0-1.936,4.709Z" transform="translate(-174.68 -321.422)" fill="#fbbebe"/>
    <path id="Path_220" data-name="Path 220" d="M283.62,439.647l.809,3.913,3.9,6.551,4.807-2.052s6.535-6.846,2.428-7.826a3.548,3.548,0,0,1-1.364-.607c.741,2.023-2.318,6.28-2.318,6.28-.356.522-1.173.194-1.173.194-1.974-.3-5.6-5.968-6.195-6.911A2.536,2.536,0,0,1,283.62,439.647Z" transform="translate(-173.513 -343.623)" opacity="0.1"/>
    <path id="Path_221" data-name="Path 221" d="M274.31,530.069c1.157.263,7.562,1.683,9.99,1.327,2.675-.4,7.87-.651,7.87-.651s3.31.178,4.325-.287v-.19l-1.886-2.262s-18.253-1.368-19.625,0A3.934,3.934,0,0,0,274.31,530.069Z" transform="translate(-167.97 -396.14)" opacity="0.1"/>
    <path id="Path_222" data-name="Path 222" d="M280.171,446.2s3.439-4.763,2.14-6.62l5.81,2.383s3.5-.425,4.758,4.795a9.112,9.112,0,0,1,.219,2.65,7.878,7.878,0,0,0,.955,3.961c1.436,2.869,1.109,9.452-1.825,10.116s-3.977.324-3.977.324.4,11.928,2.088,13.3-4.321,1.044-4.321,1.044-5.2.259-7.87.651-10.168-1.372-10.168-1.372,1.109-5.017,1.5-8.214,1.307-9.994,1.307-9.994l-6.652-9.007s-1.173-5.442,2.934-7.854a46.263,46.263,0,0,1,5.665-3.006s4.127,6.721,6.28,7.049C279,446.4,279.815,446.728,280.171,446.2Z" transform="translate(-161.817 -343.724)" fill="#3f3d56"/>
    <path id="Path_223" data-name="Path 223" d="M319.683,460.94a9.769,9.769,0,0,1-.328,3c-.393.85-1.825,5.539-1.825,5.539h3.257s-1.76-1.89-1.619-2.8S319.683,460.94,319.683,460.94Z" transform="translate(-193.702 -356.573)" opacity="0.1"/>
    <path id="Path_224" data-name="Path 224" d="M297.719,487.611s7.2-1.76,7.87-3.261,2.521-4.856,2.521-4.856l-.761-1.024-3.5,2.747s-4.172,3.326-6.13,3.642S297.719,487.611,297.719,487.611Z" transform="translate(-181.389 -367.009)" fill="#fbbebe"/>
    <path id="Path_225" data-name="Path 225" d="M297.719,487.611s7.2-1.76,7.87-3.261,2.521-4.856,2.521-4.856l-.761-1.024-3.5,2.747s-4.172,3.326-6.13,3.642S297.719,487.611,297.719,487.611Z" transform="translate(-181.389 -367.009)" opacity="0.05"/>
    <path id="Path_226" data-name="Path 226" d="M283.62,480.063v3.9h.627a18.258,18.258,0,0,1,8.862,2.295l1.177.651.316.178,2.023-4.552-1.89-1.7h-.1a11.275,11.275,0,0,1-3.31-.073,5.363,5.363,0,0,0-4.18-.534c-1.165.3-2.165,1.619-3.3,1.214Z" transform="translate(-173.513 -367.934)" fill="#fbbebe"/>
    <path id="Path_227" data-name="Path 227" d="M266.153,456.055l-1.3,1.465v3.569s1.109,11.212,4.629,12.45,9.8-.716,9.8-.716,1.619-4.3.862-4.564-6.709-1.833-6.709-1.833.081-6.575-1.214-8.53c0,0,.85-6.13-2.084-6.26S266.153,456.055,266.153,456.055Z" transform="translate(-162.338 -351.032)" opacity="0.1"/>
    <path id="Path_228" data-name="Path 228" d="M265.667,456.055l-1.307,1.465v3.569s1.109,11.212,4.629,12.45,9.792-.716,9.792-.716,1.619-4.3.866-4.564-6.713-1.833-6.713-1.833.085-6.575-1.214-8.53c0,0,.846-6.13-2.088-6.26S265.667,456.055,265.667,456.055Z" transform="translate(-162.046 -351.032)" fill="#3f3d56"/>
    <path id="Path_229" data-name="Path 229" d="M287.394,411.392a2.578,2.578,0,0,1,.15-1.266.983.983,0,0,1,1.028-.6c.558.13.809.858,1.347,1.032a1.064,1.064,0,0,0,1.181-.611,3.068,3.068,0,0,0,.227-1.42v-1.618a2.808,2.808,0,0,1,.384-1.7,3.01,3.01,0,0,1,2.238-.809,1.874,1.874,0,0,1,1.275.514,1.659,1.659,0,0,0,1.343.477,1.165,1.165,0,0,0,.939-.809.036.036,0,0,1,0-.02,6.648,6.648,0,1,0-9.889,8.825A17.105,17.105,0,0,1,287.394,411.392Z" transform="translate(-174.669 -321.441)" opacity="0.1"/>
    <path id="Path_230" data-name="Path 230" d="M291.519,399.226a1.173,1.173,0,0,0,.939-.809c.053-.21.04-.437.1-.643.154-.514.7-.781,1.064-1.169a2.612,2.612,0,0,0,.166-3,2.129,2.129,0,0,0-2.084-1.246c-.526.093-.983.469-1.517.5a3.171,3.171,0,0,1-1.453-.469,5.474,5.474,0,0,0-3.605-.32,2.067,2.067,0,0,0-.991.5,8.137,8.137,0,0,0-.526.74,4.129,4.129,0,0,1-2.666,1.1c-.967.174-2.064.558-2.383,1.493a3.935,3.935,0,0,0,.113,1.93.554.554,0,0,1-.024.4c-.15.251-.53.146-.809.206-.546.113-.688.809-.708,1.384-.024.643-.04,1.287-.053,1.93a1.89,1.89,0,0,0,.611,1.618l2.153,2.586c.955,1.149,1.966,2.484,1.776,3.965a.923.923,0,0,0,1.137-.664,2.929,2.929,0,0,0-.073-1.469,17.882,17.882,0,0,1-.34-2.545,2.577,2.577,0,0,1,.15-1.267.979.979,0,0,1,1.032-.6c.558.13.809.854,1.347,1.032a1.068,1.068,0,0,0,1.182-.611,3.067,3.067,0,0,0,.227-1.42v-1.618a2.745,2.745,0,0,1,.384-1.7,3.026,3.026,0,0,1,2.238-.809,1.914,1.914,0,0,1,1.275.514,1.647,1.647,0,0,0,1.339.449Z" transform="translate(-169.613 -315.471)" fill="#3f3d56"/>
    <path id="Path_231" data-name="Path 231" d="M305.562,460.54l-2.023,8.388S301.912,468.916,305.562,460.54Z" transform="translate(-185.156 -356.334)" opacity="0.1"/>
    <path id="Path_232" data-name="Path 232" d="M291.83,457.08s2.675,4.378,1.619,8.9l-.5.036S293.853,463.926,291.83,457.08Z" transform="translate(-178.401 -354.275)" opacity="0.1"/>
    <path id="Path_233" data-name="Path 233" d="M282.46,517.958s-3.281-1.084-3.52,1.432C278.94,519.391,279.559,517.663,282.46,517.958Z" transform="translate(-170.726 -390.381)" opacity="0.1"/>
    <path id="Path_234" data-name="Path 234" d="M310.322,482.53s.651,4.564-.522,6.389a14.246,14.246,0,0,0,5.746.781l.4-7.17Z" transform="translate(-189.099 -369.427)" opacity="0.1"/>
    <path id="Path_235" data-name="Path 235" d="M310,488.119l.316.178,2.023-4.552-1.89-1.7h-.1C310.372,482.269,310.9,486.189,310,488.119Z" transform="translate(-189.219 -369.141)" opacity="0.1"/>
    <path id="Path_236" data-name="Path 236" d="M310.322,482.05s.651,4.564-.522,6.389a14.335,14.335,0,0,0,5.746.781l2.282-7.17Z" transform="translate(-189.099 -369.141)" fill="#3f3d56"/>
    <path id="Path_237" data-name="Path 237" d="M324.984,662.194a1.473,1.473,0,0,0,1.267,1.291,46.012,46.012,0,0,1,7.109,1.453c1.372.651,6.782.194,7.041-.457a1.024,1.024,0,0,0-.093-.781,2.076,2.076,0,0,0-.874-.943,2.641,2.641,0,0,0-.4-.174c-1.02-.34-2.942-1.06-3.464-1.817a22.018,22.018,0,0,1-3.083-3.237,1.566,1.566,0,0,0-1.254-.781c-.57-.024-1.214.263-1.465,1.513,0,0-3.128,1.784-3.973.218,0,0-.133,2.4-.651,3.063h0A.878.878,0,0,0,324.984,662.194Z" transform="translate(-198.133 -473.15)" fill="#cbceda"/>
    <path id="Path_238" data-name="Path 238" d="M324.987,669.258a1.473,1.473,0,0,0,1.266,1.291A46.012,46.012,0,0,1,333.363,672c1.372.651,6.782.194,7.041-.457a1.024,1.024,0,0,0-.093-.781,2.076,2.076,0,0,0-.874-.943c-.882.587-2.832,1.161-7.146.486a31.658,31.658,0,0,1-7.138-1.7h0A.878.878,0,0,0,324.987,669.258Z" transform="translate(-198.137 -480.214)" opacity="0.1"/>
    <g id="Group_15" data-name="Group 15" transform="translate(107.449 79.523)" opacity="0.1">
      <path id="Path_239" data-name="Path 239" d="M280.768,404.539v-.028a6.235,6.235,0,0,1-.2-1.481,9.179,9.179,0,0,0,.174,1.2A.732.732,0,0,1,280.768,404.539Z" transform="translate(-279.145 -401.618)"/>
      <path id="Path_240" data-name="Path 240" d="M290.211,408.563a1.976,1.976,0,0,0-.162.749,2.254,2.254,0,0,1,.162-1.04.983.983,0,0,1,1.032-.6c.558.129.809.858,1.347,1.032a1.064,1.064,0,0,0,1.182-.611,3.06,3.06,0,0,0,.227-1.42v-1.619a2.808,2.808,0,0,1,.384-1.7,3.01,3.01,0,0,1,2.238-.809,1.873,1.873,0,0,1,1.275.514,1.659,1.659,0,0,0,1.343.478,1.161,1.161,0,0,0,.939-.809c.053-.21.04-.437.1-.643.154-.514.7-.781,1.064-1.169a2.1,2.1,0,0,0,.55-1.376,2.21,2.21,0,0,1-.55,1.671c-.364.4-.91.655-1.064,1.165-.061.21-.049.433-.1.643a1.165,1.165,0,0,1-.939.809,1.647,1.647,0,0,1-1.343-.481,1.893,1.893,0,0,0-1.275-.514,3.009,3.009,0,0,0-2.238.809,2.74,2.74,0,0,0-.384,1.7c0,.591,0,1.088,0,1.619a3.051,3.051,0,0,1-.227,1.416,1.056,1.056,0,0,1-1.182.611c-.546-.174-.789-.9-1.347-1.028A.975.975,0,0,0,290.211,408.563Z" transform="translate(-284.785 -399.54)"/>
      <path id="Path_241" data-name="Path 241" d="M277.118,416.779a2.544,2.544,0,0,0,.554.9l2.153,2.586c.906,1.088,1.865,2.347,1.792,3.739a6.385,6.385,0,0,0-1.792-3.447l-2.153-2.586a1.889,1.889,0,0,1-.611-1.618A1.637,1.637,0,0,0,277.118,416.779Z" transform="translate(-277.049 -409.548)"/>
      <path id="Path_242" data-name="Path 242" d="M289.437,433.662a1.494,1.494,0,0,0,.065-.352,1.81,1.81,0,0,1-.065.643.916.916,0,0,1-1.137.66,2.234,2.234,0,0,0,.02-.283A.927.927,0,0,0,289.437,433.662Z" transform="translate(-283.748 -419.646)"/>
    </g>
    <path id="Path_243" data-name="Path 243" d="M340.008,660.15s-.68,1.214-3.148.142" transform="translate(-205.21 -475.177)" opacity="0.1"/>
    <path id="Path_244" data-name="Path 244" d="M285.971,660.86s-2.128,2.509-4.811.809" transform="translate(-172.048 -475.599)" opacity="0.1"/>
    <path id="Path_245" data-name="Path 245" d="M277.74,587.58s1.5.939,1.554,1.477-.777-.4-.777-.4Z" transform="translate(-170.012 -431.971)" opacity="0.1"/>
    <path id="Path_246" data-name="Path 246" d="M276.27,605.39a3.131,3.131,0,0,0,1.853.724c1.125.049,1.032,1.513.3,1.076a18.441,18.441,0,0,1-2.149-1.8Z" transform="translate(-169.137 -442.574)" opacity="0.1"/>
    <path id="Path_247" data-name="Path 247" d="M275.56,607.71s.724,3.549,1.311,2.865" transform="translate(-168.714 -443.955)" opacity="0.1"/>
    <path id="Path_248" data-name="Path 248" d="M87.168,590.4c1.214-2.229-.166-4.961-1.736-6.948s-3.484-4.046-3.443-6.591c.061-3.642,3.925-5.794,7.012-7.724a33.985,33.985,0,0,0,6.3-5.062,9.308,9.308,0,0,0,1.934-2.59,10.5,10.5,0,0,0,.579-4.6q-.2-7.8-.769-15.574" transform="translate(-53.467 -404.423)" fill="none" stroke="#3f3d56" stroke-miterlimit="10" stroke-width="4"/>
    <path id="Path_249" data-name="Path 249" d="M117.044,532.648A5.665,5.665,0,0,0,114.212,528l-1.271,2.513.036-3.043a5.665,5.665,0,1,0,4.071,5.183Z" transform="translate(-67.598 -396.044)" fill="#57b894"/>
    <path id="Path_250" data-name="Path 250" d="M92.927,623.443a5.665,5.665,0,1,1,.275-4.572l-3.549,2.885,3.9-.9A5.665,5.665,0,0,1,92.927,623.443Z" transform="translate(-53.61 -448.403)" fill="#57b894"/>
    <path id="Path_251" data-name="Path 251" d="M92.816,591.646a5.665,5.665,0,0,1-1.8-11.139l-.032,2.339L92.27,580.3h0a5.665,5.665,0,0,1,5.936,5.406,5.6,5.6,0,0,1-.243,1.938A5.665,5.665,0,0,1,92.816,591.646Z" transform="translate(-56.303 -427.632)" fill="#57b894"/>
    <path id="Path_252" data-name="Path 252" d="M127.163,569.015a5.665,5.665,0,1,1,2.509-10.63l-1,2.751,2.068-1.983a5.665,5.665,0,0,1,1.833,3.921,5.579,5.579,0,0,1-.142,1.566A5.685,5.685,0,0,1,127.163,569.015Z" transform="translate(-76.863 -414.175)" fill="#57b894"/>
    <path id="Path_253" data-name="Path 253" d="M116.318,538.73c-1.311.142-2.586.55-3.9.631a4.254,4.254,0,0,1-3.593-1.254,17.992,17.992,0,0,1-1.048-1.849,4.046,4.046,0,0,0-1.432-1.347,5.665,5.665,0,1,0,10.617,3.771Q116.642,538.693,116.318,538.73Z" transform="translate(-67.637 -400.612)" opacity="0.1"/>
    <path id="Path_254" data-name="Path 254" d="M127.052,573.773a5.665,5.665,0,0,1-5.4-8.093,4.2,4.2,0,0,1,1.141,1.141,18.545,18.545,0,0,0,1.125,1.878,4.652,4.652,0,0,0,3.767,1.319c1.372-.061,2.695-.453,4.046-.579.19,0,.38-.029.575-.033A5.685,5.685,0,0,1,127.052,573.773Z" transform="translate(-76.753 -418.932)" opacity="0.1"/>
    <path id="Path_255" data-name="Path 255" d="M92.977,596.586a5.665,5.665,0,0,1-5.45-8,4.6,4.6,0,0,1,1.214,1.153,19.025,19.025,0,0,0,1.234,1.914,5.242,5.242,0,0,0,4.018,1.408c1.449-.037,2.764-.372,4.16-.482A5.665,5.665,0,0,1,92.977,596.586Z" transform="translate(-56.464 -432.572)" opacity="0.1"/>
    <path id="Path_256" data-name="Path 256" d="M92.7,628.783A5.672,5.672,0,0,1,82.35,624.15a5.5,5.5,0,0,1,1.246,1.113,24.709,24.709,0,0,0,1.521,2.023,7.073,7.073,0,0,0,4.706,1.655A24.284,24.284,0,0,0,92.7,628.783Z" transform="translate(-53.387 -453.743)" opacity="0.1"/>
    <path id="Path_257" data-name="Path 257" d="M73.62,652.72s4.483-.117,5.819-1.1,6.879-2.108,7.227-.567,6.737,7.688,1.675,7.712-11.754-.809-13.106-1.619S73.62,652.72,73.62,652.72Z" transform="translate(-48.485 -469.308)" fill="#656380"/>
    <path id="Path_258" data-name="Path 258" d="M88.45,661.773c-5.062.044-11.758-.785-13.106-1.619-1.028-.627-1.436-2.873-1.574-3.9h-.15s.283,3.613,1.619,4.451,8.048,1.651,13.106,1.619c1.461,0,1.966-.53,1.938-1.3C90.092,661.478,89.554,661.765,88.45,661.773Z" transform="translate(-48.485 -472.855)" opacity="0.2"/>
  </g>
</svg>
