<svg id="undraw_arrived_f58d" xmlns="http://www.w3.org/2000/svg" width="330.816" height="263.579" viewBox="0 0 330.816 263.579">
  <circle id="Ellipse_25" data-name="Ellipse 25" cx="10.652" cy="10.652" r="10.652" transform="translate(237.525 8.309)" fill="#2f2e41"/>
  <path id="Path_151" data-name="Path 151" d="M827.75,116.04s-1.541,19.4-3.39,19.4,21.57-.913,21.57-.913-9.86-12.783-4.93-16.891S827.75,116.04,827.75,116.04Z" transform="translate(-587.1 -90.581)" fill="#9f616a"/>
  <path id="Path_152" data-name="Path 152" d="M827.75,116.04s-1.541,19.4-3.39,19.4,21.57-.913,21.57-.913-9.86-12.783-4.93-16.891S827.75,116.04,827.75,116.04Z" transform="translate(-587.1 -90.581)" opacity="0.1"/>
  <path id="Path_153" data-name="Path 153" d="M503.6,421.187a92.622,92.622,0,1,1,65.494-27.128A92.622,92.622,0,0,1,503.6,421.187Zm0-184.284a91.662,91.662,0,1,0,91.662,91.662A91.766,91.766,0,0,0,503.6,236.9Z" transform="translate(-306.039 -172.632)" fill="#3f3d56"/>
  <path id="Path_154" data-name="Path 154" d="M828.666,250.335,817.9,253.416l15.039-.686a13.243,13.243,0,0,1,9.285,3.124c2.679,2.32,4.839,6,2.759,11.438a140.582,140.582,0,0,1-10.558,21.116l-4.159,8s-8.638,1.28-8.958-1.28,0-3.839,1.6-5.119a7.837,7.837,0,0,0,2.56-5.119c0-1.28-.32-2.56.64-3.2s1.28-1.6,1.28-3.519,5.55-10.357,5.55-10.357-11.629-4.041-16.637-.64-15.148,18.355-15.148,18.355a9.629,9.629,0,0,0-1.653,2.349,8.3,8.3,0,0,1-2.091,2.6c-.93.818-.073,3.07.225,3.368.32.32,3.519,13.117,3.519,13.117s3.519,6.079-.32,6.4-7.359.64-7.679,0a17.384,17.384,0,0,0-1.28-2.559c-.96-1.6,0-5.119,0-5.119s-9.278-11.838-6.4-19.2,8.958-24,8.958-24l9.278-3.839,16.957-6.079Z" transform="translate(-560.349 -182.426)" fill="#2f2e41"/>
  <path id="Path_155" data-name="Path 155" d="M674.2,116.27l-13.117-2.56s-3.2-10.878-7.039-9.6,2.56,12.158,2.56,12.158l18.237,8.318Z" transform="translate(-470.512 -82.914)" fill="#a0616a"/>
  <path id="Path_156" data-name="Path 156" d="M954.372,176.335l5.759,7.359s8.318-.32,5.759,4.159-8.318,1.92-8.638.96-9.6-9.278-9.6-9.278Z" transform="translate(-671.018 -132.101)" fill="#a0616a"/>
  <path id="Path_157" data-name="Path 157" d="M762.11,138.484l-8.318,6.4-5.119-7.679L709,134.965v13.117c9.763-2.819,18.75-3.692,25.915,0,9.069,12.076,11.064,25.189,5.328,39.436l46.822-16.4c-14.033-5.226-20.548-12.8-18.556-23.036l16.317,5.759,9.918-7.359C785.874,140.515,772.675,136.771,762.11,138.484Z" transform="translate(-508.719 -103.967)" fill="#fb8c00"/>
  <ellipse id="Ellipse_26" data-name="Ellipse 26" cx="165.408" cy="12.478" rx="165.408" ry="12.478" transform="translate(0 238.624)" fill="#3f3d56"/>
  <ellipse id="Ellipse_27" data-name="Ellipse 27" cx="111.818" cy="8.318" rx="111.818" ry="8.318" transform="translate(7.359 242.463)" opacity="0.1"/>
  <path id="Path_158" data-name="Path 158" d="M1017.88,735.642c-1.066,9.339,4.676,17.664,4.676,17.664s7.469-6.817,8.535-16.156-4.676-17.664-4.676-17.664S1018.945,726.3,1017.88,735.642Z" transform="translate(-718.686 -501.478)" fill="#2f2e41"/>
  <path id="Path_159" data-name="Path 159" d="M1000.9,741.235c3.842,8.579.888,18.25.888,18.25s-9.182-4.237-13.024-12.816-.888-18.25-.888-18.25S997.06,732.656,1000.9,741.235Z" transform="translate(-697.636 -507.552)" fill="#fb8c00"/>
  <circle id="Ellipse_28" data-name="Ellipse 28" cx="35.851" cy="35.851" r="35.851" transform="translate(164.289 178.907)" fill="#f2f2f2"/>
  <path id="Path_160" data-name="Path 160" d="M317.143,465.236l-8.832,22.079-31.936.256-10.4.084-24.689.2-10.4.084-24.689.2-10.4.084-24.689.2-10.4.084-16.666.132-3.224-6.6-4.182-8.545-2.31-4.729L133,465.236l7.927-25.1a12.1,12.1,0,0,1,11.539-8.456H296.68a12.1,12.1,0,0,1,11.4,8.046l.918,2.588Z" transform="translate(-117.003 -305.748)" fill="#fb8c00"/>
  <rect id="Rectangle_45" data-name="Rectangle 45" width="184.143" height="46.367" transform="translate(15.997 159.488)" fill="#fb8c00"/>
  <rect id="Rectangle_46" data-name="Rectangle 46" width="184.143" height="46.367" transform="translate(15.997 159.488)" opacity="0.1"/>
  <rect id="Rectangle_47" data-name="Rectangle 47" width="5.432" height="5.432" transform="translate(197.424 95.798)" fill="#3f3d56"/>
  <rect id="Rectangle_48" data-name="Rectangle 48" width="5.432" height="5.432" transform="translate(212.09 212.042)" fill="#3f3d56"/>
  <rect id="Rectangle_49" data-name="Rectangle 49" width="117.905" height="148.374" transform="translate(48.895 99.652)" fill="#f2f2f2"/>
  <rect id="Rectangle_50" data-name="Rectangle 50" width="34.444" height="4.857" transform="translate(73.624 110.25)" fill="#3f3d56"/>
  <rect id="Rectangle_51" data-name="Rectangle 51" width="103.774" height="2.208" transform="translate(55.519 130.122)" fill="#e6e6e6"/>
  <rect id="Rectangle_52" data-name="Rectangle 52" width="103.774" height="2.208" transform="translate(55.519 137.187)" fill="#e6e6e6"/>
  <rect id="Rectangle_53" data-name="Rectangle 53" width="103.774" height="2.208" transform="translate(55.519 144.252)" fill="#e6e6e6"/>
  <rect id="Rectangle_54" data-name="Rectangle 54" width="103.774" height="2.208" transform="translate(55.519 151.318)" fill="#e6e6e6"/>
  <rect id="Rectangle_55" data-name="Rectangle 55" width="103.774" height="2.208" transform="translate(55.519 158.383)" fill="#e6e6e6"/>
  <rect id="Rectangle_56" data-name="Rectangle 56" width="103.774" height="2.208" transform="translate(55.519 165.449)" fill="#e6e6e6"/>
  <path id="Path_161" data-name="Path 161" d="M254.377,378.367a7.507,7.507,0,1,1,7.507-7.507A7.507,7.507,0,0,1,254.377,378.367Zm0-14.131A6.624,6.624,0,1,0,261,370.86a6.624,6.624,0,0,0-6.624-6.624Z" transform="translate(-194.442 -259.285)" fill="#fb8c00"/>
  <path id="Path_162" data-name="Path 162" d="M234.143,590.787H50V498.495l23.846,18.547,137.334-.883,22.963-17.663Z" transform="translate(-34.003 -339.008)" fill="#3f3d56"/>
  <rect id="Rectangle_57" data-name="Rectangle 57" width="34.444" height="4.857" transform="translate(25.491 230.363)" fill="#f2f2f2"/>
  <path id="Path_163" data-name="Path 163" d="M211.011,713.269a3.839,3.839,0,1,1,3.839-3.839,3.839,3.839,0,0,1-3.839,3.839Zm0-7.039a3.2,3.2,0,1,0,3.2,3.2A3.2,3.2,0,0,0,211.011,706.231Z" transform="translate(-167.445 -492.028)" fill="#fff"/>
  <path id="Path_164" data-name="Path 164" d="M901.839,388.73s1.92,7.359,2.56,7.679,7.679,6.4,2.879,7.359-8.318.64-9.278-.32-.64-1.92-2.24-2.24-4.479-1.28-4.159-3.519,1.92-8.318,2.879-8.958S901.839,388.73,901.839,388.73Z" transform="translate(-632.882 -276.35)" fill="#2f2e41"/>
  <path id="Path_165" data-name="Path 165" d="M810.118,440.335a5.471,5.471,0,0,1,1.28,6.4c-1.6,4.159-3.839,8.638-3.839,8.638s-2.56,8-6.719,6.719a4.536,4.536,0,0,1-2.942-3.437,8.221,8.221,0,0,1,1.162-6.69l2.42-3.63,2.56-6.719Z" transform="translate(-568.996 -311.638)" fill="#2f2e41"/>
  <path id="Path_166" data-name="Path 166" d="M780.307,477.808c5.735,0,12.831-1.9,19.746-8.767,16.928-16.812,33.01-18.5,33.171-18.514l-.06-.637c-.163.015-16.473,1.725-33.562,18.7-8.781,8.721-17.845,9.255-23.9,8.167a29.871,29.871,0,0,1-11.2-4.513l-.378.516a30.537,30.537,0,0,0,11.437,4.622,26.71,26.71,0,0,0,4.745.429Z" transform="translate(-546.207 -318.136)" fill="#2f2e41"/>
  <circle id="Ellipse_29" data-name="Ellipse 29" cx="3.839" cy="3.839" r="3.839" transform="translate(274.556 138.135)" fill="#2f2e41"/>
  <circle id="Ellipse_30" data-name="Ellipse 30" cx="3.839" cy="3.839" r="3.839" transform="translate(247.361 156.052)" fill="#2f2e41"/>
  <circle id="Ellipse_31" data-name="Ellipse 31" cx="7.677" cy="7.677" r="7.677" transform="translate(239.637 17.315)" fill="#a0616a"/>
  <path id="Path_167" data-name="Path 167" d="M866.711,38.078a5.823,5.823,0,0,1-3.36,2.31c-2.349.629-.019,4.159-.019,4.159a2.174,2.174,0,0,1,.375-2.643C864.929,40.544,866.9,39.615,866.711,38.078Z" transform="translate(-612.974 -38.078)" fill="#2f2e41"/>
  <circle id="Ellipse_32" data-name="Ellipse 32" cx="2.969" cy="2.969" r="2.969" transform="translate(246.973 4.347)" fill="#2f2e41"/>
  <path id="Path_168" data-name="Path 168" d="M857.95,62.051a21.016,21.016,0,0,0-8.523-1.062l.284-2.076a16.287,16.287,0,0,0,8.523,1.062Z" transform="translate(-604.218 -52.247)" fill="#3f3d56"/>
  <path id="Path_169" data-name="Path 169" d="M831.3,76.044a17.479,17.479,0,0,1-10.086,6.933c-7.053,1.889-.058,12.487-.058,12.487s-2.544-3.854,1.125-7.935S831.852,80.657,831.3,76.044Z" transform="translate(-582.888 -63.898)" fill="#2f2e41"/>
  <path id="Path_170" data-name="Path 170" d="M860.023,75.086s2.914,6.929,6.112,7.584,2.956,11.6-2.046,13.246c0,0,3.648-6.419.53-10.723S859.531,77.485,860.023,75.086Z" transform="translate(-611.373 -63.246)" fill="#2f2e41"/>
</svg>
