<svg xmlns="http://www.w3.org/2000/svg" xmlns:xlink="http://www.w3.org/1999/xlink" width="1920" height="1080" viewBox="0 0 1920 1080">
  <defs>
    <style>
      .cls-1 {
        clip-path: url(#clip-Web_1920_1);
      }

      .cls-16, .cls-2, .cls-30, .cls-6 {
        fill: #fb8c00;
      }

      .cls-3, .cls-32, .cls-4, .cls-5 {
        fill: #fff;
      }

      .cls-3 {
        font-size: 35px;
      }

      .cls-29, .cls-3, .cls-30, .cls-32, .cls-5, .cls-6 {
        font-family: SegoeUI, Segoe UI;
      }

      .cls-5 {
        font-size: 21px;
      }

      .cls-29, .cls-6 {
        font-size: 20px;
      }

      .cls-7 {
        font-family: SegoeUI-Bold, Segoe UI;
        font-weight: 700;
      }

      .cls-8 {
        fill: #2f2e41;
      }

      .cls-9 {
        fill: #9f616a;
      }

      .cls-10, .cls-18, .cls-24 {
        opacity: 0.1;
      }

      .cls-11, .cls-29 {
        fill: #3f3d56;
      }

      .cls-12 {
        fill: #a0616a;
      }

      .cls-13 {
        fill: #f2f2f2;
      }

      .cls-14 {
        fill: #e6e6e6;
      }

      .cls-15, .cls-18, .cls-25 {
        fill: none;
        stroke-miterlimit: 10;
      }

      .cls-15 {
        stroke: #f2f2f2;
        stroke-width: 2px;
      }

      .cls-16 {
        opacity: 0.3;
      }

      .cls-17 {
        fill: #192534;
      }

      .cls-18 {
        stroke: #000;
      }

      .cls-19 {
        opacity: 0.05;
      }

      .cls-20 {
        fill: #fbbebe;
      }

      .cls-21 {
        fill: url(#linear-gradient);
      }

      .cls-22 {
        fill: #575a89;
      }

      .cls-23 {
        fill: #cbceda;
      }

      .cls-25 {
        stroke: #3f3d56;
        stroke-width: 4px;
      }

      .cls-26 {
        fill: #57b894;
      }

      .cls-27 {
        fill: #656380;
      }

      .cls-28 {
        opacity: 0.2;
      }

      .cls-30 {
        font-size: 42px;
      }

      .cls-31 {
        fill: rgba(0,0,0,0.38);
        font-size: 25px;
        font-family: Roboto-Regular, Roboto;
      }

      .cls-32 {
        font-size: 29px;
      }

      .cls-33 {
        fill: #ff9800;
      }

      .cls-34 {
        fill: #d0cde1;
      }

      .cls-35 {
        fill: #ffb8b8;
      }

      .cls-36 {
        filter: url(#Rectangle_66);
      }

      .cls-37 {
        filter: url(#Rectangle_65);
      }

      .cls-38 {
        filter: url(#Rectangle_8);
      }

      .cls-39 {
        filter: url(#Rectangle_7);
      }
    </style>
    <filter id="Rectangle_7" x="37" y="200" width="472" height="298" filterUnits="userSpaceOnUse">
      <feOffset dy="3" input="SourceAlpha"/>
      <feGaussianBlur stdDeviation="3" result="blur"/>
      <feFlood flood-opacity="0.161"/>
      <feComposite operator="in" in2="blur"/>
      <feComposite in="SourceGraphic"/>
    </filter>
    <filter id="Rectangle_8" x="37" y="514" width="472" height="110" filterUnits="userSpaceOnUse">
      <feOffset dy="3" input="SourceAlpha"/>
      <feGaussianBlur stdDeviation="3" result="blur-2"/>
      <feFlood flood-opacity="0.161"/>
      <feComposite operator="in" in2="blur-2"/>
      <feComposite in="SourceGraphic"/>
    </filter>
    <filter id="Rectangle_65" x="37" y="629" width="472" height="271" filterUnits="userSpaceOnUse">
      <feOffset dy="3" input="SourceAlpha"/>
      <feGaussianBlur stdDeviation="3" result="blur-3"/>
      <feFlood flood-opacity="0.161"/>
      <feComposite operator="in" in2="blur-3"/>
      <feComposite in="SourceGraphic"/>
    </filter>
    <linearGradient id="linear-gradient" x1="-52.727" y1="1" x2="-52.727" gradientUnits="objectBoundingBox">
      <stop offset="0" stop-color="gray" stop-opacity="0.251"/>
      <stop offset="0.54" stop-color="gray" stop-opacity="0.122"/>
      <stop offset="1" stop-color="gray" stop-opacity="0.102"/>
    </linearGradient>
    <filter id="Rectangle_66" x="30" y="906" width="472" height="110" filterUnits="userSpaceOnUse">
      <feOffset dy="3" input="SourceAlpha"/>
      <feGaussianBlur stdDeviation="3" result="blur-4"/>
      <feFlood flood-opacity="0.161"/>
      <feComposite operator="in" in2="blur-4"/>
      <feComposite in="SourceGraphic"/>
    </filter>
    <clipPath id="clip-Web_1920_1">
      <rect width="1920" height="1080"/>
    </clipPath>
  </defs>
  <g id="Web_1920_1" data-name="Web 1920 – 1" class="cls-1">
    <rect class="cls-4" width="1920" height="1080"/>
    <rect id="Rectangle_1" data-name="Rectangle 1" class="cls-2" width="545" height="1080"/>
    <text id="Pilih_Dosen_Pembimbingmu" data-name="Pilih Dosen Pembimbingmu" class="cls-3" transform="translate(64 127)"><tspan x="0" y="0">Pilih Dosen Pembimbingmu</tspan></text>
    <g class="cls-39" transform="matrix(1, 0, 0, 1, 0, 0)">
      <rect id="Rectangle_7-2" data-name="Rectangle 7" class="cls-4" width="454" height="280" rx="21" transform="translate(46 206)"/>
    </g>
    <g class="cls-38" transform="matrix(1, 0, 0, 1, 0, 0)">
      <rect id="Rectangle_8-2" data-name="Rectangle 8" class="cls-4" width="454" height="92" rx="18" transform="translate(46 520)"/>
    </g>
    <g id="Group_1" data-name="Group 1" transform="translate(-25 7)">
      <circle id="Ellipse_4" data-name="Ellipse 4" class="cls-2" cx="26.947" cy="26.947" r="26.947" transform="translate(96 532)"/>
      <text id="_1" data-name="1" class="cls-5" transform="translate(116.621 566.248)"><tspan x="0" y="0">1</tspan></text>
    </g>
    <text id="Registrasi_dengan_mengisi_form_disamping_dan_klik_tombol_Register" data-name="Registrasi dengan mengisi form disamping dan klik tombol Register" class="cls-6" transform="translate(150 533)"><tspan x="0" y="22">Registrasi dengan mengisi form </tspan><tspan x="0" y="52">disamping dan klik tombol </tspan><tspan class="cls-7" y="52">Register</tspan></text>
    <g id="undraw_arrived_f58d" transform="translate(94 214)">
      <circle id="Ellipse_25" data-name="Ellipse 25" class="cls-8" cx="10.652" cy="10.652" r="10.652" transform="translate(237.525 8.309)"/>
      <path id="Path_151" data-name="Path 151" class="cls-9" d="M827.75,116.04s-1.541,19.4-3.39,19.4,21.57-.913,21.57-.913-9.86-12.783-4.93-16.891S827.75,116.04,827.75,116.04Z" transform="translate(-587.1 -90.581)"/>
      <path id="Path_152" data-name="Path 152" class="cls-10" d="M827.75,116.04s-1.541,19.4-3.39,19.4,21.57-.913,21.57-.913-9.86-12.783-4.93-16.891S827.75,116.04,827.75,116.04Z" transform="translate(-587.1 -90.581)"/>
      <path id="Path_153" data-name="Path 153" class="cls-11" d="M503.6,421.187a92.622,92.622,0,1,1,65.494-27.128A92.622,92.622,0,0,1,503.6,421.187Zm0-184.284a91.662,91.662,0,1,0,91.662,91.662A91.766,91.766,0,0,0,503.6,236.9Z" transform="translate(-306.039 -172.632)"/>
      <path id="Path_154" data-name="Path 154" class="cls-8" d="M828.666,250.335,817.9,253.416l15.039-.686a13.243,13.243,0,0,1,9.285,3.124c2.679,2.32,4.839,6,2.759,11.438a140.582,140.582,0,0,1-10.558,21.116l-4.159,8s-8.638,1.28-8.958-1.28,0-3.839,1.6-5.119a7.837,7.837,0,0,0,2.56-5.119c0-1.28-.32-2.56.64-3.2s1.28-1.6,1.28-3.519,5.55-10.357,5.55-10.357-11.629-4.041-16.637-.64-15.148,18.355-15.148,18.355a9.629,9.629,0,0,0-1.653,2.349,8.3,8.3,0,0,1-2.091,2.6c-.93.818-.073,3.07.225,3.368.32.32,3.519,13.117,3.519,13.117s3.519,6.079-.32,6.4-7.359.64-7.679,0a17.384,17.384,0,0,0-1.28-2.559c-.96-1.6,0-5.119,0-5.119s-9.278-11.838-6.4-19.2,8.958-24,8.958-24l9.278-3.839,16.957-6.079Z" transform="translate(-560.349 -182.426)"/>
      <path id="Path_155" data-name="Path 155" class="cls-12" d="M674.2,116.27l-13.117-2.56s-3.2-10.878-7.039-9.6,2.56,12.158,2.56,12.158l18.237,8.318Z" transform="translate(-470.512 -82.914)"/>
      <path id="Path_156" data-name="Path 156" class="cls-12" d="M954.372,176.335l5.759,7.359s8.318-.32,5.759,4.159-8.318,1.92-8.638.96-9.6-9.278-9.6-9.278Z" transform="translate(-671.018 -132.101)"/>
      <path id="Path_157" data-name="Path 157" class="cls-2" d="M762.11,138.484l-8.318,6.4-5.119-7.679L709,134.965v13.117c9.763-2.819,18.75-3.692,25.915,0,9.069,12.076,11.064,25.189,5.328,39.436l46.822-16.4c-14.033-5.226-20.548-12.8-18.556-23.036l16.317,5.759,9.918-7.359C785.874,140.515,772.675,136.771,762.11,138.484Z" transform="translate(-508.719 -103.967)"/>
      <ellipse id="Ellipse_26" data-name="Ellipse 26" class="cls-11" cx="165.408" cy="12.478" rx="165.408" ry="12.478" transform="translate(0 238.624)"/>
      <ellipse id="Ellipse_27" data-name="Ellipse 27" class="cls-10" cx="111.818" cy="8.318" rx="111.818" ry="8.318" transform="translate(7.359 242.463)"/>
      <path id="Path_158" data-name="Path 158" class="cls-8" d="M1017.88,735.642c-1.066,9.339,4.676,17.664,4.676,17.664s7.469-6.817,8.535-16.156-4.676-17.664-4.676-17.664S1018.945,726.3,1017.88,735.642Z" transform="translate(-718.686 -501.478)"/>
      <path id="Path_159" data-name="Path 159" class="cls-2" d="M1000.9,741.235c3.842,8.579.888,18.25.888,18.25s-9.182-4.237-13.024-12.816-.888-18.25-.888-18.25S997.06,732.656,1000.9,741.235Z" transform="translate(-697.636 -507.552)"/>
      <circle id="Ellipse_28" data-name="Ellipse 28" class="cls-13" cx="35.851" cy="35.851" r="35.851" transform="translate(164.289 178.907)"/>
      <path id="Path_160" data-name="Path 160" class="cls-2" d="M317.143,465.236l-8.832,22.079-31.936.256-10.4.084-24.689.2-10.4.084-24.689.2-10.4.084-24.689.2-10.4.084-16.666.132-3.224-6.6-4.182-8.545-2.31-4.729L133,465.236l7.927-25.1a12.1,12.1,0,0,1,11.539-8.456H296.68a12.1,12.1,0,0,1,11.4,8.046l.918,2.588Z" transform="translate(-117.003 -305.748)"/>
      <rect id="Rectangle_45" data-name="Rectangle 45" class="cls-2" width="184.143" height="46.367" transform="translate(15.997 159.488)"/>
      <rect id="Rectangle_46" data-name="Rectangle 46" class="cls-10" width="184.143" height="46.367" transform="translate(15.997 159.488)"/>
      <rect id="Rectangle_47" data-name="Rectangle 47" class="cls-11" width="5.432" height="5.432" transform="translate(197.424 95.798)"/>
      <rect id="Rectangle_48" data-name="Rectangle 48" class="cls-11" width="5.432" height="5.432" transform="translate(212.09 212.042)"/>
      <rect id="Rectangle_49" data-name="Rectangle 49" class="cls-13" width="117.905" height="148.374" transform="translate(48.895 99.652)"/>
      <rect id="Rectangle_50" data-name="Rectangle 50" class="cls-11" width="34.444" height="4.857" transform="translate(73.624 110.25)"/>
      <rect id="Rectangle_51" data-name="Rectangle 51" class="cls-14" width="103.774" height="2.208" transform="translate(55.519 130.122)"/>
      <rect id="Rectangle_52" data-name="Rectangle 52" class="cls-14" width="103.774" height="2.208" transform="translate(55.519 137.187)"/>
      <rect id="Rectangle_53" data-name="Rectangle 53" class="cls-14" width="103.774" height="2.208" transform="translate(55.519 144.252)"/>
      <rect id="Rectangle_54" data-name="Rectangle 54" class="cls-14" width="103.774" height="2.208" transform="translate(55.519 151.318)"/>
      <rect id="Rectangle_55" data-name="Rectangle 55" class="cls-14" width="103.774" height="2.208" transform="translate(55.519 158.383)"/>
      <rect id="Rectangle_56" data-name="Rectangle 56" class="cls-14" width="103.774" height="2.208" transform="translate(55.519 165.449)"/>
      <path id="Path_161" data-name="Path 161" class="cls-2" d="M254.377,378.367a7.507,7.507,0,1,1,7.507-7.507A7.507,7.507,0,0,1,254.377,378.367Zm0-14.131A6.624,6.624,0,1,0,261,370.86a6.624,6.624,0,0,0-6.624-6.624Z" transform="translate(-194.442 -259.285)"/>
      <path id="Path_162" data-name="Path 162" class="cls-11" d="M234.143,590.787H50V498.495l23.846,18.547,137.334-.883,22.963-17.663Z" transform="translate(-34.003 -339.008)"/>
      <rect id="Rectangle_57" data-name="Rectangle 57" class="cls-13" width="34.444" height="4.857" transform="translate(25.491 230.363)"/>
      <path id="Path_163" data-name="Path 163" class="cls-4" d="M211.011,713.269a3.839,3.839,0,1,1,3.839-3.839,3.839,3.839,0,0,1-3.839,3.839Zm0-7.039a3.2,3.2,0,1,0,3.2,3.2A3.2,3.2,0,0,0,211.011,706.231Z" transform="translate(-167.445 -492.028)"/>
      <path id="Path_164" data-name="Path 164" class="cls-8" d="M901.839,388.73s1.92,7.359,2.56,7.679,7.679,6.4,2.879,7.359-8.318.64-9.278-.32-.64-1.92-2.24-2.24-4.479-1.28-4.159-3.519,1.92-8.318,2.879-8.958S901.839,388.73,901.839,388.73Z" transform="translate(-632.882 -276.35)"/>
      <path id="Path_165" data-name="Path 165" class="cls-8" d="M810.118,440.335a5.471,5.471,0,0,1,1.28,6.4c-1.6,4.159-3.839,8.638-3.839,8.638s-2.56,8-6.719,6.719a4.536,4.536,0,0,1-2.942-3.437,8.221,8.221,0,0,1,1.162-6.69l2.42-3.63,2.56-6.719Z" transform="translate(-568.996 -311.638)"/>
      <path id="Path_166" data-name="Path 166" class="cls-8" d="M780.307,477.808c5.735,0,12.831-1.9,19.746-8.767,16.928-16.812,33.01-18.5,33.171-18.514l-.06-.637c-.163.015-16.473,1.725-33.562,18.7-8.781,8.721-17.845,9.255-23.9,8.167a29.871,29.871,0,0,1-11.2-4.513l-.378.516a30.537,30.537,0,0,0,11.437,4.622,26.71,26.71,0,0,0,4.745.429Z" transform="translate(-546.207 -318.136)"/>
      <circle id="Ellipse_29" data-name="Ellipse 29" class="cls-8" cx="3.839" cy="3.839" r="3.839" transform="translate(274.556 138.135)"/>
      <circle id="Ellipse_30" data-name="Ellipse 30" class="cls-8" cx="3.839" cy="3.839" r="3.839" transform="translate(247.361 156.052)"/>
      <circle id="Ellipse_31" data-name="Ellipse 31" class="cls-12" cx="7.677" cy="7.677" r="7.677" transform="translate(239.637 17.315)"/>
      <path id="Path_167" data-name="Path 167" class="cls-8" d="M866.711,38.078a5.823,5.823,0,0,1-3.36,2.31c-2.349.629-.019,4.159-.019,4.159a2.174,2.174,0,0,1,.375-2.643C864.929,40.544,866.9,39.615,866.711,38.078Z" transform="translate(-612.974 -38.078)"/>
      <circle id="Ellipse_32" data-name="Ellipse 32" class="cls-8" cx="2.969" cy="2.969" r="2.969" transform="translate(246.973 4.347)"/>
      <path id="Path_168" data-name="Path 168" class="cls-11" d="M857.95,62.051a21.016,21.016,0,0,0-8.523-1.062l.284-2.076a16.287,16.287,0,0,0,8.523,1.062Z" transform="translate(-604.218 -52.247)"/>
      <path id="Path_169" data-name="Path 169" class="cls-8" d="M831.3,76.044a17.479,17.479,0,0,1-10.086,6.933c-7.053,1.889-.058,12.487-.058,12.487s-2.544-3.854,1.125-7.935S831.852,80.657,831.3,76.044Z" transform="translate(-582.888 -63.898)"/>
      <path id="Path_170" data-name="Path 170" class="cls-8" d="M860.023,75.086s2.914,6.929,6.112,7.584,2.956,11.6-2.046,13.246c0,0,3.648-6.419.53-10.723S859.531,77.485,860.023,75.086Z" transform="translate(-611.373 -63.246)"/>
    </g>
    <g class="cls-37" transform="matrix(1, 0, 0, 1, 0, 0)">
      <rect id="Rectangle_65-2" data-name="Rectangle 65" class="cls-4" width="454" height="253" rx="21" transform="translate(46 635)"/>
    </g>
    <g id="undraw_online_friends_x73e" transform="translate(53 664.059)">
      <ellipse id="Ellipse_33" data-name="Ellipse 33" class="cls-11" cx="220" cy="11.518" rx="220" ry="11.518" transform="translate(0 182.938)"/>
      <path id="Path_174" data-name="Path 174" class="cls-2" d="M172,29.5H280.44V205.109H180.262A8.262,8.262,0,0,1,172,196.846Z" transform="translate(-102.404 -17.618)"/>
      <path id="Path_175" data-name="Path 175" class="cls-11" d="M520.46,218.138v4.69H183v-4.69a8.258,8.258,0,0,1,8.263-8.258H512.2a8.259,8.259,0,0,1,8.263,8.258Z" transform="translate(-113.606 -207.098)"/>
      <circle id="Ellipse_36" data-name="Ellipse 36" class="cls-2" cx="2.428" cy="2.428" r="2.428" transform="translate(75.665 7.026)"/>
      <circle id="Ellipse_37" data-name="Ellipse 37" class="cls-2" cx="2.428" cy="2.428" r="2.428" transform="translate(81.735 7.026)"/>
      <circle id="Ellipse_38" data-name="Ellipse 38" class="cls-2" cx="2.428" cy="2.428" r="2.428" transform="translate(87.804 7.026)"/>
      <path id="Path_176" data-name="Path 176" class="cls-15" d="M347.5,429.38" transform="translate(-211.545 -337.783)"/>
      <path id="Path_177" data-name="Path 177" class="cls-15" d="M333.5,428.38" transform="translate(-203.21 -337.187)"/>
      <rect id="Rectangle_59" data-name="Rectangle 59" class="cls-16" width="140.406" height="4.451" rx="1.24" transform="translate(247.025 37.624)"/>
      <rect id="Rectangle_60" data-name="Rectangle 60" class="cls-2" width="29.538" height="10.116" rx="1.24" transform="translate(355.87 46.121)"/>
      <rect id="Rectangle_61" data-name="Rectangle 61" class="cls-16" width="140.406" height="4.451" rx="1.24" transform="translate(247.025 91.747)"/>
      <rect id="Rectangle_62" data-name="Rectangle 62" class="cls-2" width="29.538" height="10.116" rx="1.24" transform="translate(355.87 100.244)"/>
      <circle id="Ellipse_39" data-name="Ellipse 39" class="cls-11" cx="20.037" cy="20.037" r="20.037" transform="translate(196.516 81.016)"/>
      <path id="Path_178" data-name="Path 178" class="cls-17" d="M553.3,448.292a.563.563,0,0,1-.085.133,12.548,12.548,0,0,1-.708,1.048,19.963,19.963,0,0,1-8.8,6.858c-.348.146-.7.279-1.064.4a7.105,7.105,0,0,1-.923-.886A6.924,6.924,0,0,1,540.1,452.5a8.487,8.487,0,0,1-1.618.154,1.079,1.079,0,0,1-.162,0c-4.168-.073-7.745-3.124-9.343-7.477l-.065-.186a15.129,15.129,0,0,1-.316-8.8h0c.02-.1.053-.194.081-.287,1.368-4.7,4.977-8.121,9.27-8.392h.927c5.438.2,9.816,5.458,10.019,12.038a6.988,6.988,0,0,1,3.079,6.846A7.153,7.153,0,0,1,553.3,448.292Z" transform="translate(-319.063 -336.669)"/>
      <path id="Path_179" data-name="Path 179" class="cls-10" d="M553.392,448.366a12.542,12.542,0,0,1-.708,1.048,6.618,6.618,0,0,0-1.08-1.436,7.611,7.611,0,0,0,.073-1.007,6.984,6.984,0,0,0-3.152-5.839c-.222-6.717-4.791-12.082-10.387-12.082-4,0-7.465,2.727-9.209,6.733-.045.105-.085.206-.134.316h0c-.146.348-.275.7-.4,1.068a14.831,14.831,0,0,1,.595-2.177l.057-.057c1.558-4.293,5.038-7.34,9.124-7.522h.927c5.361.324,9.654,5.56,9.861,12.07a6.976,6.976,0,0,1,3.087,6.846A6.9,6.9,0,0,1,553.392,448.366Z" transform="translate(-319.242 -336.61)"/>
      <path id="Path_180" data-name="Path 180" class="cls-12" d="M536.8,461.021a2.631,2.631,0,0,1-.138,1.214c-.239.554-.809,1.052-.651,1.619a1.242,1.242,0,0,0,.874.7c1.744.591,3.642.239,5.487.32a17.707,17.707,0,0,0,1.849.065,2.944,2.944,0,0,0,1.715-.6,14.687,14.687,0,0,1-2.7-1.7,3.028,3.028,0,0,1-.546-.522,3.2,3.2,0,0,1-.473-1.853v-1.926c-1.319,0-2.634-.02-3.953-.02-.4,0-1.712-.1-1.861.356-.073.227.21.894.255,1.149A11.457,11.457,0,0,1,536.8,461.021Z" transform="translate(-323.762 -355.011)"/>
      <path id="Path_181" data-name="Path 181" class="cls-10" d="M536.8,461.021a2.631,2.631,0,0,1-.138,1.214c-.239.554-.809,1.052-.651,1.619a1.242,1.242,0,0,0,.874.7c1.744.591,3.642.239,5.487.32a17.707,17.707,0,0,0,1.849.065,2.944,2.944,0,0,0,1.715-.6,14.687,14.687,0,0,1-2.7-1.7,3.028,3.028,0,0,1-.546-.522,3.2,3.2,0,0,1-.473-1.853v-1.926c-1.319,0-2.634-.02-3.953-.02-.4,0-1.712-.1-1.861.356-.073.227.21.894.255,1.149A11.457,11.457,0,0,1,536.8,461.021Z" transform="translate(-323.762 -355.011)"/>
      <circle id="Ellipse_40" data-name="Ellipse 40" class="cls-12" cx="4.649" cy="4.649" r="4.649" transform="translate(211.098 96.129)"/>
      <path id="Path_182" data-name="Path 182" class="cls-2" d="M538,475.136a3.079,3.079,0,0,1-.045.4,12.3,12.3,0,0,1-.659,2.205,10.6,10.6,0,0,1-.615,1.408c-.174.312-.4.6-.591.9l-.267.433a5.918,5.918,0,0,0-.433.914,17.173,17.173,0,0,1-2.375.433,19.842,19.842,0,0,1-2.359.142,21.831,21.831,0,0,1-12.022-3.338s.473-.328.4-.4c0-.186-.02-.368-.02-.554a4.156,4.156,0,0,1,.231-1.408,2.834,2.834,0,0,1,.7-1.149c.4-.4.947-.656,1.38-1.044a4.1,4.1,0,0,0,1.129-1.962h0c.1-.324.174-.668.243-1a4.859,4.859,0,0,1,.372-1.315,1.188,1.188,0,0,1,.089-.154,1.582,1.582,0,0,1,.219-.287,4.734,4.734,0,0,1,1.424-.955c.441-.227,1.06-.4,1.367-.028v.028a5.715,5.715,0,0,1,.255.712c.247.51.935.575,1.493.562a47.347,47.347,0,0,0,5.9-.494l.947-.154c.684-.113,1.161.486,1.546,1.068A8.167,8.167,0,0,1,538,475.136Z" transform="translate(-313.431 -360.871)"/>
      <path id="Path_183" data-name="Path 183" class="cls-18" d="M529.365,486.18c-.433.1-.684.534-.886.931a3.6,3.6,0,0,0-.482,2.161,3.051,3.051,0,0,0,.093.878,1.166,1.166,0,0,0,.51.7" transform="translate(-318.998 -371.6)"/>
      <ellipse id="Ellipse_41" data-name="Ellipse 41" class="cls-17" cx="2.565" cy="5.199" rx="2.565" ry="5.199" transform="translate(211.265 98.637) rotate(-75.66)"/>
      <path id="Path_184" data-name="Path 184" class="cls-10" d="M539.744,442.692c-2.472-.631-4.3-2.023-4.451-3.3a1.294,1.294,0,0,0-.243.49c-.352,1.372,1.618,3.059,4.4,3.771s5.321.174,5.665-1.214a1.305,1.305,0,0,0,.032-.469C544.405,442.987,542.168,443.311,539.744,442.692Z" transform="translate(-323.183 -343.742)"/>
      <path id="Path_185" data-name="Path 185" class="cls-12" d="M558.773,483.93c0,.7,0,1.4-.045,2.1-.348.146-.7.279-1.064.4a14.843,14.843,0,0,1-1.619.461,17.164,17.164,0,0,1-2.375.433,27.765,27.765,0,0,1-.3-4.989h0a8.035,8.035,0,0,1,1.3-3.642,3.111,3.111,0,0,1,1.177-1.137,1.449,1.449,0,0,1,1.55.121,2.216,2.216,0,0,1,.558,1.032,17.124,17.124,0,0,1,.656,2.327,2.131,2.131,0,0,0,.04.267A16.055,16.055,0,0,1,558.773,483.93Z" transform="translate(-334.087 -366.368)"/>
      <path id="Path_198" data-name="Path 198" class="cls-19" d="M535.569,632.248v.534a.115.115,0,0,0,0,.032h0l-.376-.085a1.245,1.245,0,0,1,0-.214,2.614,2.614,0,0,1,.9-1.979.6.6,0,0,1,.125-.1,2.39,2.39,0,0,1,.728-.4,2.173,2.173,0,0,1,.761-.146.466.466,0,0,1,.105,0,1.54,1.54,0,0,1,.194,0h-.134a2.578,2.578,0,0,0-1.618.809.861.861,0,0,0-.126.146A2.59,2.59,0,0,0,535.569,632.248Z" transform="translate(-323.29 -457.156)"/>
      <path id="Path_200" data-name="Path 200" class="cls-19" d="M559.306,632.135c-.113.049-.235.089-.352.13h0a2.557,2.557,0,0,0-.72-1.538l-.121-.121a2.658,2.658,0,0,0-1.449-.659h-.133a1.432,1.432,0,0,1,.186,0,.5.5,0,0,1,.109,0,2.372,2.372,0,0,1,.765.146,2.6,2.6,0,0,1,.554.267.481.481,0,0,1,.121.089,2.578,2.578,0,0,1,1.04,1.687Z" transform="translate(-335.996 -457.192)"/>
      <path id="Path_203" data-name="Path 203" class="cls-11" d="M497.17,289.495a19.989,19.989,0,0,0,2.428,9.59c.182.328.368.655.575.975a.588.588,0,0,0,.089.134,11.9,11.9,0,0,0,.724,1.036,19.206,19.206,0,0,0,2.889,3.193,7.641,7.641,0,0,0,.631.542,17.987,17.987,0,0,0,2.2,1.574l.121.081a21.785,21.785,0,0,0,2.282,1.19l.676.279c.222.093.433.182.664.255.113.045.231.085.352.125h.057q.368.133.753.243l.186.045c.227.069.457.129.684.174.308.081.611.15.927.206.473.093.963.174,1.449.231h0a19.478,19.478,0,0,0,2.343.138h.239a18.642,18.642,0,0,0,3.237-.3,1.5,1.5,0,0,0,.194-.032c.2-.032.4-.073.595-.121h0c.129-.024.247-.053.376-.085a11.466,11.466,0,0,0,1.182-.32c.239-.077.473-.15.708-.231.473-.166.947-.344,1.4-.546a1.562,1.562,0,0,0,.206-.085l.089-.04a18.457,18.457,0,0,0,1.748-.9c.481-.275.951-.575,1.4-.89h.028a1.642,1.642,0,0,0,.21-.146,20.033,20.033,0,1,0-31.646-16.307Z" transform="translate(-300.654 -242.56)"/>
      <path id="Path_204" data-name="Path 204" class="cls-2" d="M547.437,335.2a1.861,1.861,0,0,1,.587.991,2.538,2.538,0,0,1-1.72-.4,21.938,21.938,0,0,0-5.289-1.7.81.81,0,0,1-.4-.154.688.688,0,0,1,.024-.85c.2-.21.583-.182.858-.194a7.814,7.814,0,0,1,5.944,2.3Z" transform="translate(-326.438 -280.326)"/>
      <path id="Path_205" data-name="Path 205" class="cls-20" d="M538.3,331.892a2.428,2.428,0,0,1-1.339,1.347c-.328.117-.68.138-1.011.231a1.12,1.12,0,0,0-.785.619,1.328,1.328,0,0,0-.061.437,9.412,9.412,0,0,0,.465,4.127,9.04,9.04,0,0,0,2.238,2.812,9.486,9.486,0,0,0,3.443,2.4,2.583,2.583,0,0,0,2.363-.222,3.511,3.511,0,0,0,.659-.765,6.976,6.976,0,0,0,1.307-6.466.364.364,0,0,0-.1-.243.38.38,0,0,0-.283-.049,1.667,1.667,0,0,1-1.687-.971,2.536,2.536,0,0,1-.093-.89l.028-1.732a1.468,1.468,0,0,0-.065-.55,1.384,1.384,0,0,0-.724-.627,17.9,17.9,0,0,0-2.946-1.161c-.445-.129-.785-.348-.983.129S538.535,331.39,538.3,331.892Z" transform="translate(-323.225 -278.629)"/>
      <path id="Path_206" data-name="Path 206" class="cls-10" d="M538.3,331.892a2.428,2.428,0,0,1-1.339,1.347c-.328.117-.68.138-1.011.231a1.12,1.12,0,0,0-.785.619,1.328,1.328,0,0,0-.061.437,9.412,9.412,0,0,0,.465,4.127,9.04,9.04,0,0,0,2.238,2.812,9.486,9.486,0,0,0,3.443,2.4,2.583,2.583,0,0,0,2.363-.222,3.511,3.511,0,0,0,.659-.765,6.976,6.976,0,0,0,1.307-6.466.364.364,0,0,0-.1-.243.38.38,0,0,0-.283-.049,1.667,1.667,0,0,1-1.687-.971,2.536,2.536,0,0,1-.093-.89l.028-1.732a1.468,1.468,0,0,0-.065-.55,1.384,1.384,0,0,0-.724-.627,17.9,17.9,0,0,0-2.946-1.161c-.445-.129-.785-.348-.983.129S538.535,331.39,538.3,331.892Z" transform="translate(-323.225 -278.629)"/>
      <circle id="Ellipse_45" data-name="Ellipse 45" class="cls-20" cx="5.284" cy="5.284" r="5.284" transform="translate(214.481 44.098)"/>
      <path id="Path_207" data-name="Path 207" class="cls-13" d="M536.969,353.425c.473.093.963.174,1.448.231h0a19.471,19.471,0,0,0,2.343.138H541a18.635,18.635,0,0,0,3.237-.3,1.477,1.477,0,0,0,.194-.032c.2-.032.4-.073.595-.121h0c.13-.024.247-.053.376-.085a11.45,11.45,0,0,0,1.182-.32c.239-.077.473-.15.708-.231.473-.166.947-.344,1.4-.546a9.932,9.932,0,0,1-.287-1.1,12.112,12.112,0,0,1-.154-2.4c0-.643.029-1.283,0-1.922a4.728,4.728,0,0,0-.222-1.53,1.955,1.955,0,0,0-.987-1.145,2.723,2.723,0,0,0-2.1-.105,1.433,1.433,0,0,0-.194.125,1.008,1.008,0,0,0-.291.4c-.194.486-.4.975-.591,1.461a4.634,4.634,0,0,1-.473.963,2.387,2.387,0,0,1-2.618.862,1.556,1.556,0,0,1-.174-.069c-.809-.328-1.55-1.036-2.4-.846a1.594,1.594,0,0,0-1.056.914.411.411,0,0,0-.028.073,4.108,4.108,0,0,0-.291,1.327A17.693,17.693,0,0,0,536.969,353.425Z" transform="translate(-324.224 -286.826)"/>
      <path id="Path_208" data-name="Path 208" class="cls-2" d="M513.74,342.038a7.621,7.621,0,0,0,.631.542,17.981,17.981,0,0,0,2.2,1.574l.121.081a21.757,21.757,0,0,0,2.282,1.19l.676.279c.222.093.433.182.663.255.113.044.231.085.352.125h.057q.368.133.753.243l.186.045a7.054,7.054,0,0,0,.684.174c.307.081.611.15.927.206.473.093.963.174,1.449.231h0a19.5,19.5,0,0,0,2.343.138h.239a18.639,18.639,0,0,0,3.237-.3,1.5,1.5,0,0,0,.194-.032c.2-.032.4-.073.595-.121h0c.129-.024.247-.053.376-.085a11.451,11.451,0,0,0,1.182-.32c.239-.077.473-.15.708-.231.473-.166.947-.344,1.4-.546a1.559,1.559,0,0,0,.206-.085l.089-.04a18.42,18.42,0,0,0,1.748-.9,30.3,30.3,0,0,0,1.012-3.237.409.409,0,0,1,0-.065c-.631-1.121-1.19-2.286-1.817-3.407a2.6,2.6,0,0,0-2.084-1.57,5.1,5.1,0,0,0-1.355-.251,5.092,5.092,0,0,1-.777-.134c-.526-.117-1.109-.231-1.3,0h0a.069.069,0,0,0-.028.053,1.109,1.109,0,0,0,.093.809c.089.255.206.522.267.741a1.115,1.115,0,0,1,.061.324,11.045,11.045,0,0,1-.049,1.42c-.113.688-.494,1.295-.672,1.962-.081.316-.121.643-.174.963a10.362,10.362,0,0,1-.562,2.112,1.438,1.438,0,0,1-.206.4c-.332.4-.882.251-1.4.174-.38-.324-.36-.9-.4-1.384a7.282,7.282,0,0,0-.736-2.339l-.138-.291c-.4-.838-.809-1.671-1.19-2.513a4.433,4.433,0,0,1-.591-3.318c.117-.324.308-.611.437-.923a1.008,1.008,0,0,0,.053-.142,1.342,1.342,0,0,0,.061-.368.808.808,0,0,0-.186-.627.321.321,0,0,0-.081-.085.128.128,0,0,0-.049-.032.963.963,0,0,0-.882-.04,3.71,3.71,0,0,0-.465.206,22.265,22.265,0,0,0-2.294,1.485,1.149,1.149,0,0,0-.478.554,4.093,4.093,0,0,1-.077.457c-.113.287-.457.372-.752.437a9.214,9.214,0,0,0-5.875,4.317,4.747,4.747,0,0,0-.5,1.113A4.638,4.638,0,0,0,513.74,342.038Z" transform="translate(-310.52 -280.164)"/>
      <path id="Path_209" data-name="Path 209" class="cls-17" d="M544.6,310.006a3.839,3.839,0,0,1-2.885.745l.032-.4-1.436.514a3.807,3.807,0,0,0,.943-1.012.643.643,0,0,0-.7-.044,1.455,1.455,0,0,0-.522.518,4.718,4.718,0,0,0-.522,4.2.931.931,0,0,1-.927-.061,1.619,1.619,0,0,1-.595-.753.787.787,0,0,0-.376-.482.4.4,0,0,0-.453.2.858.858,0,0,0-.1.514c.028.4.332.809.4,1.214s.672.728.356,1a4.616,4.616,0,0,1-1.149.271.5.5,0,0,1-.332-.328,14,14,0,0,1-.4-2.274,5.586,5.586,0,0,0-.834-1.655,2.315,2.315,0,0,0-.316-.425,1.063,1.063,0,0,1-.307-.352c-.053-.146.048-.36.2-.332a6.318,6.318,0,0,0-.809-.664c.283-.356.558-.72.809-1.084.093-.129.19-.287.121-.429a.433.433,0,0,0-.162-.158l-.716-.486c0-.34.676-.214.781-.534a.437.437,0,0,0,0-.259l-.251-.914.955.433a.648.648,0,0,0,.364.085c.251-.036.372-.332.4-.587a1.666,1.666,0,0,1,.1-.753h1.295a.846.846,0,0,0-.158-.611l3.188-.178a4.45,4.45,0,0,1,1.619.113,1.272,1.272,0,0,0,.538.121.322.322,0,0,0,.316-.368,5.79,5.79,0,0,1,1.3,1,1.252,1.252,0,0,0,.368.3.4.4,0,0,0,.449-.053c.089-.093.13-.259.259-.267s.146.065.194.125a3.161,3.161,0,0,1,.441.769,2.759,2.759,0,0,0,.668-.178.72.72,0,0,0-.121.809c.105.271.3.5.429.761a3.155,3.155,0,0,1,.255.882c.065.38.065.862-.271,1.048a.906.906,0,0,1-.931-.21C545.337,309.229,545.2,309.391,544.6,310.006Z" transform="translate(-322.505 -263.605)"/>
      <path id="Path_210" data-name="Path 210" class="cls-2" d="M515.3,354.534a17.989,17.989,0,0,0,2.2,1.574l.121.081a21.753,21.753,0,0,0,2.282,1.19l.676.279c.223.093.433.182.664.255.113.044.231.085.352.125h0c-.141-.4-.235-.809-.36-1.214a6.855,6.855,0,0,0-1.736-2.857c-.7-.7-1.8-1.712-2.832-1.1a3.235,3.235,0,0,0-.809.781,3.609,3.609,0,0,0-.5.74A1.006,1.006,0,0,0,515.3,354.534Z" transform="translate(-311.448 -292.118)"/>
      <path id="Path_211" data-name="Path 211" class="cls-2" d="M562.85,357.31c.473-.166.947-.344,1.4-.546a1.56,1.56,0,0,0,.206-.085l.089-.04a18.44,18.44,0,0,0,1.748-.9c.482-.275.951-.575,1.4-.89h.028a8.418,8.418,0,0,1,0-1.355,1.062,1.062,0,0,0-.028-.453,1.083,1.083,0,0,0-.227-.312,1.848,1.848,0,0,1-.166-.19c-.457-.514-.829-1.068-1.619-.987a2.428,2.428,0,0,0-1.8,1.517,1.4,1.4,0,0,0-.089.227,15.72,15.72,0,0,0-.526,2.149c-.105.449-.239.882-.336,1.331C562.911,356.938,562.874,357.124,562.85,357.31Z" transform="translate(-339.758 -291.439)"/>
      <path id="Path_212" data-name="Path 212" class="cls-21" d="M337.168,660.43h0l-.178.1Z" transform="translate(-205.288 -475.343)"/>
      <path id="Path_213" data-name="Path 213" class="cls-22" d="M274.821,559.39c-1.562,4.5.263,11.8,1.109,15.06a45.31,45.31,0,0,1,1.109,7.17,15.111,15.111,0,0,0,5.738-.13l-1.368-6.713c.975-3.978,0-14.6,0-14.6a25.534,25.534,0,0,0,2.428-10.367c.19-6.158,1.708-8.149,1.756-8.214h0c3.128,1.619,7.105,19.1,7.105,19.1-.328,4.236.065,10.755,1.368,14.275a17.7,17.7,0,0,1,.979,6.976,2.149,2.149,0,0,0,1.772.34,12.147,12.147,0,0,0,4.095-1.906s-.716-19.018-1.238-19.75,0-4.823,0-4.823l-.85-6.652s.13-11.277-1.109-13.231a13.488,13.488,0,0,1-1.364-5.438v-.19l-1.886-2.262s-18.253-1.368-19.624,0a3.931,3.931,0,0,0-.668,2.064,46.706,46.706,0,0,0,.057,7.781s.546,3.585,1.331,7.235a15.89,15.89,0,0,1,0,6.652A19.886,19.886,0,0,1,274.821,559.39Z" transform="translate(-167.797 -396.157)"/>
      <path id="Path_214" data-name="Path 214" class="cls-23" d="M278.252,665.211c.809,1.076,5.608.619,6.421.283.5-.2.461-1.141.328-2.1-.085-.615-.21-1.242-.263-1.7a15.4,15.4,0,0,1,.4-3.553s-1.076,1.141-1.335,0a1.246,1.246,0,0,0-.931-.882,2.428,2.428,0,0,0-1.691.105c-.85.364-2.262,1.149-2.023,2.209.356,1.5-.914,3.642-.914,3.642a1.618,1.618,0,0,0,0,2.023Z" transform="translate(-170.103 -473.392)"/>
      <path id="Path_215" data-name="Path 215" class="cls-10" d="M278.264,674.391c.809,1.076,5.608.619,6.421.283.5-.2.461-1.141.328-2.1a5.509,5.509,0,0,1-2.832.3,8.658,8.658,0,0,0-1.024-.032,23.314,23.314,0,0,1-3.112-.061A1.554,1.554,0,0,0,278.264,674.391Z" transform="translate(-170.115 -482.571)"/>
      <path id="Path_216" data-name="Path 216" class="cls-10" d="M309.655,579.7c-.328,4.236.065,10.755,1.368,14.275a17.7,17.7,0,0,1,.979,6.976,2.149,2.149,0,0,0,1.772.34c-.4-2.747-2.068-14.6-3.144-23.954a39.205,39.205,0,0,0-6.939-17.994l-1.141,1.254C305.678,562.225,309.655,579.7,309.655,579.7Z" transform="translate(-184.783 -415.157)"/>
      <path id="Path_217" data-name="Path 217" class="cls-20" d="M283.62,428.817l.809,3.913,3.9,6.551,4.807-2.052s6.535-6.846,2.428-7.825a3.549,3.549,0,0,1-1.364-.607,2.833,2.833,0,0,1-1.064-2.359,7.217,7.217,0,0,1,.668-2.8L285.392,421a13.7,13.7,0,0,1,.6,3.407c.065,2.29-.789,3.419-1.485,3.957A2.539,2.539,0,0,1,283.62,428.817Z" transform="translate(-173.513 -332.793)"/>
      <path id="Path_218" data-name="Path 218" class="cls-10" d="M288,421a13.7,13.7,0,0,1,.6,3.407,5.371,5.371,0,0,0,.49.518,6.615,6.615,0,0,0,4.572,1.841,6.526,6.526,0,0,0,2.056-.328,7.219,7.219,0,0,1,.668-2.8Z" transform="translate(-176.12 -332.793)"/>
      <path id="Path_219" data-name="Path 219" class="cls-20" d="M285.58,408.548a6.616,6.616,0,1,0,1.936-4.709,6.652,6.652,0,0,0-1.936,4.709Z" transform="translate(-174.68 -321.422)"/>
      <path id="Path_220" data-name="Path 220" class="cls-10" d="M283.62,439.647l.809,3.913,3.9,6.551,4.807-2.052s6.535-6.846,2.428-7.826a3.548,3.548,0,0,1-1.364-.607c.741,2.023-2.318,6.28-2.318,6.28-.356.522-1.173.194-1.173.194-1.974-.3-5.6-5.968-6.195-6.911A2.536,2.536,0,0,1,283.62,439.647Z" transform="translate(-173.513 -343.623)"/>
      <path id="Path_221" data-name="Path 221" class="cls-10" d="M274.31,530.069c1.157.263,7.562,1.683,9.99,1.327,2.675-.4,7.87-.651,7.87-.651s3.31.178,4.325-.287v-.19l-1.886-2.262s-18.253-1.368-19.625,0A3.934,3.934,0,0,0,274.31,530.069Z" transform="translate(-167.97 -396.14)"/>
      <path id="Path_222" data-name="Path 222" class="cls-11" d="M280.171,446.2s3.439-4.763,2.14-6.62l5.81,2.383s3.5-.425,4.758,4.795a9.112,9.112,0,0,1,.219,2.65,7.878,7.878,0,0,0,.955,3.961c1.436,2.869,1.109,9.452-1.825,10.116s-3.977.324-3.977.324.4,11.928,2.088,13.3-4.321,1.044-4.321,1.044-5.2.259-7.87.651-10.168-1.372-10.168-1.372,1.109-5.017,1.5-8.214,1.307-9.994,1.307-9.994l-6.652-9.007s-1.173-5.442,2.934-7.854a46.263,46.263,0,0,1,5.665-3.006s4.127,6.721,6.28,7.049C279,446.4,279.815,446.728,280.171,446.2Z" transform="translate(-161.817 -343.724)"/>
      <path id="Path_223" data-name="Path 223" class="cls-10" d="M319.683,460.94a9.769,9.769,0,0,1-.328,3c-.393.85-1.825,5.539-1.825,5.539h3.257s-1.76-1.89-1.619-2.8S319.683,460.94,319.683,460.94Z" transform="translate(-193.702 -356.573)"/>
      <path id="Path_224" data-name="Path 224" class="cls-20" d="M297.719,487.611s7.2-1.76,7.87-3.261,2.521-4.856,2.521-4.856l-.761-1.024-3.5,2.747s-4.172,3.326-6.13,3.642S297.719,487.611,297.719,487.611Z" transform="translate(-181.389 -367.009)"/>
      <path id="Path_225" data-name="Path 225" class="cls-19" d="M297.719,487.611s7.2-1.76,7.87-3.261,2.521-4.856,2.521-4.856l-.761-1.024-3.5,2.747s-4.172,3.326-6.13,3.642S297.719,487.611,297.719,487.611Z" transform="translate(-181.389 -367.009)"/>
      <path id="Path_226" data-name="Path 226" class="cls-20" d="M283.62,480.063v3.9h.627a18.258,18.258,0,0,1,8.862,2.295l1.177.651.316.178,2.023-4.552-1.89-1.7h-.1a11.275,11.275,0,0,1-3.31-.073,5.363,5.363,0,0,0-4.18-.534c-1.165.3-2.165,1.619-3.3,1.214Z" transform="translate(-173.513 -367.934)"/>
      <path id="Path_227" data-name="Path 227" class="cls-10" d="M266.153,456.055l-1.3,1.465v3.569s1.109,11.212,4.629,12.45,9.8-.716,9.8-.716,1.619-4.3.862-4.564-6.709-1.833-6.709-1.833.081-6.575-1.214-8.53c0,0,.85-6.13-2.084-6.26S266.153,456.055,266.153,456.055Z" transform="translate(-162.338 -351.032)"/>
      <path id="Path_228" data-name="Path 228" class="cls-11" d="M265.667,456.055l-1.307,1.465v3.569s1.109,11.212,4.629,12.45,9.792-.716,9.792-.716,1.619-4.3.866-4.564-6.713-1.833-6.713-1.833.085-6.575-1.214-8.53c0,0,.846-6.13-2.088-6.26S265.667,456.055,265.667,456.055Z" transform="translate(-162.046 -351.032)"/>
      <path id="Path_229" data-name="Path 229" class="cls-10" d="M287.394,411.392a2.578,2.578,0,0,1,.15-1.266.983.983,0,0,1,1.028-.6c.558.13.809.858,1.347,1.032a1.064,1.064,0,0,0,1.181-.611,3.068,3.068,0,0,0,.227-1.42v-1.618a2.808,2.808,0,0,1,.384-1.7,3.01,3.01,0,0,1,2.238-.809,1.874,1.874,0,0,1,1.275.514,1.659,1.659,0,0,0,1.343.477,1.165,1.165,0,0,0,.939-.809.036.036,0,0,1,0-.02,6.648,6.648,0,1,0-9.889,8.825A17.105,17.105,0,0,1,287.394,411.392Z" transform="translate(-174.669 -321.441)"/>
      <path id="Path_230" data-name="Path 230" class="cls-11" d="M291.519,399.226a1.173,1.173,0,0,0,.939-.809c.053-.21.04-.437.1-.643.154-.514.7-.781,1.064-1.169a2.612,2.612,0,0,0,.166-3,2.129,2.129,0,0,0-2.084-1.246c-.526.093-.983.469-1.517.5a3.171,3.171,0,0,1-1.453-.469,5.474,5.474,0,0,0-3.605-.32,2.067,2.067,0,0,0-.991.5,8.137,8.137,0,0,0-.526.74,4.129,4.129,0,0,1-2.666,1.1c-.967.174-2.064.558-2.383,1.493a3.935,3.935,0,0,0,.113,1.93.554.554,0,0,1-.024.4c-.15.251-.53.146-.809.206-.546.113-.688.809-.708,1.384-.024.643-.04,1.287-.053,1.93a1.89,1.89,0,0,0,.611,1.618l2.153,2.586c.955,1.149,1.966,2.484,1.776,3.965a.923.923,0,0,0,1.137-.664,2.929,2.929,0,0,0-.073-1.469,17.882,17.882,0,0,1-.34-2.545,2.577,2.577,0,0,1,.15-1.267.979.979,0,0,1,1.032-.6c.558.13.809.854,1.347,1.032a1.068,1.068,0,0,0,1.182-.611,3.067,3.067,0,0,0,.227-1.42v-1.618a2.745,2.745,0,0,1,.384-1.7,3.026,3.026,0,0,1,2.238-.809,1.914,1.914,0,0,1,1.275.514,1.647,1.647,0,0,0,1.339.449Z" transform="translate(-169.613 -315.471)"/>
      <path id="Path_231" data-name="Path 231" class="cls-10" d="M305.562,460.54l-2.023,8.388S301.912,468.916,305.562,460.54Z" transform="translate(-185.156 -356.334)"/>
      <path id="Path_232" data-name="Path 232" class="cls-10" d="M291.83,457.08s2.675,4.378,1.619,8.9l-.5.036S293.853,463.926,291.83,457.08Z" transform="translate(-178.401 -354.275)"/>
      <path id="Path_233" data-name="Path 233" class="cls-10" d="M282.46,517.958s-3.281-1.084-3.52,1.432C278.94,519.391,279.559,517.663,282.46,517.958Z" transform="translate(-170.726 -390.381)"/>
      <path id="Path_234" data-name="Path 234" class="cls-10" d="M310.322,482.53s.651,4.564-.522,6.389a14.246,14.246,0,0,0,5.746.781l.4-7.17Z" transform="translate(-189.099 -369.427)"/>
      <path id="Path_235" data-name="Path 235" class="cls-10" d="M310,488.119l.316.178,2.023-4.552-1.89-1.7h-.1C310.372,482.269,310.9,486.189,310,488.119Z" transform="translate(-189.219 -369.141)"/>
      <path id="Path_236" data-name="Path 236" class="cls-11" d="M310.322,482.05s.651,4.564-.522,6.389a14.335,14.335,0,0,0,5.746.781l2.282-7.17Z" transform="translate(-189.099 -369.141)"/>
      <path id="Path_237" data-name="Path 237" class="cls-23" d="M324.984,662.194a1.473,1.473,0,0,0,1.267,1.291,46.012,46.012,0,0,1,7.109,1.453c1.372.651,6.782.194,7.041-.457a1.024,1.024,0,0,0-.093-.781,2.076,2.076,0,0,0-.874-.943,2.641,2.641,0,0,0-.4-.174c-1.02-.34-2.942-1.06-3.464-1.817a22.018,22.018,0,0,1-3.083-3.237,1.566,1.566,0,0,0-1.254-.781c-.57-.024-1.214.263-1.465,1.513,0,0-3.128,1.784-3.973.218,0,0-.133,2.4-.651,3.063h0A.878.878,0,0,0,324.984,662.194Z" transform="translate(-198.133 -473.15)"/>
      <path id="Path_238" data-name="Path 238" class="cls-10" d="M324.987,669.258a1.473,1.473,0,0,0,1.266,1.291A46.012,46.012,0,0,1,333.363,672c1.372.651,6.782.194,7.041-.457a1.024,1.024,0,0,0-.093-.781,2.076,2.076,0,0,0-.874-.943c-.882.587-2.832,1.161-7.146.486a31.658,31.658,0,0,1-7.138-1.7h0A.878.878,0,0,0,324.987,669.258Z" transform="translate(-198.137 -480.214)"/>
      <g id="Group_15" data-name="Group 15" class="cls-24" transform="translate(107.449 79.523)">
        <path id="Path_239" data-name="Path 239" d="M280.768,404.539v-.028a6.235,6.235,0,0,1-.2-1.481,9.179,9.179,0,0,0,.174,1.2A.732.732,0,0,1,280.768,404.539Z" transform="translate(-279.145 -401.618)"/>
        <path id="Path_240" data-name="Path 240" d="M290.211,408.563a1.976,1.976,0,0,0-.162.749,2.254,2.254,0,0,1,.162-1.04.983.983,0,0,1,1.032-.6c.558.129.809.858,1.347,1.032a1.064,1.064,0,0,0,1.182-.611,3.06,3.06,0,0,0,.227-1.42v-1.619a2.808,2.808,0,0,1,.384-1.7,3.01,3.01,0,0,1,2.238-.809,1.873,1.873,0,0,1,1.275.514,1.659,1.659,0,0,0,1.343.478,1.161,1.161,0,0,0,.939-.809c.053-.21.04-.437.1-.643.154-.514.7-.781,1.064-1.169a2.1,2.1,0,0,0,.55-1.376,2.21,2.21,0,0,1-.55,1.671c-.364.4-.91.655-1.064,1.165-.061.21-.049.433-.1.643a1.165,1.165,0,0,1-.939.809,1.647,1.647,0,0,1-1.343-.481,1.893,1.893,0,0,0-1.275-.514,3.009,3.009,0,0,0-2.238.809,2.74,2.74,0,0,0-.384,1.7c0,.591,0,1.088,0,1.619a3.051,3.051,0,0,1-.227,1.416,1.056,1.056,0,0,1-1.182.611c-.546-.174-.789-.9-1.347-1.028A.975.975,0,0,0,290.211,408.563Z" transform="translate(-284.785 -399.54)"/>
        <path id="Path_241" data-name="Path 241" d="M277.118,416.779a2.544,2.544,0,0,0,.554.9l2.153,2.586c.906,1.088,1.865,2.347,1.792,3.739a6.385,6.385,0,0,0-1.792-3.447l-2.153-2.586a1.889,1.889,0,0,1-.611-1.618A1.637,1.637,0,0,0,277.118,416.779Z" transform="translate(-277.049 -409.548)"/>
        <path id="Path_242" data-name="Path 242" d="M289.437,433.662a1.494,1.494,0,0,0,.065-.352,1.81,1.81,0,0,1-.065.643.916.916,0,0,1-1.137.66,2.234,2.234,0,0,0,.02-.283A.927.927,0,0,0,289.437,433.662Z" transform="translate(-283.748 -419.646)"/>
      </g>
      <path id="Path_243" data-name="Path 243" class="cls-10" d="M340.008,660.15s-.68,1.214-3.148.142" transform="translate(-205.21 -475.177)"/>
      <path id="Path_244" data-name="Path 244" class="cls-10" d="M285.971,660.86s-2.128,2.509-4.811.809" transform="translate(-172.048 -475.599)"/>
      <path id="Path_245" data-name="Path 245" class="cls-10" d="M277.74,587.58s1.5.939,1.554,1.477-.777-.4-.777-.4Z" transform="translate(-170.012 -431.971)"/>
      <path id="Path_246" data-name="Path 246" class="cls-10" d="M276.27,605.39a3.131,3.131,0,0,0,1.853.724c1.125.049,1.032,1.513.3,1.076a18.441,18.441,0,0,1-2.149-1.8Z" transform="translate(-169.137 -442.574)"/>
      <path id="Path_247" data-name="Path 247" class="cls-10" d="M275.56,607.71s.724,3.549,1.311,2.865" transform="translate(-168.714 -443.955)"/>
      <path id="Path_248" data-name="Path 248" class="cls-25" d="M87.168,590.4c1.214-2.229-.166-4.961-1.736-6.948s-3.484-4.046-3.443-6.591c.061-3.642,3.925-5.794,7.012-7.724a33.985,33.985,0,0,0,6.3-5.062,9.308,9.308,0,0,0,1.934-2.59,10.5,10.5,0,0,0,.579-4.6q-.2-7.8-.769-15.574" transform="translate(-53.467 -404.423)"/>
      <path id="Path_249" data-name="Path 249" class="cls-26" d="M117.044,532.648A5.665,5.665,0,0,0,114.212,528l-1.271,2.513.036-3.043a5.665,5.665,0,1,0,4.071,5.183Z" transform="translate(-67.598 -396.044)"/>
      <path id="Path_250" data-name="Path 250" class="cls-26" d="M92.927,623.443a5.665,5.665,0,1,1,.275-4.572l-3.549,2.885,3.9-.9A5.665,5.665,0,0,1,92.927,623.443Z" transform="translate(-53.61 -448.403)"/>
      <path id="Path_251" data-name="Path 251" class="cls-26" d="M92.816,591.646a5.665,5.665,0,0,1-1.8-11.139l-.032,2.339L92.27,580.3h0a5.665,5.665,0,0,1,5.936,5.406,5.6,5.6,0,0,1-.243,1.938A5.665,5.665,0,0,1,92.816,591.646Z" transform="translate(-56.303 -427.632)"/>
      <path id="Path_252" data-name="Path 252" class="cls-26" d="M127.163,569.015a5.665,5.665,0,1,1,2.509-10.63l-1,2.751,2.068-1.983a5.665,5.665,0,0,1,1.833,3.921,5.579,5.579,0,0,1-.142,1.566A5.685,5.685,0,0,1,127.163,569.015Z" transform="translate(-76.863 -414.175)"/>
      <path id="Path_253" data-name="Path 253" class="cls-10" d="M116.318,538.73c-1.311.142-2.586.55-3.9.631a4.254,4.254,0,0,1-3.593-1.254,17.992,17.992,0,0,1-1.048-1.849,4.046,4.046,0,0,0-1.432-1.347,5.665,5.665,0,1,0,10.617,3.771Q116.642,538.693,116.318,538.73Z" transform="translate(-67.637 -400.612)"/>
      <path id="Path_254" data-name="Path 254" class="cls-10" d="M127.052,573.773a5.665,5.665,0,0,1-5.4-8.093,4.2,4.2,0,0,1,1.141,1.141,18.545,18.545,0,0,0,1.125,1.878,4.652,4.652,0,0,0,3.767,1.319c1.372-.061,2.695-.453,4.046-.579.19,0,.38-.029.575-.033A5.685,5.685,0,0,1,127.052,573.773Z" transform="translate(-76.753 -418.932)"/>
      <path id="Path_255" data-name="Path 255" class="cls-10" d="M92.977,596.586a5.665,5.665,0,0,1-5.45-8,4.6,4.6,0,0,1,1.214,1.153,19.025,19.025,0,0,0,1.234,1.914,5.242,5.242,0,0,0,4.018,1.408c1.449-.037,2.764-.372,4.16-.482A5.665,5.665,0,0,1,92.977,596.586Z" transform="translate(-56.464 -432.572)"/>
      <path id="Path_256" data-name="Path 256" class="cls-10" d="M92.7,628.783A5.672,5.672,0,0,1,82.35,624.15a5.5,5.5,0,0,1,1.246,1.113,24.709,24.709,0,0,0,1.521,2.023,7.073,7.073,0,0,0,4.706,1.655A24.284,24.284,0,0,0,92.7,628.783Z" transform="translate(-53.387 -453.743)"/>
      <path id="Path_257" data-name="Path 257" class="cls-27" d="M73.62,652.72s4.483-.117,5.819-1.1,6.879-2.108,7.227-.567,6.737,7.688,1.675,7.712-11.754-.809-13.106-1.619S73.62,652.72,73.62,652.72Z" transform="translate(-48.485 -469.308)"/>
      <path id="Path_258" data-name="Path 258" class="cls-28" d="M88.45,661.773c-5.062.044-11.758-.785-13.106-1.619-1.028-.627-1.436-2.873-1.574-3.9h-.15s.283,3.613,1.619,4.451,8.048,1.651,13.106,1.619c1.461,0,1.966-.53,1.938-1.3C90.092,661.478,89.554,661.765,88.45,661.773Z" transform="translate(-48.485 -472.855)"/>
    </g>
    <g class="cls-36" transform="matrix(1, 0, 0, 1, 0, 0)">
      <rect id="Rectangle_66-2" data-name="Rectangle 66" class="cls-4" width="454" height="92" rx="18" transform="translate(39 912)"/>
    </g>
    <g id="Group_16" data-name="Group 16" transform="translate(-32 399)">
      <circle id="Ellipse_4-2" data-name="Ellipse 4" class="cls-11" cx="26.947" cy="26.947" r="26.947" transform="translate(96 532)"/>
      <text id="_2" data-name="2" class="cls-5" transform="translate(116.621 566.248)"><tspan x="0" y="0">2</tspan></text>
    </g>
    <text id="Setelah_itu_kamu_akan_mendapatkan_2_dosen_pembimbingmu" data-name="Setelah itu kamu akan mendapatkan 2 dosen pembimbingmu" class="cls-29" transform="translate(143 925)"><tspan x="0" y="22">Setelah itu kamu akan mendapatkan </tspan><tspan x="0" y="52">2 dosen pembimbingmu</tspan></text>
    <g id="Group_17" data-name="Group 17" transform="translate(18 28)">
      <text id="Registrasi_Tugas_Akhir" data-name="Registrasi Tugas Akhir" class="cls-30" transform="translate(1027.813 267)"><tspan x="0" y="0">Registrasi Tugas Akhir</tspan></text>
      <g id="hint_text_3_light" transform="translate(944.436 485.211)">
        <rect id="text_path" class="cls-2" width="563.042" height="3.433" transform="translate(0 48.065)"/>
        <text id="hint_text" class="cls-31" transform="translate(0 26)"><tspan x="0" y="0">Nama Lengkap</tspan></text>
        <rect id="text_cursor_active" class="cls-2" width="1.717" height="34.332" transform="translate(0 1.717)"/>
      </g>
      <g id="hint_text_3_light-2" data-name="hint_text_3_light" transform="translate(944.436 386.302)">
        <rect id="text_path-2" data-name="text_path" class="cls-2" width="563.042" height="3.433" transform="translate(0 48.065)"/>
        <text id="hint_text-2" data-name="hint_text" class="cls-31" transform="translate(0 26)"><tspan x="0" y="0">Nomor Induk Mahasiswa</tspan></text>
        <rect id="text_cursor_active-2" data-name="text_cursor_active" class="cls-2" width="1.717" height="34.332" transform="translate(0 1.717)"/>
      </g>
      <rect id="Rectangle_67" data-name="Rectangle 67" class="cls-2" width="583.641" height="63.759" rx="18" transform="translate(924 697.741)"/>
      <text id="Register" class="cls-32" transform="translate(1161.87 741.002)"><tspan x="0" y="0">Register</tspan></text>
      <g id="hint_text_3_light-3" data-name="hint_text_3_light" transform="translate(944.436 584.119)">
        <rect id="text_path-3" data-name="text_path" class="cls-2" width="563.042" height="3.433" transform="translate(0 48.065)"/>
        <text id="hint_text-3" data-name="hint_text" class="cls-31" transform="translate(0 26)"><tspan x="0" y="0">Kelompok Bidang Keahlian</tspan></text>
        <rect id="text_cursor_active-3" data-name="text_cursor_active" class="cls-2" width="1.717" height="34.332" transform="translate(0 1.717)"/>
      </g>
    </g>
    <g id="note" transform="translate(1572 753.99)">
      <path id="Path_1" data-name="Path 1" class="cls-8" d="M881.557,215.048c10.79,15.743,8.4,36.137,8.4,36.137s-19.882-5.131-30.672-20.874-8.4-36.137-8.4-36.137S870.767,199.3,881.557,215.048Z" transform="translate(-598.861 -162.43)"/>
      <path id="Path_2" data-name="Path 2" class="cls-33" d="M907.812,201.082c1.263,19.044,15.756,33.589,15.756,33.589s12.446-16.331,11.183-35.375S919,165.706,919,165.706,906.549,182.038,907.812,201.082Z" transform="translate(-632.88 -145.458)"/>
      <path id="Path_3" data-name="Path 3" class="cls-34" d="M581.938,115.982l146.5,73.653a6.927,6.927,0,0,1,3.8,6.656l-8.511,126.075a3.432,3.432,0,0,1-4.973,2.832L568.913,248.729l7.692-129.673a3.684,3.684,0,0,1,5.333-3.074Z" transform="translate(-430.89 -115.58)"/>
      <path id="Path_4" data-name="Path 4" class="cls-11" d="M586.585,122.359l142.9,71.844a6.757,6.757,0,0,1,3.707,6.492l-8.3,122.978a3.348,3.348,0,0,1-4.851,2.762L573.88,251.845l7.5-126.488a3.594,3.594,0,0,1,5.2-3Z" transform="translate(-433.851 -119.387)"/>
      <path id="Path_5" data-name="Path 5" class="cls-4" d="M603.848,146.041l129.533,65.124a6.125,6.125,0,0,1,3.36,5.885l-7.526,111.476a3.035,3.035,0,0,1-4.4,2.5L592.331,263.417l6.8-114.658a3.258,3.258,0,0,1,4.715-2.718Z" transform="translate(-444.851 -133.527)"/>
      <path id="Path_6" data-name="Path 6" class="cls-34" d="M286.557,505.716l146.684,73.872a9.767,9.767,0,0,0,8.8-.011l108.512-55.084c1.272-1.272,1.095-3.158.688-4.574a10.2,10.2,0,0,0-.8-1.977l-14.787-7.777L411.324,448.133l-7.428-3.943a13.754,13.754,0,0,0-12.775-.052L286.511,498.477a4.061,4.061,0,0,0,.046,7.239Z" transform="translate(-261.219 -310.53)"/>
      <path id="Path_7" data-name="Path 7" class="cls-10" d="M286.554,592.59l146.684,73.872a9.767,9.767,0,0,0,8.8-.011l108.512-55.084c1.272-1.272,1.095-3.158.688-4.574L443.047,663.026a9.438,9.438,0,0,1-8.561.073L284.365,588.308A4.045,4.045,0,0,0,286.554,592.59Z" transform="translate(-261.216 -397.404)"/>
      <path id="Path_8" data-name="Path 8" class="cls-10" d="M513.2,617.222l-47.5-24.005a6.675,6.675,0,0,0-6.156.07l-27.557,14.722a1.971,1.971,0,0,0,.041,3.5l48.435,24.424a5.486,5.486,0,0,0,5.163-.119l27.667-15.587a1.7,1.7,0,0,0-.09-3Z" transform="translate(-348.632 -399.903)"/>
      <path id="Path_9" data-name="Path 9" class="cls-10" d="M615.35,532.307l-51.118,27.157a4.158,4.158,0,0,1-3.827.039L415.974,486.462a2.456,2.456,0,0,1,.019-4.393l49.918-24.707a5.413,5.413,0,0,1,4.837.017l144.58,72.846a1.172,1.172,0,0,1,.023,2.081Z" transform="translate(-338.907 -319.002)"/>
      <rect id="Rectangle_2" data-name="Rectangle 2" class="cls-33" width="0.573" height="52.545" transform="matrix(0.447, -0.894, 0.894, 0.447, 194.635, 78.383)"/>
      <rect id="Rectangle_3" data-name="Rectangle 3" class="cls-33" width="0.573" height="52.803" transform="translate(194.626 85.271) rotate(-62.909)"/>
      <rect id="Rectangle_4" data-name="Rectangle 4" class="cls-33" width="0.573" height="30.246" transform="matrix(0.455, -0.89, 0.89, 0.455, 203.233, 98.439)"/>
      <path id="Path_10" data-name="Path 10" class="cls-11" d="M340.417,425.97s-11.461-4.994-16.844.281S337.986,429.79,340.417,425.97Z" transform="translate(-284.073 -299.347)"/>
      <path id="Path_11" data-name="Path 11" class="cls-8" d="M314.366,360.386c3.851-6.508,11.471-6.811,11.471-6.811s7.425-.949,12.188,8.962c4.44,9.238,10.567,18.158.986,20.32l-1.73-5.386-1.072,5.787a37.48,37.48,0,0,1-4.1.07c-10.26-.331-20.031.1-19.716-3.585C312.813,374.849,310.66,366.648,314.366,360.386Z" transform="translate(-277.811 -257.446)"/>
      <path id="Path_12" data-name="Path 12" class="cls-35" d="M291.992,662.62s4.862,9.03,7.988,9.03,2.778,5.9,2.084,7.293-2.431,4.515.347,9.03a5.54,5.54,0,0,1,.16,5.026,4.4,4.4,0,0,1-8.5-1.735q0-.082.009-.166c.347-5.557-2.431-14.239-5.209-16.323s-5.209-7.64-5.209-7.64Z" transform="translate(-260.826 -441.707)"/>
      <path id="Path_13" data-name="Path 13" class="cls-35" d="M370.468,657.46s-4.862,9.03-7.988,9.03-2.778,5.9-2.084,7.293,2.431,4.515-.347,9.03a5.54,5.54,0,0,0-.16,5.026,4.4,4.4,0,0,0,8.5-1.735q0-.082-.009-.166c-.347-5.557,2.431-14.239,5.209-16.323s5.209-7.64,5.209-7.64Z" transform="translate(-305.963 -438.631)"/>
      <path id="Path_14" data-name="Path 14" class="cls-8" d="M287.806,541.738l2.084,4.515s30.562,10.071,27.783,21.879-16.323,30.214-18.406,29.52-13.2-2.778-13.544-8.682,7.988-16.323,7.988-16.323L282.25,562.229l-16.677-.347-14.232,10.766s14.934,13.2,8.335,18.406-16.323,8.682-17.712,6.6-17.017-32.993-14.586-35.771,27.089-13.2,27.089-13.2l6.6-9.377,25.7-1.389Z" transform="translate(-227.121 -367.363)"/>
      <path id="Path_15" data-name="Path 15" class="cls-35" d="M339.871,401.6s-1.736,11.461,1.736,12.85-6.946,7.293-6.946,7.293h-5.9l-3.82-7.988s3.473-6.251,1.389-12.155S339.871,401.6,339.871,401.6Z" transform="translate(-285.437 -284.53)"/>
      <path id="Path_16" data-name="Path 16" class="cls-10" d="M339.871,401.6s-1.736,11.461,1.736,12.85-6.946,7.293-6.946,7.293h-5.9l-3.82-7.988s3.473-6.251,1.389-12.155S339.871,401.6,339.871,401.6Z" transform="translate(-285.437 -284.53)"/>
      <path id="Path_17" data-name="Path 17" class="cls-34" d="M335.124,429.557s-3.82,4.167-4.515,4.862-3.82,4.515-10.419-1.042-7.293,1.042-7.293,1.042v41.675s5.557-2.431,10.071,0,13.892-.695,13.892-.695l1.736-43.064Z" transform="translate(-278.259 -302.76)"/>
      <path id="Path_18" data-name="Path 18" class="cls-11" d="M355.037,428.645s3.246-1.389,6.024,0,12.5,8.335,11.808,11.461-9.724,25.005-3.473,35.424,7.293,13.2,7.293,13.2l-15.281-7.988s-11.808-7.293-10.766-11.808S355.037,428.645,355.037,428.645Z" transform="translate(-300.723 -301.848)"/>
      <path id="Path_19" data-name="Path 19" class="cls-11" d="M296.52,429.557s-7.289.695-7.636,1.389-10.94,3.647-10.245,6.772,10.245,31.083,6.078,36.292-11.113,12.5-8.682,13.2,6.6-1.042,10.766,0,13.892-7.64,12.85-17.017S299.641,431.988,296.52,429.557Z" transform="translate(-255.982 -302.76)"/>
      <path id="Path_20" data-name="Path 20" class="cls-35" d="M360.219,591.255v3.473s1.737,7.988-3.82,7.641-2.084-9.724-2.084-9.724l.347-3.126Z" transform="translate(-302.313 -398.126)"/>
      <path id="Path_21" data-name="Path 21" class="cls-35" d="M322.076,594.679s3.82,7.988,0,8.682-6.6-4.515-6.6-5.9S322.076,594.679,322.076,594.679Z" transform="translate(-279.797 -401.202)"/>
      <ellipse id="Ellipse_1" data-name="Ellipse 1" class="cls-35" cx="0.695" cy="1.389" rx="0.695" ry="1.389" transform="translate(36.548 110.995)"/>
      <ellipse id="Ellipse_2" data-name="Ellipse 2" class="cls-35" cx="0.695" cy="1.389" rx="0.695" ry="1.389" transform="translate(57.039 110.995)"/>
      <path id="Path_22" data-name="Path 22" class="cls-11" d="M291.977,440.737s-8.682,0-8.335,3.473,11.808,63.207,11.808,63.207,4.862-4.515,9.03-3.473Z" transform="translate(-260.812 -309.425)"/>
      <path id="Path_23" data-name="Path 23" class="cls-11" d="M367.209,443.317s8.682,1.737,8.682,6.946-12.5,55.219-14.239,55.219-8.335-1.042-8.335-2.778S367.209,443.317,367.209,443.317Z" transform="translate(-302.357 -310.963)"/>
      <path id="Path_24" data-name="Path 24" class="cls-28" d="M371.452,468.687l-7.814,30.559S367.284,472.507,371.452,468.687Z" transform="translate(-308.509 -326.088)"/>
      <path id="Path_25" data-name="Path 25" class="cls-28" d="M307.723,458.054l7.9,39.954S313.1,460.359,307.723,458.054Z" transform="translate(-275.174 -319.749)"/>
      <circle id="Ellipse_3" data-name="Ellipse 3" class="cls-35" cx="10.071" cy="10.071" r="10.071" transform="translate(37.417 102.486)"/>
      <path id="Path_26" data-name="Path 26" class="cls-8" d="M94.209,247.523l7.528-3.943,10.4,1.613,2.151,9.5-5.354-.206-1.5-3.49v3.432l-2.471-.095-1.434-5.557-.9,5.915-8.783-.179Z" transform="translate(-55.951 -145.211)"/>
      <path id="Path_27" data-name="Path 27" class="cls-13" d="M368.151,99.28,364,109.153l35.039,18.392L410.843,93" transform="translate(-217.009 -55.438)"/>
      <path id="Path_28" data-name="Path 28" class="cls-33" d="M397.039,83.928l15.479-36.422L376.941,30,362,65.536Z" transform="translate(-215.816 -17.879)"/>
      <rect id="Rectangle_5" data-name="Rectangle 5" class="cls-4" width="0.573" height="30.246" transform="matrix(0.455, -0.89, 0.89, 0.455, 160.024, 26.559)"/>
      <rect id="Rectangle_6" data-name="Rectangle 6" class="cls-4" width="0.573" height="30.246" transform="matrix(0.455, -0.89, 0.89, 0.455, 158.005, 31.404)"/>
    </g>
  </g>
</svg>
